<svg width="90" height="90" viewBox="0 0 90 90" fill="none" xmlns="http://www.w3.org/2000/svg">
<g id="Frame 1707479693">
<g id="Group 1707480155">
<g id="Group">
<path id="Vector" d="M67.3624 14.8974C67.5586 14.4144 67.1592 13.9404 67.1592 13.9404C67.1592 13.9404 64.022 8.60331 52.9222 7.41929C46.979 6.7859 38.8882 7.98832 33.2171 11.0466C22.9418 16.5831 21.4032 25.7038 21.4032 25.7038C21.3453 25.9271 21.2469 26.607 21.4779 26.8971C21.7132 27.1921 22.0556 27.1867 22.4805 27.0433C26.1069 25.8183 36.9156 22.2339 43.7364 20.4237C53.4435 17.8502 61.4175 16.2842 66.5358 15.4122C66.8991 15.3506 67.2253 15.2315 67.3624 14.8974Z" fill="#FFBB36"/>
<path id="Vector_2" d="M78.4456 57.8825C72.6356 70.9306 61.4891 80.0111 46.8809 80.2181C36.2431 80.369 26.8553 76.7245 20.0754 70.3677L15.9749 72.1221L15.9817 65.7733C11.5141 59.7472 8.92379 52.1247 8.92379 43.4655C8.92379 21.2871 25.9109 3.80448 49.6021 3.80448C53.469 3.80448 56.964 4.40625 59.599 5.00316C55.5392 3.70398 51.5051 3 47.0145 3C21.5884 3 4.47745 23.617 4.47656 44.8787C4.47656 68.0485 22.6529 87.4559 46.5107 87.4559C69.298 87.4559 81.5922 71.39 85.5238 61.728L78.4456 57.8825Z" fill="#0066B3"/>
<path id="Vector_3" d="M72.5477 53.2985C75.8913 52.9192 78.2046 51.5752 79.4742 50.3287C80.6314 49.1919 80.9014 47.6265 80.9031 46.4636C80.9498 44.755 80.9031 39.3632 80.9031 39.3632L72.0548 41.2776C72.0548 41.2776 72.054 41.9446 72.0514 43.3447C72.0677 44.712 72.7267 45.4563 74.1599 45.1927C74.6091 45.1191 75.3005 44.8987 75.3005 44.8987L75.3125 46.5883C75.3048 46.5399 75.4434 47.5305 73.2134 47.9714C70.2952 48.4295 68.9691 46.6339 68.9345 43.4609C68.9921 40.0604 70.9148 38.0993 73.2472 37.5622C75.8714 36.9604 77.3566 37.5857 78.2295 37.7188C81.1603 38.1576 81.9914 33.7637 79.3254 32.733C77.3546 31.9391 74.7977 31.7957 72.3602 32.2823C69.1057 32.9314 62.7054 35.6555 62.6877 44.5067C62.7051 51.54 67.8904 53.8321 72.5479 53.2985M43.7847 60.8368C43.7847 60.8368 46.4995 59.9055 46.7343 59.823C48.9164 59.0701 49.7114 57.7725 49.7017 55.5269C49.6741 53.0886 49.6702 48.3338 49.6702 48.3338L55.9829 55.6077C57.0084 56.6666 58.2936 56.7571 59.4702 56.4118C60.6867 56.0557 61.6996 54.9435 61.7302 53.3749C61.7402 48.1222 61.7276 35.3027 61.7276 35.3027C61.7276 35.3027 60.0963 35.6488 58.7422 36.0328C57.1842 36.4743 55.9855 37.4677 55.9855 40.0901C55.9855 41.0186 55.982 46.3464 55.982 46.3464C55.982 46.3464 52.4292 41.8906 50.106 39.5665C48.8637 38.3256 46.8085 39.0664 46.8085 39.0664L43.7795 39.9831L43.7847 60.8368ZM41.8733 40.4529C41.8733 40.4529 39.9721 41.0105 38.4249 41.5691C36.4161 42.2954 35.258 43.4578 35.258 46.4988C35.258 49.2918 35.2532 63.8288 35.2532 63.8288C35.2532 63.8288 37.013 63.227 38.6537 62.608C40.9864 61.7286 41.8664 60.5287 41.8664 58.0792C41.8664 55.9741 41.8733 40.4529 41.8733 40.4529ZM32.4386 44.5766C30.6937 43.7838 29.1958 44.6679 28.5597 45.645L23.196 54.7677L23.1866 47.4131L16.8635 50.0324L16.8438 70.8303L21.2979 68.9631C21.2979 68.9631 22.1722 68.7152 22.6999 67.8861C23.1848 67.1223 23.1667 65.8411 23.1667 65.8411L23.1722 59.2461L28.1502 64.5285C29.2433 65.6636 31.2517 66.2465 33.0238 64.815C34.6262 63.521 34.378 61.3149 33.4841 60.3269L28.9493 55.762C28.9493 55.762 32.9402 49.4721 33.5927 48.4212C34.4587 47.0253 34.023 45.2964 32.4386 44.5766Z" fill="#EC1D23"/>
<path id="Vector_4" d="M29.962 69.0233C29.7267 69.5655 30.2635 70.1035 30.2635 70.1035C32.5649 72.9912 42.7835 76.6529 53.875 73.9721C70.8134 69.8756 74.3924 57.8923 74.7978 56.2003C74.8811 55.8553 74.9469 55.3005 74.6268 54.9676C74.3583 54.6896 73.9767 54.6867 73.447 54.8092C61.6824 57.5748 42.1056 63.5506 30.8188 68.3866C30.333 68.5947 30.1132 68.6711 29.962 69.0233Z" fill="#FFBB36"/>
<g id="Group_2">
<path id="Vector_5" d="M19.9177 41.7667C19.9023 40.6204 19.0111 39.9949 17.4711 40.7678L17.4678 44.4531C17.4678 44.4531 17.9658 44.2326 18.3311 44.0625C19.2315 43.6448 19.9389 42.8935 19.9177 41.7667ZM17.4407 38.4357C17.6804 38.3429 17.916 38.2396 18.1467 38.1263C18.981 37.72 19.5747 36.9665 19.5816 35.9908C19.5902 34.8797 18.6752 34.5925 17.4425 35.2298L17.4407 38.4357ZM23.9599 41.2403C24.01 44.1486 21.9149 45.6961 19.1856 46.8268L13.595 49.202L13.582 34.0557C13.582 34.0557 17.1043 32.6197 18.2535 32.2017C21.52 31.0131 23.4408 32.4459 23.4408 34.628C23.4408 36.0841 22.8175 37.3218 21.4649 38.4094C22.7969 38.6315 23.9344 39.7257 23.9599 41.2403ZM34.5726 28.4562C34.5726 27.1805 33.6952 26.8412 32.6339 27.1467C31.7758 27.3923 30.7765 27.7825 30.7765 27.7825L30.7696 37.1989C30.7593 38.1368 30.6141 39.3109 29.4586 39.6018C28.5717 39.8254 28.1523 39.2336 28.1514 38.2974L28.1389 30.5902C28.1389 29.3079 27.2468 28.924 26.1889 29.275C24.9996 29.6721 24.2851 29.9581 24.2851 29.9581C24.2851 29.9581 24.2988 36.6261 24.2825 39.2926C24.2673 42.4183 26.4225 43.9789 29.7074 43.0086C32.6053 42.1518 34.5403 40.5302 34.5769 36.3673L34.5726 28.4562ZM65.6432 32.3477C66.478 32.1677 66.9988 31.5773 66.9988 30.5573C66.9988 29.6383 67.0023 28.9395 67.0023 28.9395L62.4674 29.9303L62.4757 27.2624C62.4757 27.2624 64.6985 26.7911 65.3157 26.6565C66.0913 26.4865 66.4975 26.0637 66.4975 25.1773C66.4975 24.3505 66.4924 23.635 66.4924 23.635L62.4743 24.4876L62.4735 22.3723C62.4735 22.3723 64.5622 21.9363 65.6879 21.6997C66.5648 21.5154 66.8542 20.9147 66.8542 20.0882C66.8542 19.55 66.8628 18.4847 66.8628 18.4847C64.8585 18.8385 61.0485 19.5997 58.6726 20.144L58.6403 33.9512C58.6403 33.9512 63.1582 32.887 65.6432 32.3477ZM39.4381 31.7901C39.4414 31.7875 41.6815 30.6303 41.657 28.7946C41.6349 27.2248 40.1891 27.5684 39.439 27.8435L39.4381 31.7901ZM39.4439 33.92C39.4439 33.92 39.4364 36.5642 39.4327 37.6312C39.4235 38.6315 38.7406 39.3539 37.8759 39.6842C37.153 39.9322 35.6168 40.4609 35.6168 40.4609L35.6228 26.2429C35.6228 26.2429 38.7949 25.1378 40.6603 24.7043C43.5591 24.0301 45.6207 25.3491 45.5834 27.6906C45.5654 29.92 44.3217 31.2727 43.2046 32.1989L45.6596 34.5559C46.414 35.2868 46.4666 36.608 45.6181 37.4065C45.115 37.8791 43.7695 38.369 42.7159 37.2968L39.4439 33.92ZM71.54 24.1429C71.5446 24.1429 73.753 23.3018 73.7279 21.5311C73.7049 20.0335 72.2303 20.3046 71.5342 20.4601L71.54 24.1428M67.8339 31.9338L67.8399 18.3006C67.8399 18.3006 71.8206 17.5969 72.8487 17.4646C75.7023 17.0981 77.6171 18.682 77.5778 20.9318C77.5627 22.9104 76.3196 24.1011 75.2631 24.8155C75.2631 24.8155 77.2042 27.0024 77.7245 27.581C78.4232 28.3609 78.392 29.6941 77.3583 30.3471C76.3422 30.9879 75.3357 30.6526 74.7513 30.0073L71.5469 26.2492C71.5469 26.2492 71.5572 28.5607 71.5546 29.5699C71.5452 30.5744 70.964 31.3068 69.9219 31.5224L67.8339 31.9338Z" fill="#EC1D23"/>
<path id="Vector_6" d="M57.7476 26.2117L52.1008 27.4941C52.1008 27.4941 52.094 28.0906 52.0931 29.0646C52.1008 29.7949 52.613 30.269 53.3499 30.1173C53.8146 30.0209 54.1865 29.9346 54.1865 29.9346L54.1951 31.5029C54.2011 32.1233 53.2701 32.5296 52.3033 32.5072C50.9485 32.4721 50.1973 31.4193 50.1778 29.4162C50.22 26.7823 51.459 25.2361 53.1467 24.8043C53.9895 24.5873 54.7565 24.693 55.3523 24.7703C56.8072 25.0053 57.6449 24.3039 57.6747 23.1015C57.705 21.8137 56.5627 21.0172 54.1109 21.1023C48.7945 21.2858 46.0762 25.1055 46.0762 29.6641C46.0762 34.3327 49.126 36.3948 52.8486 35.7221C54.9523 35.2978 55.9987 34.6146 56.7238 33.9787C57.4487 33.3429 57.7476 32.3918 57.7476 31.5797V26.2117Z" fill="#EC1D23"/>
</g>
<path id="Vector_7" d="M35.499 10.942C29.2717 13.6909 25.0672 20.2344 24.8361 23.0042C24.7451 24.1053 26.2049 24.2634 26.3423 23.0942C27.6564 18.0417 31.6782 13.2781 35.499 10.942ZM56.1349 15.6369C59.4937 14.8129 61.3383 14.6886 61.3715 13.1882C61.4298 10.6757 54.2617 7.76239 47.6982 8.29009C54.3857 8.73698 58.3972 11.3115 58.4192 13.1058C58.4318 14.2406 57.4484 15.2421 56.1349 15.6369ZM58.2162 71.1704C63.2561 69.1882 68.0993 65.4017 70.7787 59.73C71.5519 58.091 69.316 57.2536 68.6848 59.1783C67.1165 63.2107 63.8934 67.9453 58.2162 71.1704Z" fill="white"/>
</g>
</g>
</g>
</svg>
