<svg width="90" height="90" viewBox="0 0 90 90" fill="none" xmlns="http://www.w3.org/2000/svg">
<g id="Frame 1707479693" clip-path="url(#clip0_371_198)">
<g id="Group 1707480155">
<g id="Group">
<path id="Vector" fill-rule="evenodd" clip-rule="evenodd" d="M48.7785 63.8536C49.9757 63.8536 50.9362 64.8141 50.9362 66.0112C50.9362 67.2084 49.9757 68.1689 48.7785 68.1689C47.5814 68.1689 46.6069 67.2084 46.6069 66.0112C46.6069 64.8141 47.5814 63.8536 48.7785 63.8536ZM77.9417 71.8021C78.0531 68.1689 83.8858 67.8348 87.2684 69.8811L86.0156 72.345C84.8463 71.5376 83.844 71.1618 82.5633 71.2592C81.3383 71.3567 81.213 72.6791 83.1897 72.6374C86.2662 72.5538 87.9366 74.1825 87.7696 76.2567C87.5051 79.6115 82.2153 80.9896 77.5798 78.0524L79.292 75.5467C80.5866 76.2984 81.8673 76.9527 83.1619 76.7995C84.5122 76.6464 85.1804 75.5606 82.7861 75.3101C79.5148 74.9621 77.8861 73.918 77.9417 71.8021ZM52.5092 79.6532V69.3104H56.2816V70.7581C57.7432 68.3359 63.4228 68.2942 63.4228 72.0805L63.4367 79.6393H59.6782L59.6364 74.447C59.6225 72.3589 58.8569 72.1641 57.8407 72.2893C56.9916 72.3868 56.2398 72.693 56.2398 74.447V79.6393H52.5092V79.6532ZM50.7274 69.1294V79.6532H46.8157V69.1294H50.7274ZM27.7448 79.6532V69.3104H31.5172V70.7581C32.6448 68.8788 36.9879 67.9601 38.2408 70.8695C40.0226 68.2246 45.201 68.3359 45.201 71.9413V79.6393H41.2058V74.0015C41.2058 72.4842 40.9413 72.345 39.6606 72.4007C38.6166 72.4425 38.38 73.3194 38.38 74.2939L38.3521 79.6672H34.6075L34.5658 74.4748C34.5379 72.3868 34.0925 72.2197 33.0624 72.3172C32.0601 72.4146 31.6147 72.5538 31.6147 74.4748V79.6672H27.7448V79.6532ZM20.9516 68.5447C24.028 68.5447 26.5059 71.0226 26.5059 74.099C26.5059 77.1754 24.028 79.6532 20.9516 79.6532C17.8891 79.6532 15.3974 77.1754 15.3974 74.099C15.4113 71.0365 17.8891 68.5447 20.9516 68.5447ZM20.9516 72.1223C22.0513 72.1223 22.9283 73.0132 22.9283 74.099C22.9283 75.1987 22.0374 76.0757 20.9516 76.0757C19.8519 76.0757 18.9749 75.1848 18.9749 74.099C18.9888 73.0132 19.8658 72.1223 20.9516 72.1223ZM0.140625 79.6532V65.009H4.49771C5.87583 65.009 7.05907 65.0925 8.03349 65.2317C9.00792 65.3848 9.8153 65.6215 10.4278 65.9277C11.7224 66.582 12.7107 67.4729 13.4068 68.5726C14.1028 69.6723 14.4508 70.9251 14.4508 72.3311C14.4508 73.7371 14.1028 74.976 13.4207 76.0757C12.7247 77.1754 11.7363 78.0524 10.4278 78.7206C9.78746 79.0407 8.994 79.2774 8.01957 79.4166C7.04514 79.5697 5.73663 79.6393 4.10794 79.6393H0.140625V79.6532ZM4.48379 75.7973V68.8928H6.2656C6.83634 68.8928 7.30963 68.9345 7.71332 69.0041C8.11702 69.0737 8.43718 69.1851 8.68775 69.3382C9.21673 69.6584 9.62042 70.076 9.91275 70.5911C10.1912 71.1061 10.3304 71.7047 10.3304 72.3589C10.3304 73.0132 10.1912 73.6118 9.91275 74.1268C9.63434 74.6419 9.23065 75.0595 8.68775 75.3797C8.42326 75.5328 8.1031 75.6442 7.6994 75.7138C7.29571 75.7834 6.76674 75.8112 6.09856 75.8112H4.48379V75.7973ZM70.0071 68.5447C73.0696 68.5447 75.5614 71.0226 75.5614 74.099C75.5614 77.1754 73.0696 79.6532 70.0071 79.6532C66.9446 79.6532 64.4529 77.1754 64.4529 74.099C64.4529 71.0365 66.9446 68.5447 70.0071 68.5447ZM70.0071 72.1223C71.1068 72.1223 71.9838 73.0132 71.9838 74.099C71.9838 75.1987 71.1068 76.0757 70.0071 76.0757C68.9074 76.0757 68.0304 75.1848 68.0304 74.099C68.0304 73.0132 68.9074 72.1223 70.0071 72.1223ZM76.7168 63.8814C77.5798 63.8814 78.3176 64.3965 78.6378 65.1343C78.8883 65.705 78.9162 66.4149 78.7491 67.0274C78.5264 67.9601 77.7329 68.8649 76.0903 69.7141L75.631 69.1016C75.9511 68.8371 76.2852 68.5448 76.4105 68.3499C76.6611 67.9879 76.3409 68.0715 76.0764 67.9879C75.2273 67.7234 74.6009 66.93 74.6009 65.9834C74.6148 64.828 75.5614 63.8814 76.7168 63.8814Z" fill="#0C6A93"/>
<path id="Vector_2" d="M89.0943 69.0321C89.2474 69.0321 89.3866 69.0739 89.5397 69.1435C89.6789 69.227 89.8042 69.3384 89.8738 69.4776C89.9573 69.6168 89.9991 69.7699 89.9991 69.9369C89.9991 70.0901 89.9573 70.2432 89.8877 70.3963C89.8042 70.5355 89.6929 70.6608 89.5537 70.7304C89.4005 70.8139 89.2613 70.8418 89.0943 70.8418C88.9412 70.8418 88.7741 70.8 88.6349 70.7304C88.4957 70.6469 88.3704 70.5355 88.3008 70.3963C88.2173 70.2432 88.1895 70.104 88.1895 69.9369C88.1895 69.7838 88.2312 69.6168 88.3008 69.4776C88.3843 69.3244 88.4957 69.2131 88.6488 69.1435C88.788 69.0739 88.9412 69.0321 89.0943 69.0321ZM89.0943 69.1852C88.9551 69.1852 88.8437 69.2131 88.7184 69.2827C88.6071 69.3523 88.5096 69.4358 88.44 69.5611C88.3704 69.6724 88.3426 69.8116 88.3426 69.9369C88.3426 70.0761 88.3704 70.2014 88.44 70.3128C88.5096 70.4381 88.5931 70.5355 88.7184 70.5912C88.8298 70.6608 88.969 70.6886 89.0943 70.6886C89.2335 70.6886 89.3588 70.6608 89.4701 70.5912C89.5815 70.5216 89.6789 70.4381 89.7485 70.3128C89.8181 70.2014 89.846 70.0622 89.846 69.9369C89.846 69.7977 89.8042 69.6724 89.7485 69.5611C89.6789 69.4358 89.5815 69.3384 89.4562 69.2827C89.3448 69.2131 89.2196 69.1852 89.0943 69.1852ZM88.6906 70.452V69.4636H89.0247C89.136 69.4636 89.2196 69.4776 89.2752 69.4915C89.317 69.5054 89.3588 69.5332 89.3866 69.5889C89.4144 69.6307 89.4284 69.6864 89.4284 69.7281C89.4284 69.7977 89.4005 69.8673 89.3448 69.923C89.3031 69.9787 89.2335 70.0065 89.136 70.0065C89.1778 70.0205 89.2056 70.0344 89.2196 70.0622C89.2613 70.104 89.3031 70.1597 89.3727 70.2571L89.484 70.452H89.2892L89.2056 70.2989C89.136 70.1736 89.0804 70.0901 89.0386 70.0761C89.0108 70.0483 88.969 70.0344 88.9133 70.0344H88.8159V70.452H88.6906ZM88.8437 69.8952H89.0386C89.1221 69.8952 89.1917 69.8813 89.2196 69.8534C89.2613 69.8256 89.2752 69.7838 89.2752 69.742C89.2752 69.7142 89.2613 69.6864 89.2474 69.6585C89.2335 69.6307 89.2056 69.6168 89.1778 69.6028C89.15 69.5889 89.0943 69.5889 89.0247 69.5889H88.8437V69.8952Z" fill="#0074AD"/>
<g id="Group 1707480154">
<path id="Vector_3" fill-rule="evenodd" clip-rule="evenodd" d="M37.4609 24.0828L51.1029 10.4826C51.6737 9.91188 52.6063 9.91188 53.1771 10.4826L66.0534 23.4008C66.6242 23.9715 66.6242 24.9042 66.0534 25.4749L52.3975 39.0751L37.4609 24.0828ZM49.697 21.6746C51.1308 20.2408 53.4416 20.2547 54.8754 21.6885C56.3092 23.1223 56.2952 25.447 54.8614 26.8669C53.4276 28.3007 51.1029 28.2868 49.6831 26.853C48.2493 25.4192 48.2632 23.1084 49.697 21.6746Z" fill="#E92944"/>
<path id="Vector_4" fill-rule="evenodd" clip-rule="evenodd" d="M39.3837 37.2656C40.8175 35.8457 43.1283 35.8457 44.5621 37.2795C45.9959 38.7133 45.982 41.0241 44.5482 42.4579C43.1144 43.8778 40.7897 43.8778 39.3698 42.444C37.9499 41.0241 37.9499 38.6994 39.3837 37.2656ZM28.665 37.3074C30.0988 35.8736 32.4096 35.8875 33.8434 37.3213C35.2633 38.7551 35.2633 41.0659 33.8295 42.4997C32.3957 43.9196 30.071 43.9196 28.6511 42.4858C27.2312 41.052 27.2312 38.7273 28.665 37.3074ZM22.8323 38.6716L36.4743 25.0714L51.4249 40.0775L37.7829 53.6778C37.2121 54.2485 36.2795 54.2485 35.7087 53.6639L22.8323 40.7457C22.2616 40.175 22.2616 39.2423 22.8323 38.6716Z" fill="#0C6A93"/>
<path id="Vector_5" d="M42.5281 54.1649V52.3274H41.832V52.0072H43.586V52.3274H42.89V54.1649H42.5281ZM43.8226 54.1649V52.0072H44.3516L44.8945 53.7333L45.4235 52.0072H45.9385V54.1649H45.6045V52.3552L45.0476 54.1649H44.7275L44.1567 52.3274V54.1649H43.8226Z" fill="#0C6A93"/>
</g>
</g>
</g>
</g>
<defs>
<clipPath id="clip0_371_198">
<rect width="90" height="90" fill="white"/>
</clipPath>
</defs>
</svg>
