<svg width="90" height="90" viewBox="0 0 90 90" fill="none" xmlns="http://www.w3.org/2000/svg">
<g id="Frame 1707479693" clip-path="url(#clip0_371_71)">
<g id="Group 1707480158">
<g id="Group">
<path id="Vector" fill-rule="evenodd" clip-rule="evenodd" d="M85.5529 23.3466C86.4688 24.8513 87.123 26.2578 87.7445 27.8279C88.3987 29.5942 88.8893 31.4586 89.3145 33.2904C90.0341 36.9866 90.165 40.5847 89.8052 44.2809C89.3145 48.8929 88.0388 52.9162 86.109 57.1031C84.6043 57.8881 83.1324 58.575 81.5623 59.2292C77.8007 60.7338 73.9737 61.9114 70.0812 62.9254C62.787 64.5609 55.5581 65.4113 48.0349 65.6076C42.6378 65.7384 37.3388 65.4767 31.9417 64.9534C25.4979 64.1029 19.1849 62.8927 13.0682 60.8974C11.6617 60.4067 3.6478 57.2012 3.48425 56.5797C3.12445 55.8601 2.92819 55.2386 2.6338 54.519C2.40483 54.0283 2.27399 53.6031 2.07774 53.1125C1.78335 52.3274 1.52167 51.477 1.22728 50.692C0.998314 50.0378 0.867476 49.3509 0.671218 48.6967C0.540379 48.0425 0.37683 47.3556 0.245991 46.7014C0.115152 45.9818 0.0497329 45.2948 -0.0483962 44.6407C-0.179235 43.921 -0.277364 43.2341 -0.277364 42.5799C-0.342783 41.8603 -0.408203 41.1734 -0.408203 40.4538C-0.408203 39.7342 -0.408203 39.0473 -0.342783 38.3277C-0.342783 37.6081 -0.277364 36.9212 -0.211945 36.267C-0.146525 35.5474 -0.081106 34.8605 0.0824425 34.1408C0.147862 33.5194 0.278701 32.7997 0.442249 32.1455C0.573088 31.4259 0.802056 30.8045 0.932895 30.1503C1.16186 29.4306 1.2927 28.8092 1.58709 28.155C1.81606 27.5008 2.01232 26.8793 2.3067 26.2251C2.53567 25.5709 2.79735 24.9494 3.09174 24.3933L3.58238 23.3466L5.15245 22.627L6.13374 22.2018L7.11503 21.7112L8.09632 21.2859L9.17574 20.8607L10.2225 20.4355L12.414 19.6504L14.7691 18.9308L17.1242 18.3093L19.6101 17.6551L22.1615 17.0991L24.7129 16.6084L27.3951 16.1832L30.0772 15.758L32.923 15.4636L35.7033 15.2346L38.6145 15.0384L41.5911 14.973L44.5676 14.9075L47.5442 14.973L50.4554 15.0384L53.3666 15.2346L56.2123 15.4636L58.9926 15.758L61.7729 16.1832L64.3897 16.6084L67.0065 17.0991L69.5579 17.6551L71.9784 18.3093L74.3989 18.9308L76.6559 19.6504L78.8474 20.4355L79.9923 20.8607L80.9736 21.2859L82.0203 21.7112L83.0015 22.2018L83.9828 22.627L85.5529 23.3466Z" fill="black"/>
<path id="Vector_2" fill-rule="evenodd" clip-rule="evenodd" d="M44.5676 14.8422H47.5442L50.4554 14.973L53.3665 15.202L56.2123 15.4309L58.9926 15.7253L61.7729 16.1506L64.3897 16.5758L67.0065 17.0664L69.5578 17.6225L72.0438 18.1786L74.3989 18.8982L76.6559 19.6178L78.9128 20.4028L79.9595 20.828L81.0389 21.2533L82.0202 21.6785L83.0015 22.1037L83.9828 22.5944L85.6183 23.3794C85.9127 24.099 86.2725 24.7205 86.5342 25.4401C86.7632 25.8653 86.9594 26.356 87.0902 26.8466C87.4501 27.6317 87.7444 28.4167 87.9407 29.2671C88.0715 29.7578 88.2351 30.2484 88.3659 30.7718C88.5622 31.5568 88.7912 32.4073 88.922 33.2577C89.0528 33.9773 89.151 34.5988 89.2818 35.3184C89.3472 36.0381 89.4126 36.6595 89.4126 37.3792C89.4781 38.0988 89.5435 38.7857 89.5435 39.5053C89.5435 40.2249 89.5435 40.9118 89.4781 41.6314C89.4781 42.351 89.4126 43.0379 89.3472 43.7576C89.2818 44.379 89.2164 45.0986 89.0528 45.8183C88.9874 46.4725 88.8239 47.1594 88.693 47.8136C88.5622 48.5332 88.3986 49.1547 88.2024 49.8088C88.0061 50.5285 87.8426 51.1499 87.6463 51.8041C87.4501 52.4583 87.1557 53.0798 86.9267 53.734C86.6323 54.3882 86.3706 55.0097 86.0763 55.5658L85.5856 56.7106L83.9501 57.4956L82.9688 57.9863L81.9875 58.4115L81.0062 58.8367L79.9268 59.262L78.8801 59.6872L76.6231 60.4722L74.3662 61.1918L72.0111 61.846L69.5251 62.5002L66.9738 63.0563L64.357 63.5469L61.7402 63.9722L58.9599 64.3974L56.1796 64.6918L53.3338 64.9862L50.4227 65.117L47.5115 65.2478H41.5583L38.6472 65.117L35.736 64.9862L32.8903 64.6918L30.1099 64.3974L27.3296 63.9722L24.6474 63.5469L22.0961 63.0563L19.5447 62.5002L17.0588 61.846L14.7037 61.1918L12.3486 60.4722L10.157 59.6872L9.07759 59.262L7.99817 58.8367L7.01688 58.4115L6.03559 57.9863L5.0543 57.4956L3.41881 56.7106C3.05901 55.991 2.76462 55.3695 2.43752 54.6499C2.30668 54.1592 2.07771 53.734 1.94688 53.2434C1.58707 52.4583 1.32539 51.6733 1.09642 50.8228C0.900165 50.1687 0.671197 49.5472 0.540358 48.8276C0.409519 48.1734 0.180551 47.4865 0.115132 46.8323C-0.0157071 46.1127 -0.179256 45.4912 -0.244675 44.7716C-0.310095 44.0519 -0.375514 43.4305 -0.473643 42.7108C-0.473643 41.9912 -0.539062 41.3043 -0.539062 40.5847V38.4586C-0.473643 37.739 -0.473643 37.0521 -0.342804 36.3979C-0.342804 35.6783 -0.211965 34.9913 -0.146546 34.2717C-0.0157069 33.6502 0.147841 32.9306 0.27868 32.2764C0.409519 31.5568 0.573068 30.9353 0.769326 30.2811C0.900165 29.5615 1.12913 28.9401 1.32539 28.2859C1.52165 27.6317 1.81604 27.0102 2.045 26.356C2.33939 25.7018 2.53565 25.0803 2.83004 24.5242L3.3861 23.3794L5.02159 22.5944L6.00288 22.1037L6.98417 21.6785L7.96546 21.2533L9.04488 20.828L10.1243 20.4028L12.3159 19.6178L14.671 18.8982L17.0261 18.1786L19.512 17.6225L22.0633 17.0664L24.6147 16.5758L27.2969 16.1506L30.0772 15.7253L32.8576 15.4309L35.7033 15.202L38.6145 14.973L41.5256 14.8422H44.5676Z" fill="#FFF200"/>
<path id="Vector_3" fill-rule="evenodd" clip-rule="evenodd" d="M44.5668 15.4636H47.4779L48.9499 15.529L50.3891 15.6272L51.861 15.6926L53.3003 15.758L54.7068 15.8888L56.1133 16.0524L57.4544 16.1832L58.8936 16.3141L60.2347 16.543L61.5758 16.7393L62.9169 16.9029L64.1926 17.0991L65.5337 17.3935L66.8094 17.6552L68.1178 17.8841L69.3934 18.1785L70.571 18.5056L71.7812 18.8L72.9915 19.1598L74.1363 19.4542L75.3466 19.7813L76.4587 20.2392L77.5381 20.5663L78.5849 20.9261L79.6643 21.3514L80.711 21.7766L81.725 22.2018L82.7063 22.627L83.6876 23.1177L85.1268 23.8373L85.552 24.6878L85.7483 25.1784L85.9772 25.6036L86.1081 26.0943L86.3371 26.5195L86.5333 27.0429L86.6642 27.4681L86.8931 28.0242L87.024 28.4494L87.1875 28.94L87.3184 29.4307L87.4492 29.8559L87.6127 30.3465L87.7436 30.8699L87.8744 31.3605L88.038 31.8512L88.1034 32.3418L88.2342 32.8325L88.2996 33.3558L88.3651 33.8465L88.5286 34.3371L88.594 34.8278L88.6594 35.3184V35.8091L88.7249 36.3324L88.7903 36.8885V37.3791L88.8884 37.8698V38.3604L88.9538 38.9492V41.0099L88.8884 41.5006V42.0566L88.7903 42.5473V43.0379L88.7249 43.5613L88.6594 44.1173V44.608L88.594 45.0986L88.5286 45.5893L88.3651 46.1126L88.2996 46.6033L88.2342 47.0939L88.1034 47.5846L88.038 48.0752L87.8744 48.5986L87.7436 49.0892L87.6127 49.5798L87.4492 50.0051L87.3184 50.4957L87.1875 50.9864L87.024 51.477L86.8931 51.9022L86.6642 52.491L86.5333 52.9162L86.3371 53.4069L86.1081 53.8321L85.9772 54.3228L85.7483 54.748L85.552 55.2386L85.1268 56.0891L83.6876 56.8087L82.7063 57.2993L81.725 57.7246L80.711 58.1498L79.6643 58.575L78.5849 58.9348L77.5381 59.3601L76.4587 59.7199L75.3466 60.1451L74.1363 60.5049L72.9915 60.7666L71.7812 61.1264L70.571 61.4208L69.3934 61.6824L68.1178 61.9768L66.8094 62.2712L65.5337 62.5329L64.1926 62.7619L62.9169 63.0563L61.5758 63.1871L60.2347 63.4161L58.8936 63.6123L57.4544 63.7432L56.1133 63.9067L54.7068 64.0375L53.3003 64.103L51.861 64.2665L50.3891 64.3319L48.9499 64.3974L47.4779 64.4628H41.5902L40.0855 64.3974L38.679 64.3319L37.1744 64.2665L35.7678 64.103L34.4268 64.0375L33.0202 63.9067L31.581 63.7432L30.2399 63.6123L28.8334 63.4161L27.4923 63.1871L26.2166 63.0563L24.8428 62.7619L23.5671 62.5329L22.226 62.2712L20.9504 61.9768L19.7401 61.6824L18.5298 61.4208L17.2542 61.1264L16.142 60.7666L14.9318 60.5049L13.7869 60.1451L12.6748 59.7199L11.53 59.3601L10.4505 58.9348L9.40382 58.575L8.3244 58.1498L7.34311 57.7246L6.36182 57.2993L5.34782 56.8087L4.00672 56.0891L3.51608 55.2386L3.38524 54.748L3.15627 54.3228L2.96001 53.8321L2.73105 53.4069L2.60021 52.9162L2.37124 52.491L2.2404 51.9022L2.01143 51.477L1.88059 50.9864L1.74975 50.4957L1.5862 50.0051L1.45537 49.5798L1.32453 49.0892L1.25911 48.5986L1.09556 48.0752L0.96472 47.5846L0.899301 47.0939L0.735752 46.6033L0.670333 46.1126L0.604913 45.5893L0.539494 45.0986L0.474075 44.608L0.408655 44.1173L0.310526 43.5613L0.245107 43.0379V42.5473L0.179688 42.0566V37.8698L0.245107 37.3791V36.8885L0.310526 36.3324L0.408655 35.8091L0.474075 35.3184L0.539494 34.8278L0.604913 34.3371L0.670333 33.8465L0.735752 33.3558L0.899301 32.8325L0.96472 32.3418L1.09556 31.8512L1.25911 31.3605L1.32453 30.8699L1.45537 30.3465L1.5862 29.8559L1.74975 29.4307L1.88059 28.94L2.01143 28.4494L2.2404 28.0242L2.37124 27.4681L2.60021 27.0429L2.73105 26.5195L2.96001 26.0943L3.15627 25.6036L3.38524 25.1784L3.51608 24.6878L4.00672 23.8373L5.34782 23.1177L6.36182 22.627L7.34311 22.2018L8.3244 21.7766L9.40382 21.3514L10.4505 20.9261L11.53 20.5663L12.6748 20.2392L13.7869 19.7813L14.9318 19.4542L16.142 19.1598L17.2542 18.8L18.5298 18.5056L19.7401 18.1785L20.9504 17.8841L22.226 17.6552L23.5671 17.3935L24.8428 17.0991L26.2166 16.9029L27.4923 16.7393L28.8334 16.543L30.2399 16.3141L31.581 16.1832L33.0202 16.0524L34.4268 15.8888L35.7678 15.758L37.1744 15.6926L38.679 15.6272L40.0855 15.529L41.5902 15.4636H43.0621H44.5668Z" fill="#ED1C24"/>
<path id="Vector_4" fill-rule="evenodd" clip-rule="evenodd" d="M44.568 16.9028L47.4791 16.9682L50.3903 17.0337L53.236 17.2626L56.0164 17.4589L58.6986 17.7533L61.3808 18.1785L63.9975 18.6037L66.5489 19.0944L69.0348 19.585L71.4553 20.2065L73.7777 20.8607L75.9693 21.5803L78.0954 22.3653L79.1748 22.7252L80.1561 23.1504L81.1374 23.5756L82.1187 24.0008L83.0346 24.4261L83.9505 24.9167C84.2449 25.4728 84.5065 26.0615 84.7355 26.683C85.0299 27.2391 85.2261 27.8279 85.4551 28.4494C85.6841 28.94 85.8149 29.3652 85.9458 29.8559C86.1747 30.5755 86.371 31.3605 86.5999 32.1128C86.7308 32.767 86.8943 33.3885 86.9598 34.0427C87.0906 34.6969 87.1887 35.3838 87.2541 36.038C87.3196 36.6595 87.385 37.3137 87.4504 37.9679V42.0239C87.385 42.6454 87.3196 43.2996 87.2541 43.9538C87.1887 44.608 87.1233 45.2294 86.9598 45.949C86.8943 46.3743 86.7635 46.8649 86.6654 47.3556C86.5345 48.1406 86.3056 48.9256 86.1093 49.678C85.8803 50.234 85.6841 50.8882 85.4551 51.5097C85.2589 52.0658 85.0299 52.72 84.8336 53.276C84.5392 53.9302 84.2775 54.4863 83.9832 55.0423L83.0673 55.533L82.1514 55.9582L81.1701 56.3834L80.1888 56.8087L78.1281 57.5937L76.002 58.3787L73.8104 59.0984L71.4881 59.7525L69.0675 60.374L66.5816 60.8647L64.0302 61.3553L61.4135 61.7805L58.7313 62.1404L56.0491 62.5002L53.2687 62.7291L50.423 62.9254L47.5118 62.9908L44.6007 63.0562L41.6895 62.9908L38.7783 62.9254L35.9326 62.7291L33.1523 62.5002L30.3719 62.1404L27.6897 61.7805L25.1384 61.3553L22.587 60.8647L20.1011 60.374L17.6806 59.7525L15.3255 59.0984L13.1339 58.3787L11.0078 57.5937L9.92838 57.2339L8.94708 56.8087L7.86766 56.3834L6.95179 55.9582L6.03592 55.533L5.05463 55.0423C4.76024 54.4863 4.56398 53.8975 4.26959 53.276C4.07334 52.72 3.77895 52.0658 3.54998 51.5097C3.32101 50.8882 3.19017 50.234 2.99392 49.678C2.76495 49.0238 2.63411 48.4023 2.50327 47.7481C2.37243 47.0939 2.20888 46.5378 2.14346 45.9163C2.01262 45.1967 1.9472 44.5752 1.84908 43.921C1.71824 43.2996 1.71824 42.6454 1.62011 41.9912C1.62011 41.2716 1.55469 40.6501 1.55469 39.9305C1.55469 39.2763 1.62011 38.6548 1.62011 37.9352C1.68553 37.4445 1.68553 37.0193 1.75095 36.4305C1.81637 35.6455 1.97991 34.8605 2.11075 34.01C2.17617 33.3558 2.30701 32.7343 2.47056 32.0801C2.6014 31.5241 2.76495 30.8699 2.96121 30.2484C3.15746 29.6269 3.32101 29.0381 3.51727 28.4166C3.71353 27.7952 4.00792 27.2064 4.23688 26.6503C4.53127 26.0288 4.72753 25.4401 5.02192 24.884L6.00321 24.3933L6.91908 23.9681L7.83495 23.5429L8.91437 23.1177L9.89567 22.6924L11.9564 21.9074L14.1479 21.1878L16.503 20.4682L18.8581 19.814L21.2786 19.2579L23.7646 18.7673L26.3814 18.2766L28.9981 17.9168L31.6803 17.557L34.4607 17.2626L37.3064 17.0337L40.1521 16.9028L43.0633 16.8374H44.568V16.9028Z" fill="#FFF200"/>
<path id="Vector_5" fill-rule="evenodd" clip-rule="evenodd" d="M44.5665 16.9029L47.4777 16.9684L50.3888 17.0338L52.0897 17.1646L53.2346 17.23L56.0149 17.4263L58.6971 17.7207L61.3793 18.1459L63.9961 18.5711L66.5474 19.0618L69.0334 19.5524L71.4539 20.1739L73.7763 20.8281L75.9678 21.5477L78.1594 22.3655L79.1407 22.7253L80.2201 23.1505L81.136 23.5757L82.1172 24.0009L83.0331 24.4262L84.0144 24.9168C84.0798 25.1458 84.2434 25.4075 84.3088 25.6364V25.571L83.0985 25.0149L82.1172 24.5897L81.2014 24.1645L80.2201 23.7393L79.2388 23.314L78.1921 22.9542L76.0659 22.1692L73.8744 21.5477L71.5193 20.8935L69.1642 20.2393L66.6783 19.6833L64.1269 19.258L61.5101 18.8328L58.8934 18.473L56.113 18.1132L53.3327 17.9169L50.5524 17.7861L47.6412 17.6553H43.3235L40.4124 17.7207L37.5666 17.8515L34.7209 18.0478L32.0387 18.2767L29.3565 18.6366L26.7397 19.0618L24.1883 19.487L21.637 19.9777L19.2165 20.5337L16.8614 21.1879L14.6044 21.9075L12.4129 22.6271L10.3521 23.3468L9.37085 23.772L8.38956 24.1972L7.40827 24.6224L6.49239 24.9822L5.57652 25.4729C5.28213 26.0289 5.02046 26.6177 4.72607 27.1738C4.4971 27.7299 4.30084 28.384 4.07188 28.9401C3.84291 29.4962 3.64665 30.1504 3.51581 30.7064C3.28684 31.3279 3.156 31.9821 2.95974 32.5382C2.82891 33.1924 2.73078 33.8139 2.59994 34.4353C2.4691 35.2204 2.37097 36.0054 2.30555 36.8559C2.24013 37.3465 2.17471 37.8372 2.17471 38.3605C2.10929 38.982 2.10929 39.6362 2.10929 40.2904C2.10929 40.9446 2.10929 41.5661 2.17471 42.2857C2.17471 42.9399 2.24013 43.5614 2.30555 44.2155C2.37097 44.837 2.53452 45.4912 2.59994 46.1127C3.09058 48.5986 3.8102 51.0846 4.72607 53.407C5.02046 53.963 5.34755 54.6827 5.64194 55.2387L5.08588 55.0098C4.79149 54.4537 4.59523 53.7995 4.30084 53.2434C4.10459 52.6874 3.8102 52.0332 3.58123 51.4771C3.35226 50.8556 3.22142 50.2014 3.02516 49.6454C2.7962 48.9912 2.66536 48.3697 2.53452 47.7155C2.40368 47.0613 2.24013 46.5052 2.17471 45.8837C2.04387 45.1641 1.97845 44.5426 1.88032 43.8884C1.74949 43.267 1.74949 42.6128 1.65136 41.9586C1.65136 41.239 1.58594 40.6175 1.58594 39.8979C1.58594 39.2437 1.65136 38.6222 1.65136 37.9026C1.71678 37.4119 1.71678 36.9867 1.7822 36.3979C1.84762 35.6129 2.01116 34.7624 2.142 33.9774C2.20742 33.3232 2.33826 32.7017 2.50181 32.0475C2.63265 31.426 2.7962 30.8373 2.99246 30.2158C3.18871 29.5943 3.35226 29.0055 3.54852 28.384C3.74478 27.7626 4.03917 27.1738 4.26813 26.6177C4.56252 25.9962 4.75878 25.4075 5.05317 24.8514L6.03446 24.3608L6.95033 23.9355L7.8662 23.5103L8.94562 23.0851L9.92691 22.6598L11.9876 21.8748L14.1792 21.1552L16.5343 20.4356L18.8894 19.7814L21.3099 19.2253L23.8612 18.7347L26.4126 18.244L29.0294 17.8842L31.7116 17.5244L34.4919 17.23L37.3376 17.0011L40.1834 16.8702L43.0946 16.8048H44.5665V16.9029Z" fill="black"/>
<path id="Vector_6" fill-rule="evenodd" clip-rule="evenodd" d="M84.0472 24.9167C84.2434 25.4728 84.5378 26.0616 84.8322 26.6831C85.0612 27.2391 85.3229 27.8279 85.5518 28.4494C85.6827 28.8746 85.8462 29.3653 85.977 29.7905C86.206 30.5755 86.4023 31.3606 86.5985 32.1456C86.7294 32.7998 86.8929 33.4213 86.9583 34.0755C87.0892 34.7297 87.1873 35.4166 87.2527 36.0708C87.3181 36.6922 87.3836 37.3464 87.449 37.9679V42.0239C87.3836 42.6454 87.3181 43.2996 87.2527 43.9538C87.1873 44.5753 87.1219 45.2295 86.9583 45.9491C86.8929 46.3743 86.8275 46.865 86.6639 47.3556C86.5331 48.1406 86.3041 48.9257 86.1079 49.7107C85.8789 50.2668 85.6827 50.921 85.5518 51.5425C85.3229 52.0985 85.0612 52.7527 84.8322 53.3088C84.5378 53.963 84.2761 54.519 84.0472 55.0751L83.0659 55.5657L82.15 55.991L81.1687 56.4162L80.1874 56.8414L78.1267 57.6265L76.0006 58.4115L73.809 59.1311L71.4866 59.7853L69.0661 60.4068L66.5802 60.8974L64.0288 61.3881L61.4121 61.8133L58.7299 62.1731L56.0477 62.5329L53.2673 62.7619L50.4216 62.9581L47.5104 63.0236L44.5993 63.089L41.6881 63.0236L38.7769 62.9581L35.9312 62.7619L33.1509 62.5329L30.3705 62.1731L27.6883 61.8133L25.0716 61.3881L22.5856 60.8974L20.0997 60.4068L17.6792 59.7853L15.3241 59.1311L13.1325 58.4115L10.941 57.6265L9.95968 57.2667L8.88026 56.8414L7.89897 56.4162L6.9831 55.991L6.06723 55.5657L5.08594 55.0751L5.31491 54.6499L6.03452 55.0097L6.95039 55.4349L7.93168 55.8601L8.91297 56.2854L9.89427 56.6452L10.9737 57.0704L13.0998 57.79L15.2914 58.5096L17.6465 59.1638L20.0016 59.818L22.4875 60.3087L25.0389 60.7993L27.5902 61.2245L30.2724 61.5843L32.9546 61.8787L35.7349 62.1731L38.5807 62.304L41.4264 62.4348H45.8095L48.7207 62.3694L51.5664 62.2385L54.3468 62.0096L57.1271 61.7152L59.8093 61.4208L62.4261 60.9956L64.9774 60.5703L67.5288 60.0797L69.9493 59.5236L72.3044 58.8694L74.5614 58.1498L76.7529 57.4302L78.8136 56.6452L79.7949 56.2854L80.7762 55.8601L81.6921 55.4349L82.6734 55.0097L83.5892 54.519C83.8836 53.963 84.1453 53.3742 84.3743 52.7527C84.6687 52.1966 84.8649 51.6079 85.0939 51.0518C85.3229 50.3976 85.5191 49.8415 85.6499 49.2201C85.8462 48.664 86.0098 48.0098 86.1406 47.3883C86.2714 46.7341 86.435 46.1126 86.5658 45.5566C86.6967 44.7061 86.7948 43.9211 86.8602 43.1361C86.9256 42.6454 86.9256 42.1548 86.991 41.6314C87.0565 41.0099 87.0565 40.3557 87.0565 39.7342C87.0565 39.0146 87.0565 38.3931 86.991 37.739C86.9256 37.0848 86.9256 36.4633 86.7621 35.8091C86.6967 35.1876 86.6312 34.5334 86.5331 33.8138C86.4023 33.2577 86.2387 32.6035 86.1079 31.982C85.977 31.3279 85.8135 30.7718 85.6172 30.1503C85.4864 29.5942 85.2574 28.94 85.0612 28.3186C84.8322 27.7625 84.6359 27.1737 84.3416 26.6177C84.2107 26.1924 83.9818 25.7672 83.8509 25.4074L84.0472 24.9167Z" fill="white"/>
<path id="Vector_7" fill-rule="evenodd" clip-rule="evenodd" d="M52.5808 33.7483C52.2864 34.6641 50.8144 35.3837 49.3098 33.0941C50.0948 32.6688 50.6509 32.538 51.0761 32.3744C51.6322 32.309 52.3518 32.309 52.5808 32.9305C52.7116 33.2576 52.6462 33.4866 52.5808 33.7483ZM46.9874 34.0426L47.5435 31.5567L48.4593 32.9632C48.3285 33.0614 47.6743 33.4866 46.9874 34.0426ZM48.8191 25.7671C49.3098 25.3419 50.0948 25.7671 50.1602 26.7484C50.2257 27.3699 50.0948 28.3184 49.8659 28.8745C49.506 29.8558 48.8846 30.5754 47.936 30.4446H47.7397L48.8191 25.7671ZM40.8053 38.4585C40.1511 38.0332 40.2492 36.6921 40.7398 36.2015C41.6557 35.2856 43.2258 36.2669 44.1417 36.6921C43.5856 37.3136 42.0809 39.3743 40.8053 38.4585ZM51.1742 31.8511C50.52 31.9165 49.8986 32.1455 49.0481 32.6361L48.1977 31.1315C50.3892 30.7717 51.4686 29.496 51.7303 28.1549C51.9266 26.8138 51.5995 25.669 50.52 25.2437C49.3098 24.8839 47.9687 25.5381 46.7584 25.7344C47.4126 25.8652 47.2491 26.5194 47.1182 27.239C47.0528 27.7297 46.0715 32.2763 45.5482 34.5987C44.0435 34.9585 43.7818 33.7483 42.0155 33.7483C40.609 33.7483 39.6931 34.4025 38.81 35.5146C38.7446 35.5146 38.2539 36.2342 38.2539 36.2342C38.3847 36.365 38.5483 36.5286 38.7446 36.6594C38.9735 36.365 39.1044 36.0379 39.3987 35.809C39.7586 35.2529 40.2492 34.8277 40.9688 34.5987C43.2258 33.8791 43.5856 35.7436 45.3519 35.3837V35.4492C45.1229 35.6454 44.8613 35.8744 44.6977 36.1034C43.2912 35.5473 41.852 34.5333 40.5109 35.4492C39.7258 35.9398 39.5296 36.8557 39.6604 37.7061C39.7913 38.3603 40.0857 38.9164 40.7398 39.2108C42.5062 39.865 43.7164 38.0659 44.7958 36.9538C45.6463 37.3136 46.5622 37.7388 47.4126 37.8697C47.9033 37.9351 49.1135 37.8697 49.4733 37.4445C49.6042 37.3136 49.5388 36.9538 49.1789 37.0192C48.0995 37.5753 46.8238 37.1501 45.3519 36.4632C46.922 34.8277 48.3939 33.6828 48.8191 33.4866C49.5388 34.6314 50.0294 34.9912 50.9453 35.2529C52.9406 35.6127 53.9873 33.2576 52.8424 32.2109C52.3518 31.7857 51.7957 31.7857 51.1742 31.8511Z" fill="black"/>
<path id="Vector_8" fill-rule="evenodd" clip-rule="evenodd" d="M44.8628 19.8795C39.6292 19.8795 35.377 24.1318 35.377 29.3653C35.377 31.7204 36.2274 33.8466 37.6339 35.5475L37.6993 35.6129C37.8956 35.4166 38.19 35.0568 38.3535 34.697C37.1433 33.2905 36.4237 31.426 36.4237 29.3653C36.4237 24.7533 40.2507 20.9916 44.8628 20.9916C49.5403 20.9916 53.3019 24.7533 53.3019 29.3653C53.3019 29.7906 53.2365 30.2158 53.2365 30.641C51.8954 30.3466 49.7692 30.7719 48.7552 31.5569L49.0496 31.9821C49.9655 31.2625 53.2365 30.641 54.0869 31.7859C54.0869 31.7204 54.1523 31.426 54.1523 31.426C54.2832 30.8046 54.3486 30.0849 54.3486 29.3653C54.3486 24.1318 50.0963 19.8795 44.8628 19.8795Z" fill="black"/>
<path id="Vector_9" fill-rule="evenodd" clip-rule="evenodd" d="M42.4421 27.7298C42.5729 27.7952 42.8019 27.9587 42.9327 28.0241C42.8019 28.0896 42.6383 28.2531 42.3112 28.3185L42.4421 27.7298ZM40.872 28.6456C38.7459 29.0709 39.0403 25.7345 41.2318 27.0756L40.872 28.6456ZM41.3627 26.3887C40.5122 25.8326 39.3674 25.8326 38.8113 26.9447C38.3207 28.0896 39.0403 29.4961 40.7412 29.3652L40.2505 31.7203C40.0216 32.7016 39.4655 33.7811 38.9094 33.7811C40.9701 33.7156 41.3954 32.5054 41.3954 32.5054C41.5262 32.1456 42.0169 29.5942 42.1804 29.1036C42.7365 28.9073 43.1617 28.6129 43.4561 28.2531C43.8159 28.4494 44.1757 28.5475 44.5355 28.5475L43.8159 31.8185C43.8159 31.8185 43.4561 32.9633 45.2224 33.5848C44.9934 33.2904 44.928 32.9306 44.9934 32.6035L47.2504 22.3981L45.1243 22.9541C45.7785 22.9541 45.6803 23.3139 45.4841 24.1644L44.6991 27.7952C44.5028 27.8606 44.2084 27.926 43.8486 27.7952C43.8486 27.7952 44.0776 27.5008 44.2084 27.141C44.143 27.141 43.9794 27.0756 43.914 27.0756L43.4234 27.5662C43.1944 27.4354 42.8673 27.2064 42.5729 27.0756L43.5542 22.3981L41.4935 22.9541C42.1477 22.9541 42.0496 23.3139 41.8533 24.1644L41.3627 26.3887Z" fill="black"/>
<g id="Group_2">
<path id="Vector_10" fill-rule="evenodd" clip-rule="evenodd" d="M52.3522 33.4867C52.0579 34.4679 50.5859 35.1221 49.1467 32.8325C49.8663 32.4072 50.4224 32.2764 50.8476 32.1128C51.4037 32.0474 52.1233 32.0474 52.3522 32.6689C52.5158 32.996 52.5158 33.2577 52.3522 33.4867ZM46.7589 33.781L47.3149 31.2951L48.2308 32.7016C48.1 32.767 47.4785 33.1923 46.7589 33.781ZM48.5906 25.4728C49.0813 25.0475 49.8663 25.4728 49.9317 26.4541C50.0626 27.1083 49.8663 28.0241 49.6373 28.5802C49.2775 29.5615 48.7215 30.2811 47.7075 30.1503H47.5112L48.5906 25.4728ZM40.6095 38.2296C39.988 37.7389 40.0534 36.3978 40.6095 35.8745C41.5253 34.9586 43.03 35.9399 43.9458 36.3651C43.3571 37.0193 41.8851 39.08 40.6095 38.2296ZM50.9457 31.5568C50.3897 31.6222 49.67 31.9166 48.8196 32.3418L47.9691 30.8372C50.2261 30.4774 51.2401 29.2017 51.5018 27.8606C51.698 26.5195 51.371 25.3746 50.2915 24.9494C49.0813 24.5896 47.7402 25.2438 46.5299 25.4401C47.2495 25.5709 47.0206 26.2251 46.8897 26.9447C46.8243 27.4354 45.843 31.982 45.3197 34.3044C43.9131 34.6642 43.5533 33.4539 41.787 33.4539C40.3805 33.4539 39.53 34.1081 38.5815 35.2203C38.516 35.2203 38.0254 35.9399 38.0254 35.9399C38.1562 36.0707 38.3852 36.2343 38.516 36.3651C38.7123 36.0707 38.9413 35.809 39.1375 35.5147C39.4973 34.9586 39.988 34.5988 40.7076 34.3044C42.9646 33.5848 43.3244 35.4492 45.0907 35.0894V35.1549C44.8617 35.3511 44.6655 35.6455 44.4692 35.809C43.0627 35.253 41.6235 34.239 40.2824 35.1549C39.5627 35.6455 39.3011 36.5614 39.4319 37.4118C39.5627 38.0333 39.8571 38.6221 40.5113 38.9165C42.2777 39.5707 43.4879 37.7716 44.6328 36.6595C45.4178 37.0193 46.3337 37.4445 47.1841 37.5754C47.6748 37.6408 48.885 37.5754 49.2448 37.1501C49.4411 37.0193 49.3102 36.6595 48.9504 36.7249C47.9037 37.281 46.5953 36.8558 45.1234 36.1689C46.6935 34.5988 48.1654 33.3885 48.5906 33.2577C49.3102 34.3044 49.8009 34.6642 50.7168 34.9586C52.7121 35.3184 53.7588 32.9633 52.6466 31.9166C52.156 31.4914 51.5672 31.4914 50.9457 31.5568Z" fill="#ED1C24"/>
<path id="Vector_11" fill-rule="evenodd" clip-rule="evenodd" d="M44.6323 19.585C39.3987 19.585 35.1465 23.8372 35.1465 29.0708C35.1465 31.4259 35.9969 33.552 37.4035 35.2529L37.4689 35.3183C37.7633 35.1221 37.9595 34.7623 38.0904 34.4679C36.9455 32.9959 36.2586 31.1315 36.2586 29.0708C36.2586 24.4587 40.0202 20.6971 44.6323 20.6971C49.3098 20.6971 53.0714 24.4587 53.0714 29.0708C53.0714 29.496 53.0714 29.9212 53.006 30.3465C51.6649 30.0521 49.5388 30.4773 48.5248 31.2623L48.8191 31.6876C49.8004 30.9679 53.006 30.3465 53.8564 31.4586C53.8564 31.3932 53.9219 31.0988 53.9219 31.0988C54.0527 30.4446 54.1181 29.7577 54.1181 29.0381C54.1508 23.8372 49.8659 19.585 44.6323 19.585Z" fill="#ED1C24"/>
<path id="Vector_12" fill-rule="evenodd" clip-rule="evenodd" d="M42.2134 27.4679C42.3443 27.5333 42.5732 27.6642 42.7041 27.7623C42.5732 27.8277 42.4097 27.9913 42.0826 28.0567L42.2134 27.4679ZM40.6761 28.3838C38.5499 28.809 38.8443 25.4726 41.0359 26.8137L40.6761 28.3838ZM41.1667 26.0941C40.3162 25.538 39.1714 25.6035 38.6153 26.6502C38.1901 27.795 38.8116 29.2015 40.5452 29.0707L40.0546 31.4258C39.8256 32.4071 39.2695 33.4865 38.7135 33.4865C40.7742 33.4211 41.1994 32.2108 41.1994 32.2108C41.3303 31.851 41.8536 29.2997 41.9844 28.809C42.5405 28.58 42.9657 28.3184 43.3255 28.024C43.6199 28.1548 43.9797 28.2529 44.405 28.2529L43.6854 31.5239C43.6854 31.5239 43.2601 32.6688 45.0264 33.2902C44.8302 32.9958 44.7321 32.6688 44.8302 32.3089L47.0872 22.1035L45.0264 22.6596C45.5825 22.6596 45.5171 23.0194 45.3208 23.8698L44.5358 27.5006C44.3068 27.566 44.0452 27.6315 43.6854 27.5006C43.6854 27.5006 43.8816 27.2062 44.0452 26.8791C43.9797 26.8791 43.8489 26.8137 43.7508 26.8137C43.6854 26.9446 43.3255 27.3044 43.3255 27.3044C43.0312 27.1735 42.7041 26.9446 42.4097 26.8137L43.391 22.1362L41.3302 22.6923C41.9844 22.6923 41.8863 23.0521 41.6901 23.9025L41.1667 26.0941Z" fill="#ED1C24"/>
</g>
<path id="Vector_13" fill-rule="evenodd" clip-rule="evenodd" d="M26.6425 51.9023C26.1519 52.4584 25.4977 53.0472 25.007 53.0472C24.2874 53.0472 24.222 52.1313 24.3855 51.2809C24.6799 49.351 26.1519 48.5005 27.3621 48.3697L26.6425 51.9023ZM28.6705 51.5753L29.6518 46.8978C29.7172 46.538 29.7826 46.2763 29.8481 45.9165C29.9135 45.1969 29.9135 44.3464 29.292 43.8558C28.9322 43.5614 28.1472 43.3651 27.6565 43.3651C25.3014 43.3651 24.0257 45.0006 23.8949 45.9819C23.8949 46.538 24.0257 47.2576 24.5164 47.2576C25.0724 47.2576 25.6612 46.3417 25.8575 45.6875C26.0864 44.9679 26.5771 43.9866 27.264 43.9866C28.2453 43.9866 27.8855 45.6221 27.7546 46.4071C27.3294 48.108 22.8482 47.6174 22.0959 51.6407C21.8015 53.407 22.4557 54.421 23.5678 54.421C24.4837 54.421 25.3341 53.9303 26.25 53.0799C26.25 53.8649 26.7406 54.421 27.3294 54.421C27.9509 54.421 28.6705 53.7668 29.0957 53.0799V52.7201C29.0303 52.7855 28.8014 52.8509 28.7359 52.8509C28.3434 52.8509 28.5397 52.1967 28.6705 51.5753Z" fill="black"/>
<path id="Vector_14" fill-rule="evenodd" clip-rule="evenodd" d="M11.9555 45.8837C11.2359 46.08 9.40413 45.8837 8.97891 44.6735C8.68452 44.1174 9.04433 43.3324 9.76394 42.9072C10.549 42.4165 11.8901 42.3511 12.6751 42.7763L11.9555 45.8837ZM23.4366 45.1641C23.502 45.5893 22.0955 46.4398 21.5067 45.9492C21.6376 45.3931 23.8618 35.3839 23.7637 35.4493L20.0021 35.94L19.8712 36.4306C20.8525 36.4306 21.2123 36.725 20.9507 38.0007C20.46 40.4212 19.8712 42.9072 19.3152 45.3604C17.6797 44.9352 16.6984 43.1688 14.9975 42.5146L16.5676 35.4166L12.7405 35.9727L12.6751 36.4633C13.6564 36.4633 14.0162 36.7577 13.7545 37.9353L12.9041 41.6969C11.9882 41.4025 11.0723 41.3371 10.0583 41.9259C8.78265 42.7109 8.35742 43.7576 8.35742 45.1314C8.58639 47.3884 10.549 47.8136 11.6284 47.8136L10.8434 51.3463C10.4836 52.8509 9.92749 53.6032 9.01162 53.6032L8.88078 54.0939H13.9181L13.9835 53.6032C12.7732 53.6032 12.7732 53.0472 13.133 51.3463L14.8339 43.5613C16.404 44.3464 17.5161 46.1781 19.1516 46.6033L18.0722 51.3463C17.7778 52.8509 17.2218 53.6032 16.3059 53.6032L16.175 54.0939H21.1469L21.2778 53.6032C20.2965 53.6032 20.0675 52.9817 20.3619 51.3463L21.2778 47.1594C22.3572 47.4538 24.3525 45.1641 23.4366 45.1641ZM74.3983 44.1174C75.1834 43.3978 76.5899 41.6315 76.8843 40.4866C77.0151 39.9306 76.8188 39.211 76.1646 38.982C74.5946 38.4259 73.8096 40.9119 75.5432 41.4025C75.674 41.4025 74.2675 44.0847 74.2675 44.0847C74.2675 44.0847 74.3329 44.1828 74.3983 44.1174ZM45.8428 43.038C46.3334 43.038 46.9222 42.3838 47.1184 41.4679C47.2493 40.7483 47.053 39.8979 46.3988 39.8979C45.7446 39.8979 45.254 40.7483 45.1231 41.4679C44.9923 42.1875 45.2867 42.9726 45.8428 43.038ZM77.8001 44.4118C79.0104 43.6922 80.2861 44.5426 80.5805 45.7529H81.1365C81.1365 44.1828 81.1365 44.1828 81.0057 43.9212C80.8749 43.7249 80.4496 43.4305 79.7954 43.3651C78.8141 43.0707 77.8001 43.2997 77.0151 43.9212C76.1646 44.5426 75.5432 45.6875 75.3142 46.8323C74.9544 48.9584 76.5899 49.5145 77.7347 49.8743C77.9637 49.9397 78.2254 49.9397 78.4543 50.1687C78.7487 50.4631 78.945 51.2481 78.7487 52.2948C78.4543 53.1453 77.8329 53.5051 77.2441 53.6359C76.0338 53.7014 75.3142 53.1453 74.889 51.8042L74.3983 51.8696C74.3329 53.9303 74.2675 53.7995 74.3329 53.8649C74.4638 53.9957 75.3142 54.2901 76.3936 54.421C77.0478 54.4864 77.7347 54.421 78.3235 54.1266C79.0431 53.7668 79.3048 53.3415 79.73 52.8509C80.1552 52.1967 80.5805 51.4444 80.5805 50.5939C80.5805 48.5986 79.1739 47.9117 78.1599 47.6828C77.8656 47.6173 77.8001 47.6173 77.6039 47.3884C77.2441 47.0286 76.8843 46.309 77.0478 45.5566C77.1132 45.0333 77.3749 44.6735 77.8001 44.4118ZM45.3521 51.6406L47.2493 42.9072C46.3334 43.6922 45.254 44.4772 43.9129 44.4772C44.5671 45.0333 44.7633 45.1968 44.3381 47.2575L43.3568 51.6406C42.997 53.1453 42.5064 53.6359 42.0157 53.6359L41.8849 54.1266H45.7119L45.8428 53.6359C45.4175 53.6032 44.9923 53.3415 45.3521 51.6406ZM54.2164 45.5239C54.5762 45.0333 54.5762 44.6081 54.4127 44.052C54.2819 43.5613 54.0529 43.0707 53.6277 43.0707C52.7772 43.0707 51.6324 44.7716 50.9455 45.6875L51.567 42.9072C50.4875 43.6922 49.5717 44.4772 48.2306 44.4772C48.852 45.0333 49.0156 45.1968 48.5904 47.2575L47.6745 51.6406C47.3147 53.1453 46.824 53.6359 46.3334 53.6359L46.2026 54.1266H50.0296L50.095 53.6359C49.7352 53.6359 49.31 53.3415 49.6698 51.6406L50.6511 47.2575C50.88 46.7669 51.6324 45.7529 51.9922 45.7529C52.2866 45.7529 52.7772 46.4071 53.2024 46.4071C53.4968 46.3744 53.9221 45.9492 54.2164 45.5239ZM32.9224 51.6406L35.7027 38.9493C34.5579 39.7343 33.7729 40.225 32.3664 40.225C33.1514 40.5848 33.2168 40.9446 32.7916 42.9072L30.8617 51.6406C30.5673 53.1453 30.0767 53.6359 29.586 53.6359L29.4552 54.1266H33.2822L33.3476 53.6359C32.9224 53.6032 32.5953 53.3415 32.9224 51.6406ZM57.0295 51.9023C56.6042 52.4584 55.9501 53.0472 55.4594 53.0472C54.8052 53.0472 54.7398 52.1313 54.8052 51.2808C55.0996 49.351 56.5715 48.5005 57.7818 48.3697L57.0295 51.9023ZM59.679 52.6874C59.5481 52.7528 59.3846 52.8182 59.3191 52.8182C58.8285 52.8182 59.0248 52.164 59.1883 51.5425L60.1696 46.865C60.235 46.5052 60.3004 46.2435 60.3986 45.8837C60.464 45.1641 60.3986 44.3137 59.8425 43.823C59.4173 43.5286 58.6977 43.3324 58.207 43.3324C55.8519 43.3324 54.5762 44.9679 54.4454 45.9492C54.4454 46.5052 54.5762 47.2248 55.0996 47.2248C55.6557 47.2248 56.3099 46.309 56.4407 45.6548C56.7351 44.9352 57.1603 43.9539 57.8472 43.9539C58.8285 43.9539 58.5014 45.5893 58.2724 46.3744C57.9126 48.0753 53.4641 47.5846 52.7445 51.6079C52.3847 53.3743 53.0389 54.3883 54.151 54.3883C55.0669 54.3883 55.9173 53.8976 56.8332 53.0472C56.8332 53.8322 57.3239 54.3883 57.8799 54.3883C58.5341 54.3883 59.1556 53.7341 59.6462 53.0472V52.6874H59.679ZM39.0391 51.6406C38.5485 52.3603 38.0578 53.0472 37.4036 53.0472C36.1934 53.0472 36.4224 50.0706 36.684 48.6641C37.2401 45.5566 38.5812 44.6081 39.1046 44.6081C39.5952 44.6081 40.0858 45.1641 40.3148 45.6875L39.0391 51.6406ZM40.8055 52.8509L41.0017 51.6406L43.8475 38.9493C42.6372 39.7343 41.8522 40.225 40.4456 40.225C41.2307 40.5848 41.3615 40.9446 40.9363 42.9072L40.5765 44.4772C40.1513 43.7576 39.5952 43.3324 38.8756 43.3324C37.5999 43.3324 35.2448 45.0333 34.4925 49.0893C34.0018 51.935 34.4925 54.421 36.4878 54.421C37.2728 54.421 38.0578 53.9957 38.6793 53.1453C38.3849 54.7154 40.6092 54.5518 41.5251 54.1266L41.6559 53.6359C40.6746 53.6032 40.6746 53.3415 40.8055 52.8509ZM71.5199 43.3324C70.604 43.3324 69.3283 44.4772 68.6741 45.1641C68.5433 44.0847 68.0199 43.3324 67.2676 43.3324C66.3517 43.3324 65.2069 44.4772 64.5854 45.1641L65.0761 42.9072C63.8658 43.6922 63.0808 44.4772 61.7397 44.4772C62.3939 45.0333 62.5247 45.1968 62.0995 47.2575L61.1836 51.6406C60.8238 53.1453 60.3332 53.6359 59.8425 53.6359L59.7117 54.1266H63.5387L63.6695 53.6359C63.2443 53.6359 62.8191 53.3415 63.1789 51.6406L64.3892 46.2435C64.8144 45.7529 65.4686 45.1968 66.0246 45.1968C66.7443 45.1968 66.5807 46.4725 66.4499 47.2575L65.4686 51.6406C65.1742 53.1453 64.6181 53.6359 64.1275 53.6359L64.0621 54.1266H67.8237L67.9545 53.6359C67.5293 53.6359 67.1041 53.3415 67.5293 51.6406L68.6741 46.2435C69.0994 45.8183 69.7208 45.1968 70.1788 45.1968C70.6694 45.1968 71.0292 46.0473 70.7348 47.2575L69.819 51.6406C69.4592 53.1453 68.9685 53.6359 68.4779 53.6359L68.347 54.1266H72.1741L72.2395 53.6359C71.8797 53.6359 71.389 53.3415 71.8143 51.6406L72.7956 47.2575C73.2208 44.9679 72.6974 43.3324 71.5199 43.3324Z" fill="black"/>
<g id="Group_3">
<path id="Vector_15" fill-rule="evenodd" clip-rule="evenodd" d="M56.8309 51.6406C56.4057 52.1966 55.7842 52.7854 55.2609 52.7854C54.6067 52.7854 54.5413 51.8695 54.6067 51.0191C54.9011 49.0892 56.373 48.2388 57.5833 48.1079L56.8309 51.6406ZM58.9571 51.2808L59.9384 46.6033C60.0038 46.2435 60.0692 45.9818 60.1346 45.622C60.2 44.9024 60.1346 44.0519 59.5786 43.5613C59.2188 43.2669 58.4337 43.0706 57.9431 43.0706C55.588 43.0706 54.3123 44.7061 54.2469 45.6874C54.1815 46.2435 54.3777 46.9631 54.8029 46.9631C55.359 46.9631 56.0132 46.0472 56.2095 45.393C56.4384 44.6734 56.8637 43.6921 57.5506 43.6921C58.5319 43.6921 58.2048 45.3276 57.9758 46.1126C57.616 47.8135 53.1675 47.3229 52.4478 51.3462C52.088 53.1125 52.7422 54.1265 53.8544 54.1265C54.7702 54.1265 55.6207 53.7013 56.5366 52.7854C56.602 53.5704 57.0272 54.1265 57.5833 54.1265C58.2375 54.1265 58.8589 53.5704 59.3496 52.7854V52.4256C59.2842 52.491 59.0552 52.5564 58.9898 52.5564C58.5973 52.5564 58.8262 51.9022 58.9571 51.2808ZM80.7745 43.6267C80.6436 43.3977 80.2838 43.136 79.5642 43.0706C78.5829 42.7762 77.6343 43.0052 76.7839 43.6267C75.9988 44.2809 75.2792 45.393 75.083 46.5379C74.7232 48.664 76.3586 49.2201 77.5035 49.5799C77.6997 49.6453 77.9941 49.6453 78.2231 49.8742C78.5175 50.1686 78.7137 50.9537 78.5175 52.0004C78.2885 52.8508 77.667 53.2106 77.111 53.3415C75.8353 53.4069 75.1157 52.8508 74.6904 51.5097L74.1998 51.5752C74.1344 53.6359 74.069 53.5704 74.1344 53.5704C74.2652 53.7013 75.1157 53.9957 76.1951 54.1265C76.8493 54.1919 77.5362 54.1265 78.125 53.8321C78.8446 53.5377 79.1063 53.0471 79.5315 52.5564C79.9567 51.9023 80.3819 51.1499 80.3819 50.2995C80.3819 48.3042 78.9754 47.6173 77.9614 47.3883C77.7325 47.3229 77.6016 47.3229 77.4054 47.0939C77.0456 46.7341 76.6857 46.0472 76.8493 45.2622C76.9147 44.837 77.2091 44.4117 77.6343 44.1173C78.8446 43.3977 80.1203 44.2482 80.4146 45.4584H80.9707C81.0034 43.8884 81.0034 43.8884 80.7745 43.6267ZM26.4109 51.6406C25.9203 52.1966 25.2661 52.7854 24.7754 52.7854C24.0558 52.7854 23.9904 51.8695 24.1212 51.0191C24.4156 49.0892 25.8876 48.2388 27.0978 48.1079L26.4109 51.6406ZM28.4716 51.2808L29.4529 46.6033C29.5183 46.2435 29.6492 45.9818 29.6492 45.622C29.78 44.9024 29.7146 44.0519 29.1585 43.5613C28.7333 43.2669 28.0137 43.0706 27.523 43.0706C25.1025 43.0706 23.8268 44.7061 23.7614 45.6874C23.696 46.2435 23.8923 46.9631 24.3175 46.9631C24.8736 46.9631 25.4623 46.0472 25.6586 45.393C25.8548 44.6734 26.4436 43.6921 27.0651 43.6921C28.0464 43.6921 27.6866 45.3276 27.5558 46.1126C27.1305 47.8135 22.6493 47.3229 21.9624 51.3462C21.6026 53.1125 22.2568 54.1265 23.3689 54.1265C24.2848 54.1265 25.1352 53.7013 26.0511 52.7854C26.0511 53.5704 26.5418 54.1265 27.1305 54.1265C27.752 54.1265 28.4716 53.5704 28.9623 52.7854V52.4256C28.8314 52.491 28.6679 52.5564 28.537 52.5564C28.1118 52.5564 28.3408 51.9022 28.4716 51.2808Z" fill="#ED1C24"/>
<path id="Vector_16" fill-rule="evenodd" clip-rule="evenodd" d="M11.8247 45.5893C11.0397 45.8182 9.20794 45.5893 8.78271 44.379C8.48833 43.8229 8.84813 43.0379 9.56775 42.6127C10.3528 42.122 11.6939 42.0566 12.5443 42.4818L11.8247 45.5893ZM23.2404 44.9024C23.3058 45.3276 21.8993 46.178 21.3105 45.6874C21.4414 45.1313 23.6656 35.1222 23.6656 35.1876L19.8386 35.6782L19.7732 36.1689C20.689 36.1689 21.1143 36.4633 20.8526 37.7389C20.2965 40.1595 19.7078 42.6454 19.2171 45.0986C17.5162 44.6734 16.5349 42.9071 14.834 42.2529L16.3387 35.1876L12.5116 35.6782L12.4462 36.1689C13.4275 36.1689 13.7873 36.4633 13.5256 37.6408L12.7406 41.4351C11.8247 41.1407 10.8107 41.0753 9.82942 41.6314C8.55375 42.4164 8.12852 43.4631 8.19394 44.8369C8.32478 47.0939 10.3201 47.5191 11.4649 47.5191L10.6145 51.0518C10.2547 52.5564 9.69859 53.3088 8.78271 53.3088L8.65188 53.7994H13.6892L13.7546 53.3088C12.5443 53.3088 12.5443 52.7527 12.9041 51.0518L14.605 43.2669C16.1751 44.0519 17.2872 45.8837 18.9227 46.3089L17.8433 51.0518C17.5489 52.5564 16.9929 53.3088 16.077 53.3088L15.9461 53.7994H20.918L21.0489 53.3088C20.0676 53.3088 19.8386 52.6873 20.1984 51.0518L21.1143 46.8649C22.161 47.1593 24.1563 44.9024 23.2404 44.9024ZM45.6138 42.7762C46.1045 42.7762 46.7587 42.122 46.8895 41.2062C47.0204 40.4865 46.8241 39.7015 46.1699 39.6361C45.5157 39.6361 45.0251 40.4865 44.8942 41.2062C44.7634 41.9258 45.0578 42.7108 45.6138 42.7762ZM32.7262 51.3462L35.5065 38.6548C34.4598 39.4398 33.5767 39.9305 32.2356 39.9305C32.9552 40.2903 33.086 40.6501 32.6608 42.6127L30.7309 51.3462C30.3711 52.8508 29.8805 53.3415 29.3898 53.3415L29.259 53.8321H33.086L33.1514 53.3415C32.7916 53.3415 32.3664 53.0471 32.7262 51.3462ZM74.2021 43.8229C74.9872 43.1033 76.3937 41.337 76.6881 40.1922C76.8189 39.6361 76.6227 38.9165 75.9685 38.6875C74.3984 38.1315 73.6134 40.6174 75.3143 41.108C75.4451 41.108 74.0386 43.7902 74.0386 43.7902C74.1367 43.8229 74.1367 43.8884 74.2021 43.8229ZM53.9875 45.2622C54.3473 44.7715 54.3473 44.3463 54.2165 43.7575C54.1511 43.2669 53.8567 42.7762 53.4969 42.7762C52.581 42.7762 51.4362 44.4771 50.8147 45.393L51.3708 42.6127C50.2913 43.3977 49.3755 44.1827 48.0344 44.1827C48.6558 44.7388 48.8848 44.9024 48.3942 46.9631L47.4783 51.3462C47.1185 52.8508 46.6279 53.3415 46.1372 53.3415L46.0064 53.8321H49.8334L49.8988 53.3415C49.539 53.3415 49.1138 53.0471 49.4736 51.3462L50.4549 46.9631C50.6511 46.4724 51.4362 45.4584 51.796 45.4584C52.0904 45.4584 52.581 46.1126 53.0062 46.1126C53.3661 46.1126 53.7259 45.6874 53.9875 45.2622ZM71.3564 43.0379C70.3751 43.0379 69.1648 44.1827 68.4452 44.8697C68.3144 43.7902 67.791 43.0379 67.0387 43.0379C66.1228 43.0379 64.978 44.1827 64.3565 44.8697L64.8472 42.6127C63.7023 43.4631 62.8519 44.1827 61.5108 44.1827C62.165 44.7388 62.3612 44.9024 61.8706 46.9631L60.9547 51.3462C60.5949 52.8508 60.1043 53.3415 59.6136 53.3415L59.5482 53.8321H63.3098L63.4406 53.3415C63.0154 53.3415 62.5902 53.0471 63.0154 51.3462L64.1603 45.9491C64.5855 45.4584 65.3051 44.8697 65.7957 44.8697C66.5154 44.8697 66.3518 46.1453 66.221 46.9304L65.2397 51.3135C64.9453 52.8181 64.3892 53.3088 63.8986 53.3088L63.8332 53.7994H67.6602L67.7256 53.3088C67.3004 53.3088 66.8752 53.0144 67.3004 51.3135L68.4452 45.9164C68.8705 45.4911 69.5247 44.8369 69.9499 44.8369C70.4405 44.8369 70.8003 45.6874 70.6041 46.8977L69.6228 51.2808C69.263 52.7854 68.7723 53.276 68.2817 53.276L68.2163 53.7667H71.9779L72.1087 53.276C71.6835 53.276 71.1928 52.9817 71.6181 51.2808L72.5994 46.8977C72.9919 44.6734 72.5667 43.0379 71.3564 43.0379ZM45.1232 51.3462L47.0531 42.6127C46.1372 43.4631 45.0578 44.1827 43.7167 44.1827C44.3709 44.7388 44.5671 44.9024 44.1419 46.9631L43.1606 51.3462C42.8662 52.8508 42.3102 53.3415 41.8195 53.3415L41.6887 53.8321H45.5157L45.6466 53.3415C45.1886 53.3415 44.7634 53.0471 45.1232 51.3462ZM38.8102 51.3462C38.3196 52.0658 37.8289 52.7527 37.1747 52.7527C35.9645 52.7527 36.2589 49.7761 36.4551 48.435C37.0112 45.2295 38.385 44.3136 38.8756 44.3136C39.3663 44.3136 39.8569 44.8697 40.1513 45.393L38.8102 51.3462ZM40.6093 52.5564L40.8055 51.3462L43.6513 38.6548C42.441 39.4398 41.656 39.9305 40.3149 39.9305C41.0345 40.2903 41.1653 40.6501 40.7401 42.6127L40.3803 44.1827C40.0205 43.4631 39.399 43.0379 38.6794 43.0379C37.4037 43.0379 35.0486 44.7388 34.3617 48.7948C33.8056 51.6406 34.3617 54.1265 36.2916 54.1265C37.0766 54.1265 37.8616 53.7013 38.5485 52.8508C38.1887 54.4209 40.3803 54.2573 41.3289 53.8321L41.4597 53.3415C40.4457 53.3415 40.4457 53.0471 40.6093 52.5564Z" fill="#ED1C24"/>
</g>
<path id="Vector_17" fill-rule="evenodd" clip-rule="evenodd" d="M63.5724 57.6592H63.0163V56.8742H64.2266C64.3574 56.8742 64.4555 56.8742 64.521 57.005C64.5864 57.005 64.5864 57.1358 64.5864 57.234C64.5864 57.2994 64.5864 57.4629 64.521 57.4629C64.521 57.5284 64.3901 57.5938 64.292 57.5938C64.1939 57.5938 63.9322 57.6592 63.5724 57.6592ZM65.2733 58.8695C65.077 58.5751 64.9135 58.4442 64.7826 58.3788C64.7172 58.248 64.5537 58.1826 64.3574 58.0844C64.7172 58.019 64.9789 57.9536 65.1424 57.79C65.2733 57.5938 65.4368 57.4302 65.4368 57.1686C65.4368 57.0377 65.3714 56.8742 65.2079 56.7433C65.1424 56.6125 65.0116 56.4489 64.7826 56.3835C64.5537 56.3181 64.292 56.3181 63.8668 56.3181H62.2313V59.4255H63.0163V58.1498H63.5724C63.6378 58.2153 63.7032 58.2153 63.7686 58.2807C63.834 58.3461 63.9976 58.5097 64.1939 58.7713L64.7499 59.4255H65.6658L65.2733 58.8695ZM56.7687 58.0844V58.5751C56.7033 58.6405 56.6379 58.804 56.5725 58.8695C56.4417 58.9349 56.2781 58.9349 56.0818 58.9349C55.8529 58.9349 55.6566 58.9349 55.5258 58.8695C55.3949 58.804 55.3295 58.6732 55.3295 58.5097C55.3295 58.4442 55.2641 58.2807 55.2641 58.019V56.3181H54.4791V58.019C54.4791 58.3788 54.5445 58.5751 54.5445 58.804C54.6099 58.8695 54.6753 59.033 54.7735 59.1638C54.9043 59.2293 55.0678 59.2947 55.2641 59.3928C55.4931 59.4582 55.7547 59.5237 56.1146 59.5237C56.4089 59.5237 56.6706 59.4582 56.8996 59.3928C57.0304 59.3274 57.194 59.262 57.3248 59.1638C57.4557 59.033 57.5538 58.8695 57.5538 58.804C57.6192 58.5751 57.6192 58.3788 57.6192 57.9536V56.3181H56.8342V58.0844H56.7687ZM25.6945 58.3788L24.1572 56.3181H23.3721V59.4255H24.1572V57.3648L25.6291 59.4255H26.4796V56.3181H25.6945V58.3788ZM32.171 58.2153L32.6617 57.005L33.1523 58.2153H32.171ZM32.2365 56.3181L30.7318 59.4255H31.5823L31.8767 58.7059H33.4467L33.8065 59.4255H34.657L33.0869 56.3181H32.2365ZM40.741 58.2807H41.6569V58.7059C41.526 58.7713 41.3625 58.7713 41.1662 58.8367C41.0354 58.9022 40.8718 58.9022 40.741 58.9022C40.3812 58.9022 40.0868 58.8367 39.8905 58.6078C39.6943 58.4769 39.5961 58.1826 39.5961 57.7573C39.5961 57.4629 39.6616 57.2013 39.8905 57.0377C40.1195 56.8087 40.3812 56.7433 40.741 56.7433C40.9372 56.7433 41.1008 56.8087 41.2316 56.8742C41.4279 56.9396 41.526 57.1031 41.5914 57.234L42.3765 57.1031C42.3111 56.8087 42.0821 56.6125 41.8204 56.4489C41.5914 56.22 41.1662 56.22 40.741 56.22C40.3158 56.22 40.0214 56.22 39.7597 56.3508C39.4653 56.4816 39.269 56.6452 39.0401 56.9069C38.9092 57.1358 38.8111 57.3975 38.8111 57.7573C38.8111 58.0517 38.8111 58.3134 39.0401 58.6078C39.1709 58.804 39.3999 59.033 39.6616 59.1638C40.0214 59.2947 40.2831 59.3928 40.741 59.3928C41.1008 59.3928 41.3952 59.3274 41.6569 59.262C42.0167 59.1311 42.2129 59.033 42.4419 58.9022V57.6265H40.741V58.2807ZM49.0165 57.5284C49.0165 57.5938 48.8857 57.6592 48.7876 57.6592C48.6567 57.7246 48.4278 57.7246 48.1334 57.7246H47.7409V56.8742H48.6567C48.7876 56.8742 48.9511 56.9396 49.0165 57.005C49.082 57.0704 49.1474 57.1358 49.1474 57.2994C49.1801 57.3648 49.1147 57.4302 49.0165 57.5284ZM49.1801 56.3835C49.0493 56.3181 48.7549 56.3181 48.2642 56.3181H46.9885V59.4255H47.7736V58.2807H48.2642C48.624 58.2807 48.9184 58.2153 49.1147 58.2153C49.2455 58.2153 49.4091 58.1498 49.4745 58.0844C49.6053 58.019 49.7689 57.8555 49.8343 57.7246C49.8997 57.6592 49.9651 57.4302 49.9651 57.2994C49.9651 57.005 49.8997 56.8087 49.7362 56.6779C49.6053 56.5144 49.3764 56.4489 49.1801 56.3835ZM40.1849 70.4814L37.0775 70.2851V70.3506C37.1429 70.3506 37.2083 70.3506 37.2083 70.4814L37.0121 73.8832C36.9467 74.0141 36.9467 74.1122 36.7831 74.0141V74.0795L37.7644 74.1449V74.0795C37.699 74.0795 37.6336 74.0795 37.6336 73.9486L37.7644 72.5421L39.2691 72.6075C39.3999 72.6075 39.3999 72.673 39.3999 72.7384H39.4653L39.5307 71.8879H39.4653C39.4653 71.9533 39.3999 72.0188 39.2691 72.0188L37.7644 71.8879L37.8298 70.9066L40.1849 71.1356C40.3158 71.1356 40.3158 71.1356 40.3158 71.2664H40.3812L40.4466 70.416L40.3812 70.3506C40.3812 70.416 40.3158 70.4814 40.1849 70.4814ZM33.2832 73.2617C32.4981 73.1963 31.9421 72.6075 32.0075 71.7571C32.0729 70.8412 32.7925 70.416 33.5776 70.5468C34.2972 70.6122 34.8532 71.1029 34.7878 72.0188C34.7224 72.9673 34.0028 73.3272 33.2832 73.2617ZM33.5776 69.9253C32.4327 69.7945 31.4514 70.3506 31.3206 71.6917C31.1898 72.9673 32.0402 73.7524 33.2505 73.8832C34.3953 74.0141 35.3766 73.3926 35.5074 72.1169C35.6383 70.8412 34.7878 70.0562 33.5776 69.9253ZM22.6525 68.4207L19.5451 67.7665C19.4143 67.7665 19.4143 67.7011 19.4143 67.6357L19.3488 67.5702L19.218 68.4861C19.2834 68.4207 19.3488 68.3553 19.447 68.4207L20.6572 68.6169L20.1012 71.5935C20.0357 71.7244 20.0357 71.7244 19.9049 71.7244V71.7898L20.8862 72.0188V71.9533C20.7554 71.8879 20.7553 71.8879 20.8208 71.7571L21.3768 68.8459L22.5871 69.0422C22.6525 69.0422 22.7179 69.1076 22.7179 69.173L22.7834 69.2384L22.9142 68.388L22.8488 68.3226C22.7834 68.4207 22.7179 68.5188 22.6525 68.4207ZM17.5498 68.5188L18.1059 67.7992H17.9096C17.8442 67.7992 17.3535 67.2431 16.5031 67.0142C15.5872 66.7198 14.5732 66.8833 14.377 67.7992C14.0171 69.5001 17.1573 69.0095 16.9283 69.9908C16.8629 70.2851 16.4377 70.416 15.5872 70.187C14.9657 70.0562 14.377 69.631 14.4424 69.3366V69.2711L14.377 69.2057L13.8209 69.9908H13.9517C14.0171 70.0562 14.3115 70.4814 15.4564 70.8412C16.7321 71.1356 17.5171 70.7758 17.6479 70.1216C18.0732 68.2899 14.9657 68.7151 15.0966 67.8646C15.2274 67.5702 15.5872 67.4394 16.3722 67.6357C17.1573 67.7665 17.5171 68.2899 17.5171 68.3553V68.4207L17.5498 68.5188ZM27.2646 69.2057L24.059 68.6497V68.7151C24.1245 68.7151 24.1245 68.7805 24.1245 68.9113L23.5684 72.2477C23.5684 72.3786 23.503 72.3786 23.4375 72.3786V72.444L26.7085 73.0655C26.8394 73.0655 26.8394 73.0655 26.8394 73.1963H26.9048L27.0356 72.3459L26.9702 72.2804C26.9702 72.4113 26.9048 72.4113 26.7739 72.4113L24.3534 71.9206L24.4843 70.9393L26.0543 71.2337C26.1852 71.2337 26.2833 71.2991 26.1852 71.3646H26.316L26.4468 70.5141H26.3814C26.316 70.5795 26.316 70.5795 26.1852 70.5795L24.6151 70.2851L24.7459 69.3693L27.1665 69.7945C27.2319 69.8599 27.2973 69.8599 27.2973 69.9908H27.3627L27.4936 69.0749H27.4281C27.4936 69.2057 27.3954 69.2711 27.2646 69.2057ZM8.68547 64.6918C8.68547 64.7572 8.62005 64.8226 8.4565 64.7572L5.47991 63.6124C5.41449 63.6124 5.34907 63.5469 5.41449 63.4815L5.34908 63.4161L5.05469 64.2666H5.12011C5.12011 64.2011 5.18553 64.2011 5.31636 64.2011L6.46121 64.6918L5.47991 67.5375C5.41449 67.603 5.41449 67.6684 5.28366 67.603V67.6684L6.19953 68.0282L6.26495 67.9628C6.13411 67.8973 6.13411 67.8973 6.19953 67.7338L7.1154 64.888L8.32566 65.3133C8.39108 65.3787 8.4565 65.4441 8.39108 65.5095H8.48921L8.7836 64.7245L8.68547 64.6918ZM10.321 67.7338L11.3022 66.5235L11.5312 68.0936L10.321 67.7338ZM11.9564 66.1637V66.0329C11.9564 66.0329 12.0219 65.9675 12.0873 65.9675V65.8693L11.0079 65.575C11.0733 65.6404 11.1387 65.7058 11.0733 65.7058C11.0733 65.7712 11.0079 65.8366 11.0079 65.8366L8.75089 68.5188C8.68547 68.6497 8.62005 68.7478 8.52192 68.6497V68.7151L9.37237 69.0095V68.944C9.37237 68.944 9.30695 68.944 9.30695 68.8786C9.37237 68.8132 9.43779 68.7478 9.92844 68.159L11.5639 68.6497C11.6948 69.5001 11.6948 69.5655 11.6948 69.631C11.6948 69.631 11.6293 69.6964 11.5639 69.631V69.6964L12.5452 70.0562V69.9908C12.4798 69.9253 12.4798 69.9253 12.4144 69.6964L11.9564 66.1637ZM73.4834 70.4814L72.6984 67.2104C72.6984 67.0796 72.6984 66.9815 72.8292 66.9815V66.916L71.7498 67.2104C71.8806 67.2104 71.9461 67.2104 71.9461 67.3413L72.7311 70.6777C72.7311 70.7431 72.7311 70.8085 72.6003 70.8085L72.6657 70.8739L73.647 70.645V70.5141C73.5488 70.645 73.4834 70.5468 73.4834 70.4814ZM70.4414 67.374C70.4414 67.4394 70.4414 67.5048 70.3106 67.5048L67.2031 68.2244C67.1377 68.2244 67.0723 68.2244 67.0723 68.0936L67.0069 68.159L67.1377 69.0095H67.2031C67.2031 68.8786 67.2686 68.8786 67.334 68.7805L68.5442 68.5515L69.1657 71.4627C69.1657 71.5935 69.1657 71.5935 69.0349 71.659V71.7244L70.0162 71.4954V71.43C69.8853 71.43 69.8853 71.3646 69.8853 71.2991L69.2639 68.3226L70.4741 68.0936C70.5395 68.0282 70.605 68.0936 70.7031 68.159H70.7685L70.5723 67.3086H70.4414V67.374ZM77.1796 69.1403C76.46 69.3693 75.675 69.0749 75.4787 68.2244C75.2824 67.374 75.7731 66.7198 76.46 66.5235C77.1796 66.2946 77.8665 66.5235 78.1609 67.4394C78.3899 68.2899 77.8992 68.944 77.1796 69.1403ZM76.3292 65.8693C75.1843 66.2291 74.3993 67.2104 74.7591 68.4207C75.1189 69.631 76.1656 70.0562 77.3104 69.6964C78.4553 69.3366 79.1422 68.4207 78.8805 67.2104C78.5207 65.9675 77.3759 65.5422 76.3292 65.8693ZM84.2776 67.0796L83.2309 63.874C83.2309 63.7432 83.2309 63.7432 83.2963 63.6778V63.6124L82.4132 63.9068V63.9722C82.544 63.9722 82.544 63.9722 82.6094 64.103L83.329 66.4581L80.4833 64.8226C80.4833 64.8226 80.4179 64.8226 80.4179 64.7572C80.4179 64.7572 80.4179 64.6918 80.5487 64.6918L80.4833 64.6264L79.502 64.9862V65.0516C79.6328 64.9862 79.6328 65.0516 79.6983 65.1824L80.6796 68.388C80.745 68.5188 80.745 68.5188 80.6796 68.5842V68.6497L81.53 68.2899C81.3992 68.2899 81.3992 68.2899 81.301 68.159L80.516 65.6731L83.4272 67.374C83.4926 67.374 83.558 67.4394 83.558 67.4394C83.558 67.5048 83.558 67.5048 83.4926 67.5048V67.5702L84.4085 67.2759V67.2104C84.343 67.2431 84.343 67.2431 84.2776 67.0796ZM61.8715 71.9206L60.3668 72.215L60.007 69.5982L61.2827 69.3693C61.9042 69.2384 62.4929 69.4347 62.6238 70.416C62.7873 71.3973 62.4929 71.8225 61.8715 71.9206ZM61.2827 68.7151L59.0911 69.0749V69.1403C59.1566 69.1403 59.222 69.2057 59.222 69.2711L59.7126 72.673C59.7126 72.7384 59.7126 72.8038 59.6472 72.8038V72.8692L61.9042 72.5094C62.9836 72.3132 63.5397 71.5935 63.3107 70.3179C63.2126 69.2057 62.5584 68.5188 61.2827 68.7151ZM55.3295 71.9206L55.7547 70.416L56.5398 71.6917L55.3295 71.9206ZM58.1098 72.8365L56.18 69.7945C56.18 69.7291 56.18 69.7291 56.1146 69.6637C56.1146 69.6637 56.18 69.5982 56.2454 69.5982V69.5328L55.1006 69.6637L55.166 69.7291C55.166 69.7291 55.2314 69.7291 55.2314 69.7945V69.9253L54.2501 73.3926C54.2501 73.6215 54.1847 73.6215 54.1193 73.6215V73.687L55.0351 73.5561C54.9697 73.5561 54.9043 73.4907 54.9043 73.4253C54.9043 73.4253 54.9697 73.2944 55.1987 72.5748L56.8996 72.2804C57.3902 73.0001 57.3902 73.0655 57.3902 73.1309L57.3248 73.1963V73.2617L58.3061 73.1309V73.0655C58.2407 73.0328 58.1753 72.9673 58.1098 72.8365ZM49.867 71.7571L49.8016 70.7758L51.3062 70.645C51.666 70.645 52.0258 70.7104 52.0258 71.0702C52.0258 71.43 51.7315 71.5608 51.3716 71.6262L49.867 71.7571ZM52.8436 73.5234L51.7642 72.2477C52.4184 72.0188 52.7455 71.6262 52.68 70.9721C52.6146 70.416 52.124 69.9253 51.2735 70.0562L48.853 70.2524V70.3179C48.9184 70.3179 48.9838 70.3179 48.9838 70.4487L49.2782 73.8505C49.2782 73.9159 49.2782 73.9813 49.1474 73.9813V74.0468L50.1287 73.9813V73.9159C49.9978 73.9159 49.9978 73.9159 49.9978 73.7851L49.867 72.3786L50.9464 72.3131L52.0258 73.5888C52.0258 73.6542 52.0913 73.6542 52.0913 73.7197L52.0258 73.7851V73.8505L53.1053 73.7197V73.6542C53.0071 73.687 52.9417 73.687 52.8436 73.5234ZM47.5446 70.2197C47.5446 70.2851 47.5446 70.3506 47.4138 70.3506L44.2082 70.4814C44.0774 70.5468 44.0774 70.4814 44.0774 70.416H44.012V71.2664H44.0774C44.0774 71.201 44.1428 71.1356 44.2736 71.1356L45.4839 71.0702L45.6147 74.1122C45.6147 74.1776 45.6147 74.243 45.4839 74.243V74.3084H46.5633V74.1776C46.4325 74.1776 46.3671 74.1776 46.3671 74.0468L46.2362 71.0702L47.4465 71.0048C47.5773 71.0048 47.6427 71.0048 47.6427 71.1356H47.7082L47.6427 70.2197H47.5446ZM66.1237 72.0515L65.6331 68.7151C65.5677 68.5842 65.6331 68.4861 65.7639 68.4861V68.4207L64.7172 68.5515V68.6169C64.848 68.6169 64.9462 68.6824 64.9462 68.7478L65.4368 72.1496C65.4368 72.215 65.4368 72.2804 65.306 72.2804V72.4113L66.3527 72.215V72.1496C66.1891 72.1823 66.1237 72.1823 66.1237 72.0515Z" fill="black"/>
</g>
</g>
</g>
<defs>
<clipPath id="clip0_371_71">
<rect width="90" height="90" fill="white"/>
</clipPath>
</defs>
</svg>
