<svg width="90" height="90" viewBox="0 0 90 90" fill="none" xmlns="http://www.w3.org/2000/svg">
<g id="Frame 1707479693">
<g id="Group 1707480157">
<g id="Group">
<path id="Vector" d="M50.6993 66.1327C50.2966 66.1327 49.894 66.1327 49.4913 66.1327C49.0337 66.0961 48.5762 66.2608 48.1003 66.2425C47.3133 66.2059 46.5446 66.2791 45.7576 66.2974C44.7509 66.3157 43.726 66.3706 42.7194 66.4255C41.4748 66.4987 40.2302 66.5719 38.9856 66.6817C36.6429 66.8648 34.3002 67.0661 31.9757 67.4322C29.1022 67.8714 26.2653 68.4937 23.4284 69.1343C23.1722 69.1892 22.9159 69.2807 22.6597 69.2624C22.312 69.2441 22.0923 69.0611 22.0008 68.7316C21.891 68.3107 21.9825 67.8897 22.0191 67.4871C22.1838 65.547 22.495 63.6252 22.8976 61.7217C23.4284 59.2509 24.0141 56.8166 24.7462 54.4007C24.7462 54.3641 24.7645 54.3458 24.7645 54.3092C24.8011 54.1262 24.7645 54.0896 24.5998 54.1262C24.3069 54.1994 24.0507 54.3641 23.9043 54.6569C23.7396 54.9681 23.5931 55.2975 23.4467 55.627C22.8793 56.9997 22.3852 58.3907 21.891 59.7817C21.3785 61.191 20.8843 62.6003 20.4085 64.0279C20.0241 65.1809 19.7313 66.3706 19.4201 67.542C19.2737 68.091 19.109 68.6584 18.9809 69.2258C18.926 69.482 18.926 69.482 19.1822 69.5186C20.5915 69.7017 21.9825 69.8847 23.3918 70.0677C25.1489 70.2874 26.9242 70.5253 28.6813 70.7449C30.9325 71.0378 33.1654 71.3306 35.4166 71.6051C36.8076 71.7882 38.1803 71.9712 39.5713 72.1359C39.6811 72.1542 39.8092 72.1359 39.9191 72.2457C39.8824 72.3189 39.8275 72.3006 39.7726 72.3006C38.1071 72.3006 36.4416 72.3006 34.7577 72.3006C34.7394 72.3006 34.7211 72.3006 34.6845 72.3006C34.172 72.3006 33.6413 72.2823 33.1288 72.3006C32.2137 72.3372 31.3168 72.1542 30.4017 72.0444C29.5598 71.9529 28.7179 71.8248 27.8942 71.715C27.0523 71.6051 26.2104 71.4953 25.3868 71.3855C24.5632 71.2757 23.7213 71.1659 22.8976 71.0561C22.074 70.9462 21.2504 70.8364 20.4268 70.7266C19.5849 70.6168 18.7429 70.507 17.8827 70.3972C17.0591 70.2874 16.2172 70.1775 15.3936 70.0677C14.57 69.9579 13.7463 69.8481 12.9227 69.7383C12.4469 69.6834 11.9527 69.6285 11.4768 69.5553C11.2023 69.5186 11.1291 69.3905 11.1291 69.0794C11.1291 66.2974 11.1291 63.5337 11.1108 60.7517C11.0559 45.103 11.0192 29.4543 10.9643 13.8055C10.9643 11.4262 10.946 9.02855 10.946 6.64922C10.946 6.57601 10.946 6.48449 10.946 6.41128C10.9094 5.75239 10.946 5.07519 10.9277 4.4163C10.9277 4.28818 10.9277 4.16006 10.9277 4.05025C10.9277 3.42796 10.9277 2.78737 10.9277 2.16508C10.9277 2.01866 10.946 1.89054 11.1291 1.83563C11.2938 1.83563 11.4585 1.83563 11.6049 1.83563C12.3187 1.89054 13.0325 1.98205 13.7646 2.07357C16.0708 2.38471 18.3769 2.67755 20.683 2.9887C23.6663 3.37305 26.6314 3.75741 29.6147 4.16006C30.1821 4.23327 30.6762 4.14176 31.207 3.92213C33.4765 2.97039 35.8376 2.3115 38.2901 2.03696C40.2851 1.79903 42.2801 1.92715 44.2385 2.40301C46.7093 2.9887 49.0154 3.95873 51.1385 5.34973C51.9805 5.89881 52.7858 6.5028 53.5179 7.17999C53.646 7.30811 53.8107 7.34471 53.9754 7.36302C56.5378 7.69246 59.1185 8.04021 61.6808 8.36966C64.4811 8.73571 67.2814 9.10176 70.0817 9.46782C72.6624 9.79726 75.2248 10.145 77.8054 10.4745C78.4094 10.5477 79.0317 10.6392 79.6357 10.7124C79.8187 10.7307 79.9651 10.7856 80.0017 10.9869C80.0017 11.0967 80.0017 11.1883 80.0017 11.2981C79.8187 11.8105 79.7089 12.3413 79.5625 12.8538C78.2996 17.6308 77.055 22.4078 75.7921 27.1847C74.5476 31.9617 73.2847 36.7204 72.0401 41.4974C70.7955 46.2194 69.5693 50.9232 68.3247 55.6453C67.0801 60.3673 65.8538 65.0711 64.6093 69.7932C64.0785 71.8614 63.5294 73.9113 62.9803 75.9612C62.9071 76.2174 62.779 76.3089 62.5228 76.2906C62.0835 76.2357 61.6259 76.1625 61.1684 76.1076C61.2599 75.7598 61.3514 75.4121 61.4429 75.0643C61.4978 75.0094 61.571 75.0094 61.6442 75.0094C61.9554 75.0277 62.0286 74.9728 62.1018 74.68C62.2482 74.0943 62.4129 73.5269 62.5594 72.9412C62.9437 71.4587 63.3464 69.9762 63.7307 68.512C63.7673 68.3656 63.7673 68.2192 63.7307 68.0727C63.0535 65.5287 62.4129 62.9846 61.7907 60.4406C61.2965 58.3907 60.784 56.3225 60.2898 54.2726C60.0885 53.4307 59.8689 52.607 59.6493 51.7651C59.5577 51.3625 59.3381 51.0879 58.9904 50.8866C58.7707 50.7585 58.5328 50.6487 58.2766 50.5938C57.9471 50.5205 57.8373 50.6304 57.8739 50.9598C57.9654 51.5272 58.0569 52.0946 58.1484 52.6436C58.423 54.236 58.6792 55.81 58.8622 57.4206C58.9904 58.5188 59.1002 59.6169 59.1917 60.7151C59.2832 61.6485 59.3381 62.582 59.393 63.5154C59.4296 63.9547 59.4113 64.4122 59.4479 64.8515C59.4845 65.2541 59.576 65.4006 59.9787 65.4738C60.3997 65.547 60.8023 65.6019 61.205 65.73C61.3148 65.7666 61.4246 65.7849 61.5161 65.8398C61.6259 65.8947 61.7174 65.9496 61.6991 66.0778C61.6808 66.2059 61.5893 66.2608 61.4795 66.2791C61.2599 66.334 61.0219 66.334 60.8023 66.2974C60.4912 66.2608 60.18 66.2608 59.8689 66.2608C59.7774 66.2608 59.6859 66.2608 59.5943 66.2059C58.9355 66.2059 58.2583 66.2059 57.5994 66.2059C57.5811 66.2242 57.5445 66.2425 57.5262 66.2608C56.7391 66.2791 55.9704 66.334 55.1834 66.2059C55.1468 66.2059 55.1285 66.1876 55.0919 66.1876C54.5062 66.1876 53.9205 66.151 53.3349 66.2059C52.5478 66.2791 51.7791 66.2242 50.9921 66.2425C50.8823 66.1876 50.7908 66.1876 50.6993 66.1327Z" fill="#242220"/>
<path id="Vector_2" d="M10.8725 4.01354C10.8725 4.80056 10.8725 5.58757 10.8725 6.39288H10.8542H10.8359C10.8359 5.60587 10.8359 4.81886 10.8359 4.01354C10.8542 3.99524 10.8725 3.99524 10.8725 4.01354Z" fill="#EDEDEC"/>
<path id="Vector_3" d="M10.8725 4.01356H10.8542H10.8359C10.8359 3.37296 10.8359 2.73237 10.8359 2.07348C10.8542 2.05518 10.8542 2.05518 10.8725 2.07348C10.8725 2.71407 10.8725 3.37296 10.8725 4.01356Z" fill="#D5D5D4"/>
<path id="Vector_4" d="M10.8722 2.07349H10.8356C10.8173 1.90877 10.799 1.74405 11.0553 1.81726C10.982 1.89047 10.8905 1.96368 10.8722 2.07349Z" fill="#F6F6F5"/>
<path id="Vector_5" d="M34.665 72.2823C35.031 72.2823 35.3971 72.264 35.7631 72.264C37.0443 72.264 38.3255 72.264 39.6067 72.264C39.6799 72.264 39.7531 72.264 39.8263 72.264C39.8263 72.2456 39.8263 72.2456 39.8263 72.2273C38.9844 72.1175 38.1242 72.0077 37.2823 71.8979C36.5501 71.8064 35.818 71.6966 35.1042 71.6051C34.3721 71.5135 33.6217 71.422 32.8896 71.3305C32.0477 71.2207 31.2058 71.1109 30.3639 71.0011C29.6135 70.9096 28.8814 70.818 28.131 70.7265C27.5087 70.6533 26.9047 70.5618 26.2824 70.4886C25.6601 70.4154 25.0195 70.3239 24.3972 70.2507C23.6834 70.1592 22.9513 70.0676 22.2375 69.9761C21.6152 69.9029 20.9929 69.8114 20.3706 69.7382C19.8948 69.6833 19.4006 69.6101 18.9247 69.5552C18.7783 69.5369 18.8332 69.4637 18.8515 69.3904C19.0712 68.5485 19.2908 67.7066 19.5104 66.8647C19.8582 65.5469 20.2425 64.2291 20.6818 62.9479C21.542 60.4954 22.4022 58.0245 23.3723 55.6086C23.537 55.1876 23.7017 54.7667 23.9946 54.4006C24.1776 54.1627 24.4704 54.0895 24.745 54.0346C24.9097 53.998 24.8731 54.1627 24.8365 54.2725C24.745 54.6019 24.6352 54.9131 24.5436 55.2425C23.9397 57.2558 23.4638 59.3057 23.0062 61.3556C22.7134 62.6734 22.4938 64.0095 22.2924 65.3456C22.1643 66.2973 22.0728 67.249 21.9996 68.2008C21.9813 68.4021 21.9996 68.6034 22.0545 68.7865C22.1277 69.1342 22.4571 69.2989 22.8964 69.2074C24.0129 68.9695 25.111 68.7132 26.2275 68.4753C27.9113 68.1093 29.5952 67.7615 31.2973 67.487C32.4321 67.2856 33.5851 67.1575 34.7382 67.0294C35.818 66.9196 36.8796 66.8098 37.9594 66.7183C38.9478 66.6451 39.9178 66.5718 40.9062 66.4986C41.6749 66.4437 42.4436 66.4071 43.2306 66.3705C44.4203 66.3156 45.5916 66.2607 46.7813 66.2241C47.3304 66.2058 47.8612 66.2058 48.4102 66.1875C48.7763 66.1875 49.1423 66.096 49.5084 66.1509C49.3254 66.1509 49.1606 66.1692 48.9776 66.1692C48.8678 66.1692 48.8312 66.2058 48.8312 66.3156C48.8312 66.4437 48.8312 66.5718 48.8312 66.6817C48.8129 68.9146 48.7946 71.1475 48.7763 73.3987C48.6848 73.4902 48.5567 73.4536 48.4468 73.4353C48.0076 72.6666 47.3487 72.3189 46.4702 72.3189C42.7181 72.3372 38.9478 72.3372 35.1958 72.3372C34.9944 72.3006 34.8297 72.3372 34.665 72.2823Z" fill="#9B2D35"/>
<path id="Vector_6" d="M22.7506 80.2439C23.08 79.9876 23.3912 79.7497 23.684 79.5118C25.1299 78.3953 26.5941 77.2788 28.04 76.1807C28.223 76.0343 28.4244 75.9061 28.3695 75.6316C28.3146 75.3571 28.0766 75.2472 27.8387 75.1923C27.6191 75.1557 27.6008 75.0642 27.674 74.8812C27.7472 74.6982 27.7289 74.4419 27.857 74.3321C27.9851 74.2223 28.2413 74.2955 28.4244 74.2955C30.401 74.2955 32.3777 74.2955 34.3544 74.2772C34.5374 74.2772 34.574 74.3138 34.5374 74.4968C34.4642 74.8812 34.3727 75.1557 33.8785 75.2106C33.421 75.2472 33.0549 75.595 32.6889 75.8878C30.9684 77.2605 29.2663 78.6332 27.5458 80.0059C27.3994 80.1157 27.3811 80.1889 27.4909 80.372C28.4427 81.8362 29.3944 83.3004 30.3827 84.7463C30.7305 85.2771 31.1515 85.7163 31.7371 85.9909C31.9202 86.0824 32.1032 86.119 32.3045 86.1373C32.4143 86.1373 32.4326 86.1922 32.396 86.2837V86.302C32.3411 86.54 32.3411 86.8511 32.1764 86.9975C32.0117 87.1439 31.7005 87.0524 31.4626 87.0524C30.3827 87.0341 29.3029 87.089 28.223 86.9975C27.07 86.8877 26.1182 86.4484 25.4227 85.4967C24.4527 84.1789 23.4278 82.8794 22.5858 81.4701C22.5675 81.4335 22.5309 81.3786 22.476 81.3054C22.3662 81.7264 22.2747 82.0924 22.1649 82.4768C21.9269 83.337 21.689 84.1972 21.4511 85.0757C21.3413 85.4967 21.506 85.8078 21.9819 86.0275C22.3113 86.1739 22.3113 86.1739 22.2198 86.5216C22.0917 87.0341 22.0917 87.0341 21.5609 87.0341C19.5659 87.0341 17.5709 87.0341 15.5942 87.0341C15.3746 87.0341 15.338 86.9792 15.4112 86.7962C15.4295 86.7596 15.4295 86.723 15.4295 86.6864C15.4844 86.3386 15.5759 86.119 16.0152 86.0458C16.5826 85.9726 16.8754 85.4784 17.0951 84.9842C17.4794 84.1423 17.6624 83.2272 17.9004 82.3487C18.4311 80.4452 18.9436 78.5417 19.4744 76.6199C19.511 76.5101 19.5293 76.4003 19.5476 76.3088C19.6391 75.7231 19.4012 75.3571 18.7972 75.174C18.6508 75.1374 18.5959 75.1008 18.6508 74.9361C18.724 74.7348 18.7057 74.4602 18.8338 74.3138C18.9802 74.1857 19.2548 74.2772 19.4744 74.2772C21.323 74.2772 23.1715 74.2772 25.0201 74.2589C25.2397 74.2589 25.2763 74.3138 25.2031 74.4968C25.2031 74.5151 25.2031 74.5334 25.2031 74.5334C25.1482 74.8629 25.0567 75.1374 24.6357 75.2289C24.2331 75.3205 24.0134 75.6865 23.9036 76.0892C23.5376 77.4253 23.1715 78.743 22.8055 80.0608C22.7689 80.1523 22.7506 80.1706 22.7506 80.2439Z" fill="#242220"/>
<path id="Vector_7" d="M39.5889 79.3471C41.0714 79.3471 42.5356 79.3471 44.0364 79.3471C43.7802 80.3903 43.524 81.397 43.2677 82.4402C42.7004 81.8362 41.9865 81.763 41.2361 81.763C40.504 81.763 39.7719 81.763 39.0398 81.763C38.93 81.763 38.8568 81.7813 38.8202 81.9094C38.564 82.8978 38.2894 83.8678 38.0332 84.8561C37.8868 85.4418 38.0881 85.8445 38.6555 86.0824C38.8019 86.1373 38.8202 86.2105 38.7836 86.3387C38.7287 86.5217 38.6921 86.7047 38.6555 86.8877C38.6372 87.0159 38.5823 87.0525 38.4541 87.0525C36.6422 87.0525 34.8485 87.0342 33.0366 87.0525C32.8902 87.0525 32.8536 87.0342 32.8902 86.8694C33.3111 85.3503 33.7321 83.8129 34.153 82.2938C34.6838 80.372 35.2146 78.4502 35.7454 76.5285C35.9467 75.7964 35.7088 75.3937 34.995 75.1924C34.8851 75.1558 34.8851 75.1192 34.9034 75.0277C35.0316 74.3322 35.0316 74.3322 35.7454 74.3322C38.6006 74.3322 41.4375 74.3322 44.2927 74.3322C45.0248 74.3322 45.7386 74.3322 46.4707 74.3322C46.6171 74.3322 46.672 74.3505 46.6354 74.5335C46.3792 75.5584 46.1229 76.5651 45.8667 77.59C45.8484 77.6815 45.8301 77.7913 45.6837 77.7547C45.5739 77.7181 45.4274 77.8463 45.3542 77.6266C45.2261 77.224 44.8784 77.0592 44.494 76.9677C44.3476 76.9311 44.1829 76.9311 44.0364 76.9311C42.8468 76.9311 41.6571 76.9311 40.4857 76.9311C40.3759 76.9311 40.3027 76.9311 40.2661 77.0775C40.0831 77.8096 39.8817 78.5418 39.6804 79.2739C39.6072 79.2556 39.6072 79.2922 39.5889 79.3471Z" fill="#242220"/>
<path id="Vector_8" d="M57.8178 84.1789C57.6347 84.9293 57.4334 85.6248 57.3236 86.3386C57.2504 86.7596 57.0674 86.8694 56.683 86.9426C55.0541 87.2172 53.4251 87.3819 51.7596 87.2904C50.2588 87.1989 48.8129 86.8877 47.5134 86.0641C45.2622 84.6365 44.4386 82.0192 45.5001 79.5484C46.159 78.011 47.2755 76.8579 48.6665 75.9794C50.1673 75.0276 51.8328 74.5152 53.5899 74.2955C55.4384 74.0576 57.2504 74.1491 59.044 74.625C59.4101 74.7348 59.4101 74.7165 59.3186 75.1008C59.0806 75.9611 58.8427 76.8213 58.6048 77.6815C58.5499 77.8828 58.1838 77.9927 58.0557 77.8279C57.3785 76.986 56.4817 76.6749 55.4567 76.6383C54.0657 76.5834 52.7479 76.7847 51.54 77.5351C50.0941 78.4319 49.3986 80.0059 49.728 81.6349C49.966 82.8245 50.6981 83.6482 51.7413 84.1972C52.931 84.8012 54.1938 84.8927 55.475 84.7097C56.262 84.6182 57.0124 84.4169 57.8178 84.1789Z" fill="#242220"/>
<path id="Vector_9" d="M59.5771 66.1692C60.1262 66.1326 60.6569 66.1875 61.206 66.2058C61.3158 66.2058 61.4074 66.2058 61.5172 66.1692C61.5904 66.1326 61.6819 66.1143 61.6819 66.0227C61.6819 65.9312 61.6087 65.8763 61.5355 65.858C61.2426 65.7299 60.9315 65.6567 60.602 65.6018C60.3641 65.5469 60.1079 65.5286 59.8699 65.4737C59.5405 65.4188 59.4124 65.2723 59.3941 64.9429C59.3575 64.2657 59.3392 63.6068 59.3026 62.9296C59.2476 62.0511 59.1927 61.1909 59.1012 60.3123C59.028 59.6534 58.9914 58.9945 58.9182 58.3356C58.845 57.6401 58.7535 56.963 58.6803 56.2675C58.5522 55.1876 58.3508 54.1077 58.1861 53.0279C58.0763 52.3507 57.9665 51.6735 57.8567 50.9963C57.8017 50.6486 57.8384 50.5204 58.058 50.4655C58.1495 50.4472 58.2227 50.4655 58.2959 50.4838C58.8267 50.6303 59.3392 50.8316 59.6137 51.3441C59.7784 51.6552 59.815 52.0029 59.9065 52.3324C60.3824 54.2542 60.8583 56.1759 61.3341 58.0977C61.9564 60.6235 62.5604 63.1492 63.2193 65.6567C63.4389 66.4803 63.6403 67.2856 63.8599 68.1092C63.8782 68.2007 63.8782 68.2923 63.8599 68.3838C63.3108 70.4703 62.7617 72.5751 62.2127 74.6616C62.1212 75.0276 62.0296 75.0825 61.6453 75.0276C61.5904 75.0276 61.5355 75.0276 61.4623 75.0276C61.5172 74.4602 61.4074 73.9295 61.0413 73.4902C60.8949 73.3255 60.7485 73.1608 60.5471 73.0509C60.4007 72.9777 60.3458 72.8679 60.3275 72.7032C60.1994 71.4403 60.053 70.1957 59.9065 68.9328C59.7601 68.0177 59.6686 67.1026 59.5771 66.1692Z" fill="#9B2D35"/>
<path id="Vector_10" d="M50.698 66.1326C52.1805 66.1326 53.663 66.1143 55.1455 66.1326C55.9508 66.1509 56.7378 66.151 57.5432 66.1693C57.5981 66.2425 57.5432 66.3157 57.5798 66.3889C57.5798 66.4804 57.5798 66.5536 57.5981 66.6451C57.6347 66.7366 57.5981 66.8281 57.6347 66.9197C57.6347 67.0112 57.6347 67.0844 57.653 67.1759C57.6713 67.2491 57.6713 67.3223 57.6347 67.3955C57.5981 67.487 57.6164 67.5603 57.6896 67.6152C57.6896 67.6335 57.6896 67.6701 57.6896 67.6884C57.7262 67.7982 57.6896 67.908 57.7262 67.9995C57.7262 68.0727 57.7262 68.1642 57.7445 68.2374C57.7811 68.329 57.7445 68.4205 57.7811 68.512C57.7811 68.5852 57.7811 68.6767 57.7994 68.7499C57.836 68.8414 57.7994 68.9329 57.836 69.0245C57.836 69.116 57.836 69.1892 57.8543 69.2807C57.8726 69.3539 57.8726 69.4271 57.836 69.5003C57.7994 69.5918 57.8177 69.6651 57.8909 69.7383C57.8909 69.7566 57.8909 69.7932 57.8909 69.8115C57.9092 69.8847 57.9092 69.9579 57.8909 70.0311C57.8543 70.1043 57.8726 70.1775 57.9275 70.2324C57.9275 70.269 57.9275 70.3056 57.9275 70.3422C57.9458 70.4155 57.9458 70.4887 57.9275 70.5619C57.8909 70.6351 57.9092 70.7083 57.9641 70.7632C57.9641 70.7998 57.9641 70.8364 57.9641 70.873C57.9824 70.9462 57.9824 71.0194 57.9458 71.0927C57.9092 71.1842 57.9275 71.2574 58.0007 71.3123C58.0007 71.3306 58.0007 71.3672 58.0007 71.3855C58.019 71.4587 58.019 71.5319 57.9824 71.6051C57.9458 71.6966 57.9641 71.7698 58.0373 71.8248C58.0373 71.8431 58.0373 71.8797 58.0373 71.898C58.0739 72.081 58.0373 72.2091 57.8543 72.264C57.6896 72.2823 57.5432 72.2457 57.3784 72.2091C57.3052 72.1725 57.2137 72.2091 57.1405 72.1725C57.0673 72.1725 56.9941 72.1725 56.9392 72.1542C56.8294 72.1176 56.7195 72.1725 56.6097 72.1176C56.5365 72.1176 56.4816 72.1176 56.4084 72.1176C56.3352 72.0444 56.2437 72.0627 56.1522 72.081C56.0057 72.0993 55.8227 72.2091 55.7129 71.9895C55.7129 71.9163 55.7129 71.8248 55.6946 71.7515C55.658 71.66 55.6946 71.5685 55.658 71.477C55.658 71.4038 55.658 71.3123 55.6397 71.2391C55.6031 71.1476 55.6397 71.056 55.6031 70.9645C55.6031 70.8913 55.6031 70.8181 55.5848 70.7632C55.5482 70.69 55.5665 70.6168 55.5848 70.5436C55.6214 70.4704 55.6031 70.3972 55.5482 70.3422C55.5482 70.3056 55.5482 70.269 55.5482 70.2324C55.5299 70.1592 55.5299 70.086 55.5665 70.0128C55.6031 69.9213 55.5848 69.8481 55.5116 69.7932C55.5116 69.7749 55.5116 69.7383 55.5116 69.72C55.475 69.6284 55.5116 69.5369 55.475 69.4454C55.475 69.3722 55.475 69.299 55.4567 69.2441C55.4201 69.1526 55.4567 69.0611 55.4201 68.9695C55.4201 68.8963 55.4201 68.8048 55.4018 68.7316C55.3835 68.6767 55.3835 68.6035 55.4201 68.5486C55.475 68.4571 55.4384 68.3839 55.3652 68.3107C55.3652 68.2924 55.3652 68.2557 55.3652 68.2374C55.2919 68.1276 55.475 67.9812 55.3285 67.8714C55.3285 67.8348 55.3285 67.7982 55.3285 67.7616C55.2919 67.6701 55.3285 67.5786 55.2919 67.487C55.2919 67.4138 55.2919 67.3589 55.2736 67.2857C55.237 67.1942 55.2736 67.1027 55.237 67.0112C55.237 66.938 55.237 66.8648 55.2187 66.8098C55.1821 66.7183 55.2187 66.6268 55.1821 66.5353C55.1821 66.517 55.1821 66.4987 55.1821 66.4987C55.1455 66.1876 55.1455 66.1876 54.8344 66.1876C54.3402 66.1876 53.846 66.1876 53.3702 66.1876C53.2237 66.1876 53.1871 66.2242 53.1871 66.3706C53.297 68.091 53.4251 69.7932 53.5349 71.5136C53.5532 71.7332 53.5532 71.9346 53.5898 72.1542C53.6081 72.264 53.5898 72.3006 53.4617 72.3189C52.6564 72.4104 51.8328 72.5569 51.0457 72.7948C50.8993 72.8314 50.9176 72.7582 50.8993 72.6667C50.8627 71.5319 50.8078 70.3788 50.7712 69.2441C50.7346 68.2741 50.698 67.304 50.6797 66.3523C50.7163 66.2425 50.698 66.1876 50.698 66.1326Z" fill="#9B2D35"/>
<path id="Vector_11" d="M59.7227 74.808C59.7227 74.4603 59.9606 74.204 60.3083 74.204C60.6561 74.204 60.9306 74.4603 60.9306 74.808C60.9306 75.1375 60.6561 75.412 60.3266 75.412C59.9789 75.3937 59.7227 75.1375 59.7227 74.808Z" fill="#333130"/>
<path id="Vector_12" d="M48.4297 73.417C48.5212 73.3438 48.6493 73.3987 48.7591 73.3804C48.8323 73.4353 48.9971 73.3804 48.9971 73.4536C49.0154 73.5634 48.8506 73.5634 48.7774 73.6183C48.7042 73.6549 48.631 73.6915 48.5578 73.7282C48.5029 73.6183 48.4663 73.5085 48.4297 73.417Z" fill="#292624"/>
<path id="Vector_13" d="M55.6969 72.0444C55.825 72.1908 55.9897 72.1725 56.1178 72.081C56.2642 71.9895 56.3375 72.0078 56.3924 72.1725C56.2093 72.1725 56.008 72.1725 55.825 72.1725C55.7335 72.1725 55.6786 72.1542 55.6969 72.0444Z" fill="#9B2D35"/>
<path id="Vector_14" d="M57.8379 72.3189C57.9111 72.1908 58.0392 72.1175 58.0209 71.9528C58.0392 72.0077 58.0575 72.0809 58.0575 72.1358C58.0758 72.3921 58.0758 72.3921 57.8379 72.3189Z" fill="#9B2D35"/>
<path id="Vector_15" d="M57.9639 71.3489C57.8175 71.3123 57.7626 71.2207 57.8724 71.0926C57.9273 71.0194 57.9273 70.9645 57.9273 70.8913C57.9822 71.0377 57.9639 71.2024 57.9639 71.3489Z" fill="#9B2D35"/>
<path id="Vector_16" d="M57.671 67.6151C57.5246 67.5785 57.4696 67.487 57.5795 67.3589C57.6344 67.304 57.6161 67.2307 57.6344 67.1575C57.671 67.304 57.671 67.4687 57.671 67.6151Z" fill="#9B2D35"/>
<path id="Vector_17" d="M55.5127 69.8113C55.6591 69.8479 55.714 69.9395 55.6042 70.0676C55.5493 70.1225 55.5676 70.1957 55.5493 70.2689C55.4944 70.1225 55.5127 69.9578 55.5127 69.8113Z" fill="#9B2D35"/>
<path id="Vector_18" d="M57.837 69.7748C57.6906 69.7382 57.6357 69.6467 57.7455 69.5186C57.8004 69.4637 57.7821 69.3905 57.8004 69.3173C57.8553 69.4637 57.837 69.6101 57.837 69.7748Z" fill="#9B2D35"/>
<path id="Vector_19" d="M58.0186 71.8796C57.8722 71.843 57.8173 71.7515 57.9271 71.6234C57.982 71.5502 57.982 71.4953 57.982 71.4221C58.0186 71.5685 58.0186 71.7332 58.0186 71.8796Z" fill="#9B2D35"/>
<path id="Vector_20" d="M55.3838 68.3106C55.5302 68.3472 55.6034 68.4387 55.4753 68.5668C55.4387 68.6218 55.4204 68.6584 55.4204 68.7316C55.3655 68.6035 55.3838 68.457 55.3838 68.3106Z" fill="#9B2D35"/>
<path id="Vector_21" d="M57.9276 70.7814C57.8178 70.7631 57.7629 70.7082 57.8361 70.5984C57.891 70.5252 57.891 70.452 57.891 70.3788C57.9459 70.5069 57.9276 70.635 57.9276 70.7814Z" fill="#9B2D35"/>
<path id="Vector_22" d="M57.8905 70.2506C57.7807 70.2323 57.7257 70.1774 57.799 70.0676C57.8539 69.9944 57.8539 69.9212 57.8539 69.848C57.8905 69.9761 57.8905 70.1225 57.8905 70.2506Z" fill="#9B2D35"/>
<path id="Vector_23" d="M55.5674 70.3787C55.6772 70.397 55.7321 70.4519 55.6589 70.5617C55.604 70.635 55.604 70.7082 55.604 70.7814C55.5491 70.6533 55.5674 70.5251 55.5674 70.3787Z" fill="#9B2D35"/>
<path id="Vector_24" d="M55.3467 67.8713C55.4748 67.8896 55.5114 67.9628 55.4382 68.0543C55.4016 68.1092 55.3833 68.1641 55.3833 68.2373C55.3284 68.1275 55.3467 67.9994 55.3467 67.8713Z" fill="#9B2D35"/>
<path id="Vector_25" d="M57.7074 68.0177C57.6341 67.9262 57.689 67.7981 57.6707 67.7066C57.7073 67.7981 57.7074 67.9079 57.7074 68.0177Z" fill="#9B2D35"/>
<path id="Vector_26" d="M56.5918 72.1907C56.7016 72.1907 56.8114 72.1541 56.9212 72.2273C56.8114 72.2273 56.7016 72.2273 56.5918 72.1907Z" fill="#9B2D35"/>
<path id="Vector_27" d="M55.291 67.487C55.3642 67.5785 55.3093 67.67 55.3276 67.7615C55.291 67.67 55.291 67.5785 55.291 67.487Z" fill="#9B2D35"/>
<path id="Vector_28" d="M57.7445 68.5302C57.6712 68.4387 57.7262 68.3472 57.7079 68.2557C57.7628 68.3472 57.7445 68.4387 57.7445 68.5302Z" fill="#9B2D35"/>
<path id="Vector_29" d="M57.7816 69.0611C57.7084 68.9696 57.7633 68.8781 57.745 68.7866C57.7999 68.8781 57.7999 68.9696 57.7816 69.0611Z" fill="#9B2D35"/>
<path id="Vector_30" d="M55.4387 68.9694C55.5119 69.0609 55.457 69.1524 55.4753 69.244C55.4204 69.1707 55.4204 69.0792 55.4387 68.9694Z" fill="#9B2D35"/>
<path id="Vector_31" d="M55.4766 69.4637C55.5498 69.5552 55.4949 69.6467 55.5132 69.7382C55.4766 69.6467 55.4766 69.5552 55.4766 69.4637Z" fill="#9B2D35"/>
<path id="Vector_32" d="M57.6175 66.9196C57.5443 66.8281 57.5992 66.7366 57.5809 66.6451C57.6175 66.7183 57.6175 66.8098 57.6175 66.9196Z" fill="#9B2D35"/>
<path id="Vector_33" d="M55.6055 71.0012C55.6787 71.0927 55.6238 71.1842 55.6421 71.2757C55.6055 71.1842 55.6055 71.0927 55.6055 71.0012Z" fill="#9B2D35"/>
<path id="Vector_34" d="M55.2559 66.9927C55.3291 67.0842 55.2742 67.1758 55.2925 67.2673C55.2559 67.1941 55.2559 67.1026 55.2559 66.9927Z" fill="#9B2D35"/>
<path id="Vector_35" d="M55.6594 71.5319C55.7326 71.6234 55.6777 71.7149 55.696 71.8065C55.6411 71.7149 55.6411 71.6234 55.6594 71.5319Z" fill="#9B2D35"/>
<path id="Vector_36" d="M55.218 66.5169C55.2912 66.6084 55.2363 66.6999 55.2546 66.7914C55.1997 66.6999 55.1997 66.6084 55.218 66.5169Z" fill="#9B2D35"/>
<path id="Vector_37" d="M57.123 72.2274C57.1963 72.2274 57.2878 72.1907 57.361 72.264C57.2695 72.264 57.1963 72.264 57.123 72.2274Z" fill="#9B2D35"/>
<path id="Vector_38" d="M57.562 66.3889C57.5071 66.3157 57.5437 66.2425 57.5254 66.1693C57.5437 66.1693 57.5437 66.1693 57.562 66.1693C57.562 66.2425 57.562 66.3157 57.562 66.3889Z" fill="#9B2D35"/>
<path id="Vector_39" d="M55.5494 47.3724C55.3298 47.1894 55.1651 46.9515 55.0187 46.7136C54.6526 46.0913 54.195 45.5422 53.7009 45.0114C53.5361 44.8284 53.5361 44.6271 53.6094 44.4257C53.8473 43.6204 54.0669 42.8151 54.2133 41.9915C54.3049 41.4973 54.3781 41.0214 54.4513 40.5273C54.5245 40.1063 54.7441 39.8318 55.1651 39.6854C55.7508 39.484 56.007 39.0997 56.007 38.4957C55.9887 37.1413 56.4463 35.9333 57.0868 34.762C58.002 33.0964 58.7158 31.3394 59.0635 29.4725C59.2283 28.6123 59.2466 27.7521 58.9903 26.8918C58.8805 26.4892 58.6975 26.1231 58.4229 25.812C58.0386 25.3727 58.002 24.9152 58.2399 24.3844C58.7524 23.3228 59.0818 22.1881 59.2466 21.0167C59.3198 20.5042 59.3015 19.9735 59.2099 19.461C59.1916 19.3512 59.1367 19.223 59.0452 19.1681C58.6609 18.9119 58.5145 18.5092 58.4778 18.0883C58.3131 16.1299 57.8922 14.2447 57.1051 12.4328C56.5195 11.0418 55.7508 9.7606 54.7807 8.60754C54.7441 8.57094 54.7075 8.53433 54.7258 8.46112C55.4396 8.55263 56.1351 8.64415 56.8489 8.73566C57.5993 8.82717 58.3314 8.93699 59.0818 9.0285C59.8139 9.12001 60.546 9.21153 61.2781 9.30304C62.0286 9.39455 62.7607 9.50437 63.5111 9.59588C64.4811 9.724 65.4694 9.85212 66.4395 9.98024C67.2814 10.0901 68.1233 10.1999 68.9652 10.2914C69.9353 10.4195 70.9236 10.5476 71.8937 10.6757C72.7539 10.7856 73.5958 10.8954 74.456 11.0052C75.2979 11.115 76.1399 11.2248 77.0001 11.3346C77.4759 11.3895 77.9518 11.4627 78.4277 11.5177C78.6839 11.5543 78.812 11.719 78.7388 11.9752C78.3911 13.3113 78.0433 14.6291 77.6956 15.9469C77.238 17.6673 76.7804 19.3878 76.3229 21.1082C75.5359 24.0915 74.7489 27.0749 73.9618 30.0582C73.1016 33.3344 72.2414 36.6105 71.3812 39.8867C70.6308 42.7053 69.8987 45.5239 69.1483 48.3608C68.8371 49.5322 68.526 50.7035 68.2148 51.8749C68.1599 52.0762 68.0684 52.0762 67.9037 52.0396C67.0984 51.8566 66.2931 51.6736 65.4877 51.4722C64.0967 51.1428 62.724 50.8316 61.3331 50.5022C61.1683 50.4656 61.0036 50.4107 60.9121 50.2826C60.5826 49.8433 60.1251 49.6054 59.6492 49.3491C58.4412 48.7085 57.1784 48.1961 55.9704 47.5921C55.8789 47.5372 55.7874 47.4823 55.6959 47.4274C55.6043 47.4274 55.5677 47.409 55.5494 47.3724Z" fill="#9B2D35"/>
<path id="Vector_40" d="M27.4915 47.4457C27.0706 48.3059 26.7411 49.2027 26.3934 50.0995C26.2286 50.5388 25.9541 50.8499 25.4965 50.9964C25.0207 51.1611 24.5631 51.3624 24.0689 51.5088C23.5199 51.6919 23.0257 51.9847 22.623 52.4057C22.257 52.79 21.8177 53.0096 21.3052 53.1195C19.4933 53.5587 17.6996 54.0712 15.9243 54.6752C14.6065 55.1327 13.307 55.6086 12.0441 56.176C12.0258 56.1943 12.0075 56.1943 12.0075 56.176C12.0075 50.0629 12.0258 43.9316 11.9892 37.8185C11.9343 28.5757 11.9892 19.3329 11.9343 10.09C11.916 7.87543 11.9343 5.67912 11.916 3.4645C11.916 3.08015 12.0258 2.97033 12.3919 3.00694C13.0142 3.08015 13.6548 3.17166 14.2771 3.24487C15.0275 3.33638 15.7596 3.4279 16.51 3.53771C17.2421 3.62923 17.9742 3.72074 18.7063 3.81225C19.4567 3.90376 20.1888 4.01358 20.9392 4.10509C21.7811 4.21491 22.623 4.32472 23.4833 4.43454C24.2337 4.52605 24.9658 4.61757 25.7162 4.72738C26.43 4.81889 27.1621 4.91041 27.9308 5.02022C27.6929 5.13004 27.4915 5.16664 27.2902 5.20325C26.7594 5.33137 26.2103 5.44118 25.6613 5.5693C25.1122 5.69742 24.9109 6.08177 25.0573 6.70406C25.1854 7.21654 25.2403 7.71071 25.039 8.20488C24.9109 8.53432 24.6912 8.82716 24.4716 9.1017C23.5748 10.1633 22.623 11.1516 21.4517 11.9203C21.1771 12.1033 20.8843 12.2314 20.5731 12.3779C19.7861 12.7622 19.5116 13.4028 19.7861 14.2447C19.9692 14.8121 20.2437 15.3246 20.5365 15.8371C21.0124 16.679 21.1588 17.5758 21.0856 18.5458C20.9758 19.7538 20.5731 20.8703 20.1705 21.9867C20.1156 22.1149 20.0424 22.2613 19.9692 22.3711C19.6031 22.9202 19.6397 23.4692 19.9692 24.0183C20.2986 24.5857 20.7379 25.0616 21.1771 25.5374C21.4517 25.8303 21.47 25.9584 21.2686 26.2878C21.0124 26.7271 20.9392 27.203 20.9026 27.6971C20.8477 28.356 20.9758 28.9783 21.1405 29.6189C21.5798 31.3394 22.3302 32.9134 23.2819 34.3959C23.41 34.5789 23.5565 34.762 23.6846 34.945C23.9774 35.4208 23.9774 35.9333 23.9042 36.4458C23.8127 37.123 23.7761 37.7819 24.1055 38.4225C24.3801 38.9532 24.7827 39.3742 25.2952 39.6487C25.8626 39.9599 26.1005 40.4358 26.2286 41.0397C26.5215 42.4124 27.0157 43.7302 27.7295 44.9565C27.8576 45.1578 27.9491 45.3775 28.0772 45.5971C28.187 45.7801 28.1687 45.9265 28.0772 46.1096C27.8576 46.5305 27.6563 46.9515 27.4915 47.3907C27.5098 47.3907 27.5281 47.4273 27.4915 47.4457Z" fill="#9B2D35"/>
<path id="Vector_41" d="M35.0877 12.2314C36.8082 12.0118 38.4737 12.1765 40.0477 12.9635C40.1209 13.0001 40.1758 13.0184 40.2491 13.055C40.5053 13.1832 40.7249 13.1649 40.9446 12.9635C41.2008 12.7256 41.4936 12.506 41.7865 12.2863C41.9512 12.1582 41.9878 12.0118 41.9146 11.8288C42.061 11.664 42.2623 11.5725 42.4454 11.4444C42.848 11.1699 43.269 10.9319 43.7083 10.7306C44.3488 10.4378 44.9894 10.3829 45.6666 10.5476C46.9844 10.877 48.2656 11.2797 49.4919 11.8654C50.2972 12.2497 51.0476 12.7439 51.6882 13.3845C52.4386 14.1532 53.0975 15.0134 53.4818 16.0384C53.5367 16.1665 53.6283 16.2946 53.5367 16.4227C53.3903 16.4776 53.3903 16.6057 53.3903 16.7339C53.4269 17.466 53.4635 18.1981 53.5001 18.9302C53.5184 19.0949 53.5001 19.2413 53.4818 19.3877C53.4086 20.1015 53.6649 20.7238 53.9943 21.3095C54.2505 21.7671 54.5617 22.188 54.7264 22.7005C54.9277 23.3411 54.9643 23.9817 54.9827 24.6406C54.9827 24.8053 54.8728 24.8785 54.6532 24.8419C54.159 24.7504 53.6649 24.6772 53.1707 24.5674C52.4935 24.421 51.798 24.3843 51.1025 24.366C49.5468 24.3111 48.0094 24.2745 46.4536 24.3294C45.4287 24.366 44.4221 24.4759 43.4886 24.9517C43.1592 25.1165 42.8663 25.3361 42.5735 25.5557C42.3173 25.757 42.0427 25.812 41.7133 25.7387C41.0727 25.5923 40.4321 25.5923 39.7915 25.812C39.4437 25.9218 39.1326 25.8486 38.8398 25.6289C38.4188 25.3178 38.0161 24.97 37.5586 24.7138C36.7533 24.2562 35.8747 24.0183 34.9596 23.9268C33.6784 23.7987 32.3972 23.7072 31.1161 23.7072C31.0429 23.6339 31.0795 23.5424 31.0978 23.4509C31.2259 22.7554 31.3174 22.0599 31.3723 21.3461C31.4089 20.8336 31.5736 20.3395 31.7017 19.8453C31.9031 19.04 32.141 18.2164 32.3972 17.4294C32.8548 16.0384 33.4039 14.684 34.2641 13.476C34.3556 13.3479 34.4471 13.2198 34.557 13.0916C34.8132 12.8537 35.0328 12.5975 35.0877 12.2314Z" fill="#FDF1D6"/>
<path id="Vector_42" d="M50.241 47.4639C49.2526 48.4706 48.1911 49.3674 46.9648 50.0812C46.6719 50.2642 46.3608 50.4106 46.0497 50.5754C45.6287 50.7767 45.1894 50.7035 44.8783 50.374C44.7685 50.2642 44.677 50.1727 44.5671 50.0629C44.4756 49.9348 44.5122 49.7884 44.4939 49.6602C44.3841 48.8 44.0913 47.9947 43.7435 47.226C43.5605 46.805 43.5056 46.3841 43.5239 45.9448C43.5422 45.5055 43.5605 45.0663 43.6703 44.6453C43.6886 44.5904 43.7252 44.4989 43.6703 44.4623C43.5971 44.4074 43.5422 44.4806 43.469 44.5172C43.3409 44.6087 43.2677 44.7185 43.2311 44.865C43.1761 45.1395 43.0846 45.3774 42.9016 45.5971C42.7918 45.7252 42.6454 45.7984 42.4806 45.7435C42.3159 45.6886 42.2244 45.5605 42.2061 45.3774C42.1878 45.231 42.2061 45.1029 42.1878 44.9565C42.1695 44.627 42.0231 44.4806 41.6936 44.5538C41.1812 44.6636 40.6687 44.5721 40.1379 44.5721C40.083 44.5721 40.0464 44.5538 39.9915 44.5172C39.9183 44.0962 39.6804 43.8583 39.2594 43.7668C39.0581 43.7302 38.8567 43.6387 38.692 43.5106C38.4907 43.3458 38.4907 43.2177 38.692 43.0713C39.3326 42.632 40.0281 42.4856 40.7968 42.5771C42.078 42.7235 43.3592 42.7968 44.6221 42.449C45.1345 42.3026 45.647 42.1562 46.1778 41.9914C46.3425 41.9365 46.4706 41.9731 46.617 42.0464C46.6719 42.083 46.7269 42.1013 46.8001 42.1379C47.2942 42.3575 47.5322 42.7235 47.4956 43.2909C47.459 43.7851 47.4956 44.2793 47.6237 44.7734C47.7152 45.1212 47.8982 45.1578 48.1545 44.9199C48.4656 44.627 48.5571 44.2244 48.6486 43.8217C48.7401 43.3824 48.795 42.9432 48.9598 42.5222C49.033 42.3026 49.1611 42.1013 49.3258 41.9365C49.9115 41.4058 50.1677 40.7103 50.2776 39.9416C50.2959 39.7402 50.3142 39.5206 50.3325 39.301C50.3508 39.2461 50.3508 39.1911 50.3508 39.1362C50.3325 38.9715 50.4057 38.8617 50.5338 38.7336C51.1012 38.2211 51.2293 37.4707 50.8815 36.7935C50.7534 36.5556 50.607 36.3359 50.4057 36.1346C49.5455 35.311 48.7767 34.4325 47.9897 33.5356C47.404 32.8767 46.6719 32.4375 45.7385 32.3826C45.3542 32.3643 45.0064 32.4558 44.7136 32.6937C44.6221 32.7669 44.5671 32.8584 44.5671 32.9683C44.5671 33.1147 44.5671 33.2611 44.5854 33.4075C44.6221 33.7004 44.7685 33.9566 44.7319 34.2677C44.7136 34.4325 44.677 34.5972 44.5305 34.6887C43.835 35.2012 43.0846 35.6038 42.2061 35.7503C41.3825 35.8967 40.6321 35.6404 39.9183 35.2378C39.8634 35.2012 39.8268 35.1463 39.8085 35.0731C39.6437 34.4508 39.3875 33.8468 39.4241 33.1879C39.4424 32.8584 39.4973 32.529 39.5888 32.2179C39.6254 32.108 39.6437 31.9982 39.6987 31.9067C39.9915 31.2295 40.0281 30.5157 40.0647 29.7836C40.1013 29.0515 40.2111 28.3377 40.3026 27.6056C40.3209 27.4043 40.3026 27.1846 40.4308 27.0199C40.7602 26.9467 41.0897 26.9101 41.4191 27.0565C41.7119 27.1846 41.895 27.4043 41.9682 27.7154C42.078 28.2096 42.2244 28.6855 42.5356 29.0881C42.9565 29.6189 43.0297 29.6189 43.5788 29.2162C43.9083 28.9783 43.9266 28.8319 43.7252 28.4658C43.7069 28.4292 43.6703 28.3743 43.652 28.3377C43.5971 28.2096 43.5056 28.0632 43.6337 27.9533C43.7435 27.8618 43.8899 27.9167 44.0181 27.99C44.3109 28.1547 44.6221 28.3194 44.9332 28.4475C45.83 28.777 46.7635 28.8319 47.7152 28.6488C48.0812 28.5756 48.429 28.5207 48.795 28.4475C49.1794 28.3926 49.4356 28.5207 49.6187 28.8685C49.6919 29.0149 49.7651 29.143 49.8749 29.2711C49.4905 29.4725 49.4905 29.4725 49.6553 29.9117C49.8017 30.3144 49.7102 30.6987 49.5088 31.0648C49.3441 31.321 49.1611 31.5773 48.9415 31.7786C48.85 31.8701 48.7584 31.9616 48.7767 32.0897C48.795 32.4009 49.0147 32.6205 49.3258 32.6388C49.6187 32.6388 49.8932 32.5473 50.186 32.529C51.2842 32.0348 51.9248 31.1746 52.2908 30.0765C52.5654 29.2345 52.7484 28.356 52.9497 27.4775C53.0046 27.2029 53.1694 27.0016 53.4073 26.8735C53.7734 26.6722 54.1577 26.4891 54.5604 26.3427C54.8349 26.2329 54.963 26.3061 55.0728 26.599C55.1644 26.8369 55.1643 27.0931 55.1827 27.3494C55.2193 28.0632 55.2559 28.7953 55.2742 29.5274C55.2742 29.6006 55.2742 29.6921 55.3108 29.7653C55.3474 29.8751 55.4389 29.8934 55.5304 29.8751C56.0612 29.747 56.4638 28.96 56.2259 28.4658C56.171 28.356 56.0978 28.2462 56.0246 28.1181C55.7866 27.6971 55.9148 27.2762 56.3723 27.0382C56.7933 26.8186 57.1959 26.9467 57.4156 27.3677C57.6169 27.7703 57.6352 28.2096 57.6169 28.6488C57.5803 30.0032 57.1776 31.2478 56.6652 32.4741C56.354 33.2245 55.9331 33.92 55.6036 34.6521C55.3291 35.2378 55.1094 35.8418 54.9264 36.4641C54.8898 36.5739 54.8532 36.6654 54.7983 36.7569C54.7434 36.8667 54.6336 36.9216 54.5238 36.9033C54.4139 36.885 54.3224 36.8118 54.2858 36.702C54.2675 36.6471 54.2492 36.5739 54.2309 36.519C54.2126 36.4458 54.2126 36.3359 54.1211 36.3359C54.0479 36.3359 53.993 36.4275 53.9564 36.5007C53.7734 36.9582 53.4988 37.3609 53.1877 37.7452C53.0596 37.91 53.0412 38.1296 53.0412 38.3309C53.0412 39.2095 53.0046 40.0697 52.8948 40.9299C52.6569 42.9981 52.0895 44.9748 50.8632 46.6952C50.6985 46.9148 50.5155 47.1345 50.3508 47.3541C50.3142 47.409 50.2776 47.4273 50.241 47.4639Z" fill="#FDF1D6"/>
<path id="Vector_43" d="M53.5357 16.441C53.4259 15.8919 53.1514 15.416 52.8585 14.9585C52.5291 14.4277 52.1264 13.9335 51.6872 13.4943C51.1747 12.9818 50.6073 12.5425 49.9667 12.1948C48.6123 11.4627 47.1481 11.0051 45.6656 10.6208C44.6956 10.3645 43.8719 10.6757 43.0666 11.1332C42.664 11.3529 42.3345 11.6457 41.9136 11.847C41.4743 11.3712 40.9618 10.9868 40.4128 10.6391C39.1316 9.77884 37.7406 9.17485 36.2032 8.93692C34.8488 8.71729 33.4944 8.73559 32.14 8.90031C31.3347 8.99182 30.5477 9.15655 29.7423 9.33957C29.6508 9.35788 29.5593 9.37618 29.4678 9.37618C29.358 9.37618 29.2482 9.32127 29.1933 9.22976C29.1201 9.11994 29.2116 9.04673 29.2665 8.97352C29.4861 8.71729 29.7423 8.51596 30.0169 8.33293C31.2432 7.47271 32.5243 6.7406 33.9885 6.33795C34.0251 6.31964 34.0801 6.31965 34.1167 6.30134C34.2631 6.22813 34.318 6.11832 34.318 5.9719C34.2997 5.80717 34.1716 5.75226 34.0434 5.73396C33.7506 5.67905 33.4578 5.67905 33.1649 5.67905C33.0185 5.67905 32.8355 5.73396 32.7806 5.56924C32.7257 5.38621 32.9087 5.2947 33.0185 5.22149C33.531 4.85544 34.1167 4.65411 34.7206 4.48939C36.679 3.94031 38.6557 3.55595 40.6873 3.59256C43.0849 3.62916 45.3911 4.17824 47.5874 5.14828C49.0882 5.80717 50.5158 6.61249 51.7421 7.69234C54.1763 9.85205 55.8235 12.5059 56.5007 15.7089C56.9034 17.6123 56.9949 19.5341 56.8485 21.4742C56.8302 21.767 56.7753 22.0416 56.7021 22.3161C56.6838 22.371 56.6655 22.4442 56.6289 22.4991C56.5739 22.609 56.5007 22.7554 56.3543 22.7371C56.2079 22.7371 56.1713 22.5907 56.1347 22.4625C55.8418 21.584 55.5124 20.7055 55.1646 19.8636C54.7437 18.8203 54.2861 17.7771 53.7736 16.7704C53.7187 16.6057 53.6638 16.4959 53.5357 16.441Z" fill="#FEFEFE"/>
<path id="Vector_44" d="M52.5655 47.409C52.6204 47.2992 52.6936 47.1894 52.7485 47.0795C52.8401 46.9148 52.9316 46.9148 53.0597 47.0429C53.1695 47.1527 53.2427 47.2809 53.3342 47.409C53.3525 47.4273 53.3525 47.4456 53.3708 47.4456C53.6637 48.0496 53.7369 48.6902 53.7735 49.3674C53.9016 51.6735 53.4257 53.8698 52.7852 56.0478C52.3093 57.6767 51.7419 59.2874 50.9915 60.8065C50.9183 60.9529 50.8085 61.1359 50.9732 61.2274C51.1379 61.319 51.2477 61.1359 51.3392 61.0261C51.7602 60.5136 52.0713 59.9463 52.3642 59.3789C53.7552 56.6701 54.7984 53.8515 55.439 50.8682C55.5854 50.795 55.5671 50.9231 55.5854 50.9963C55.6221 51.2159 55.6404 51.4539 55.677 51.6735C55.9515 53.76 55.9332 55.8648 55.8966 57.9513C55.8783 59.0128 55.8417 60.0744 55.8051 61.1359C55.7868 61.9046 55.7136 62.6734 55.6587 63.4238C55.6221 63.8813 55.5854 64.3389 55.5488 64.7965C55.5305 65.1076 55.4939 65.1442 55.1828 65.1076C52.6204 65.0161 50.0581 64.9429 47.4774 64.888C46.5257 64.8697 45.5922 64.8697 44.6405 64.8514C44.2561 64.8514 44.2195 64.7965 44.2012 64.4121C44.1463 62.7466 43.8352 61.1359 43.2495 59.5802C43.2312 59.5436 43.2312 59.507 43.2129 59.4704C43.3044 59.4338 43.3593 59.5253 43.4142 59.5619C43.8352 59.9646 44.2378 60.3855 44.6222 60.8248C45.2079 61.4837 45.9034 62.0328 46.6355 62.5269C47.2029 62.9113 47.7519 62.9479 48.3193 62.5635C48.3559 62.5452 48.3925 62.5269 48.4291 62.5086C48.5206 62.4354 48.5206 62.3622 48.484 62.2524C48.3925 61.9779 48.2461 61.7399 48.0814 61.502C47.4591 60.6052 46.7636 59.7815 46.0864 58.9396C46.0315 58.8847 45.9766 58.8115 45.94 58.7566C45.9034 58.6834 45.7936 58.6102 45.8668 58.5187C45.9217 58.4455 46.0315 58.4455 46.1047 58.4638C46.5806 58.5187 47.0564 58.5919 47.514 58.6285C47.6787 58.6468 47.8434 58.6651 47.9899 58.6468C48.5206 58.6285 48.8684 58.3173 48.905 57.7683C48.9416 56.9812 48.9416 56.1942 48.9416 55.4072C48.9416 55.2791 48.9599 55.151 48.9416 55.0046C48.9416 54.5653 48.7403 54.3091 48.301 54.1992C47.7519 54.0711 47.2029 54.0528 46.6355 54.0894C46.2328 54.1077 45.8119 54.1626 45.4092 54.2359C45.2994 54.2542 45.1347 54.3274 45.0981 54.1992C45.0432 54.0528 45.2262 53.9979 45.3177 53.943C45.702 53.7234 46.1047 53.5038 46.4891 53.2658C48.5389 52.0578 50.3143 50.5204 51.7236 48.5987C51.9981 48.2326 52.2544 47.8482 52.4557 47.4273C52.5472 47.4639 52.5289 47.4273 52.5655 47.409Z" fill="#FEFEFE"/>
<path id="Vector_45" d="M35.0868 64.8331C33.1467 64.9063 31.2066 64.9795 29.2848 65.071C28.6259 65.1076 27.967 65.1442 27.3081 65.1808C27.0702 65.1991 26.8323 65.1991 26.6127 65.1991C26.1368 65.1808 25.8989 64.9795 25.8256 64.5219C25.6792 63.6983 25.6426 62.8564 25.6792 62.0145C25.7341 60.4954 25.8256 58.9946 26.027 57.4937C26.1002 56.8714 26.1917 56.2492 26.3381 55.6269C26.3747 55.5171 26.4296 55.5171 26.4662 55.6086C26.5394 55.755 26.5943 55.9197 26.6493 56.0844C26.8323 56.6701 27.0336 57.2558 27.2532 57.8232C27.6559 58.8664 28.205 59.8548 28.8456 60.7699C29.1201 61.1726 29.4313 61.5386 29.6875 61.9596C29.8522 62.2341 30.0901 62.4537 30.3098 62.6917C30.6758 63.1126 31.0236 63.5519 31.4811 63.8814C31.9753 64.2474 32.8172 64.1559 33.2199 63.68C33.3114 63.5702 33.3297 63.4421 33.3663 63.314C33.3846 63.076 33.2748 62.8747 33.1467 62.6917C32.2315 61.3739 31.4079 60.0012 30.8039 58.5187C30.1451 56.8531 29.7424 55.1327 29.4679 53.3757C29.3214 52.4788 29.3763 51.5637 29.5045 50.6669C29.6143 50.6486 29.6692 50.7401 29.7241 50.795C30.4562 51.5454 31.2249 52.2409 31.957 52.9913C32.4695 53.5038 33.0918 53.8881 33.6592 54.3274C33.7324 54.3823 33.8422 54.4006 33.8056 54.5287C33.6408 54.5836 33.4944 54.6751 33.3663 54.8033C33.2382 54.8765 33.1101 54.8948 32.9637 54.9131C32.4329 55.0412 32.0851 55.3889 32.0668 55.938C32.0302 56.9081 32.1034 57.8598 32.3597 58.8115C32.378 58.8664 32.3963 58.903 32.4146 58.9579C32.6342 59.5802 33.1101 59.8182 33.7507 59.8365C34.373 59.8365 34.9952 59.7816 35.6175 59.7267C35.8372 59.7084 36.0385 59.7084 36.2581 59.6718C36.3313 59.6534 36.4045 59.6717 36.4595 59.7267C36.0019 60.3489 35.5626 60.9895 35.2881 61.7216C35.2515 61.8315 35.1966 61.9596 35.16 62.0694C35.1234 62.1609 35.1051 62.2524 35.1966 62.3073C35.2881 62.3622 35.343 62.289 35.3979 62.2341C35.4711 62.1609 35.5443 62.0694 35.6175 61.9779C36.2764 61.1177 37.0085 60.3123 37.8504 59.6351C37.9969 59.5253 38.1616 59.507 38.3263 59.507C38.4727 59.507 38.5276 59.5985 38.4361 59.7084C37.7406 60.5503 37.3563 61.5569 36.7889 62.472C36.4045 63.0943 36.0019 63.7166 35.5809 64.3206C35.4894 64.4487 35.4162 64.5585 35.343 64.6867C35.2698 64.7599 35.1966 64.8148 35.0868 64.8331Z" fill="#FEFEFE"/>
<path id="Vector_46" d="M39.9927 44.5171C40.2855 44.5171 40.5601 44.4988 40.8529 44.5538C41.1274 44.5904 41.4203 44.5355 41.6948 44.4805C42.0243 44.4256 42.2256 44.5721 42.2439 44.9015C42.2439 45.0479 42.2439 45.1943 42.2439 45.3408C42.2439 45.5055 42.3171 45.6336 42.4635 45.6885C42.61 45.7434 42.7564 45.6885 42.8479 45.5421C43.0126 45.3225 43.1224 45.0845 43.159 44.81C43.1773 44.6453 43.4336 44.3707 43.5983 44.3341C43.7264 44.3158 43.7996 44.3524 43.7447 44.4988C43.58 44.9564 43.5983 45.4323 43.5617 45.9081C43.5068 46.5304 43.7447 47.0978 43.9826 47.6652C44.3121 48.4156 44.55 49.2026 44.55 50.0445C44.367 50.0628 44.2755 50.1727 44.2938 50.3923C44.3121 50.5387 44.3487 50.7034 44.367 50.8498C44.4951 51.4904 44.2206 51.9846 43.8911 52.4788C43.5983 52.918 43.2322 53.3024 42.9577 53.7417C42.6832 54.1809 42.4635 54.6568 42.4452 55.1876C42.4452 55.334 42.3537 55.3889 42.2256 55.3889C42.0243 55.3889 41.8595 55.3157 41.7314 55.1876C40.5601 54.126 39.3521 53.1377 38.5285 51.7467C37.9977 50.8498 37.8513 49.8981 38.1258 48.9098C38.2539 48.4156 38.4004 47.9214 38.5285 47.4273C38.5102 47.409 38.5102 47.409 38.5102 47.3907L38.5285 47.3724C38.7481 46.6036 38.7298 45.8532 38.5651 45.0845C38.5468 44.9747 38.437 44.8283 38.6017 44.7551C38.7298 44.6819 38.8579 44.7917 38.9494 44.8832C39.1874 45.1211 39.3155 45.414 39.4985 45.6885C39.5717 45.7983 39.6266 45.9631 39.7731 45.9448C39.9012 45.9081 39.9012 45.7434 39.9378 45.6153C40.0659 45.2676 40.011 44.8832 39.9927 44.5171Z" fill="#FEFEFE"/>
<path id="Vector_47" d="M12.6855 68.7316C12.6306 68.7316 12.5757 68.7316 12.5391 68.7133C12.1364 68.6767 12.0632 68.5851 12.0632 68.1825C12.0632 64.7416 12.0449 61.319 12.0449 57.8781C12.0632 57.8232 12.1181 57.8415 12.1547 57.8232C12.9967 57.5304 13.8203 57.2558 14.6622 56.963C15.1198 56.7983 15.5956 56.6518 16.0349 56.4688C16.7853 56.176 17.5174 56.1943 18.2495 56.542C18.3044 56.6152 18.2495 56.6701 18.2129 56.7251C17.6272 57.6402 17.2612 58.6468 16.8768 59.6535C16.5474 60.4771 16.2545 61.3373 15.98 62.1792C15.9251 62.3623 15.8519 62.527 15.7603 62.71C15.1747 63.8814 14.589 65.0344 14.0216 66.2058C13.6556 66.9745 13.2712 67.7249 12.9051 68.4936C12.8136 68.5668 12.7953 68.6767 12.6855 68.7316Z" fill="#FEFEFE"/>
<path id="Vector_48" d="M64.8454 64.339C64.4061 62.8382 63.9669 61.3923 63.5276 59.9464C62.8504 57.6951 62.1549 55.4439 61.4777 53.1927C61.4228 53.0097 61.3862 52.8266 61.3496 52.6436C61.313 52.4057 61.4045 52.2776 61.6424 52.2593C61.9536 52.241 62.2464 52.3325 62.5393 52.4057C64.2048 52.7534 65.8703 53.1012 67.5359 53.4306C67.7189 53.4672 67.7189 53.5221 67.6823 53.6686C66.7855 57.0728 65.8886 60.4771 64.9735 63.8814C64.9369 64.0095 64.9003 64.156 64.8454 64.339Z" fill="#FEFEFE"/>
<path id="Vector_49" d="M23.8852 22.554C23.9218 21.163 24.0499 19.7721 24.2513 18.3811C24.3611 17.6673 24.2879 16.9718 23.9218 16.3129C23.7205 15.9651 23.5375 15.5991 23.3727 15.2513C23.2263 14.9402 23.4277 14.629 23.7571 14.6473C24.9285 14.6839 25.9534 14.2447 26.9417 13.6773C27.9301 13.1099 28.8452 12.3961 29.8519 11.9019C30.7853 11.4444 31.7553 11.0966 32.7986 11.0966C32.9084 11.0966 33.0365 11.0966 33.1463 11.1332C33.2928 11.1881 33.3111 11.2979 33.1829 11.3895C33.1097 11.4444 33.0365 11.481 32.9633 11.5176C31.2063 12.2497 29.9434 13.5126 29.0282 15.1415C28.6622 15.7821 28.2595 16.3678 27.6372 16.807C26.9418 17.2829 26.6855 18.015 26.4476 18.7654C25.8619 20.5591 25.5874 22.4076 25.5691 24.2928C25.5691 24.4209 25.5691 24.549 25.5325 24.6771C25.5141 24.7321 25.4958 24.787 25.4592 24.8419C25.3494 25.0066 24.5624 25.2811 24.3794 25.2262C24.233 25.1713 24.1964 25.0615 24.1598 24.9334C24.0499 24.5673 23.9767 24.183 23.9401 23.7986C23.9035 23.396 23.8669 22.975 23.8852 22.554Z" fill="#FEFEFE"/>
<path id="Vector_50" d="M47.5684 39.3558C46.3971 39.2643 45.2257 39.1362 44.0543 39.0447C41.5469 38.8799 39.0577 38.8433 36.5869 39.3375C36.1842 39.4107 35.7816 39.4473 35.3606 39.3741C35.1227 39.3192 34.9213 39.2094 34.7749 39.0264C34.6102 38.825 34.6468 38.7152 34.8847 38.6054C35.0678 38.5139 35.2691 38.4407 35.4521 38.3675C35.8365 38.1844 36.1659 37.9465 36.4404 37.6354C36.5686 37.4889 36.6967 37.3608 36.8248 37.2144C37.3373 36.6653 38.1426 36.5372 38.8015 36.9033C39.5885 37.3608 40.4487 37.5438 41.3638 37.5804C41.8763 37.5987 42.2973 37.4157 42.5901 36.9948C42.8098 36.6836 43.1026 36.5006 43.4503 36.4274C43.9994 36.2993 44.4387 35.9698 44.8779 35.6404C45.1708 35.4207 45.3721 35.4207 45.665 35.6404C45.9761 35.8783 46.2323 36.1894 46.452 36.5189C46.6899 36.8666 46.9095 37.2144 47.1475 37.5621C47.4586 38.0014 47.8979 38.2942 48.4103 38.4407C48.4653 38.459 48.5019 38.459 48.5568 38.4956C48.7947 38.6237 48.8313 38.8433 48.63 39.0447C48.3371 39.3375 47.9528 39.3741 47.5684 39.3558Z" fill="#FEFEFE"/>
<path id="Vector_51" d="M30.8767 32.1264C30.5839 31.9068 30.2361 31.7421 29.9616 31.5041C29.3942 31.0099 29.0099 30.4243 28.7536 29.7288C28.6804 29.5091 28.7353 29.3444 28.9366 29.2346H28.9549C29.3942 28.9234 29.7969 28.8868 30.1812 29.3444C30.291 29.4725 30.4375 29.564 30.6022 29.6006C30.8584 29.6739 31.0597 29.6556 31.2245 29.4359C31.5173 29.0699 31.8468 28.7587 32.2677 28.5391C32.8351 28.2463 33.4391 28.2646 34.0431 28.3561C34.6288 28.4476 35.2144 28.6123 35.8184 28.5208C36.0381 28.4842 36.2394 28.4476 36.459 28.3744C36.5505 28.3378 36.6237 28.3012 36.7153 28.2646C36.8068 28.2463 36.8983 28.2096 36.9715 28.3195C37.0264 28.411 36.9715 28.4842 36.9166 28.5574C36.7702 28.7221 36.6237 28.8868 36.4956 29.0516C36.2211 29.2529 35.8916 29.3444 35.5622 29.4359C35.2327 29.5274 35.1229 29.6556 35.1961 29.985C35.2693 30.3694 35.1961 30.6988 34.9948 31.0282C34.6837 31.5407 34.2444 31.8885 33.677 32.0898C33.5672 32.1264 33.4574 32.1447 33.4391 32.2728C33.3293 32.5291 33.4757 32.7853 33.7868 32.8219C34.0248 32.8585 34.2627 32.8036 34.5006 32.767C34.9033 32.7121 35.3243 32.6389 35.7086 32.4925C35.7635 32.4742 35.8367 32.4375 35.8916 32.4925C35.3792 32.95 35.0131 33.4991 34.8667 34.1763C34.8301 34.3593 34.7203 34.4691 34.5555 34.524C34.1346 34.6705 33.7502 34.8718 33.3659 35.0548C33.1096 35.128 32.9449 35.0731 32.7985 34.8535C32.469 34.3227 32.1396 33.7919 31.9017 33.2246C31.8285 33.0598 31.7735 32.8951 31.7552 32.7121C31.7369 32.5474 31.6637 32.4559 31.499 32.4009C31.2977 32.3643 31.0597 32.2911 30.8767 32.1264Z" fill="#FDF1D6"/>
<path id="Vector_52" d="M12.6836 68.7316C13.4889 67.1027 14.2759 65.4737 15.0995 63.8631C15.6486 62.8015 16.0696 61.6851 16.4722 60.5686C16.8566 59.4705 17.2592 58.3906 17.79 57.3474C17.9181 57.0728 18.0829 56.8349 18.2293 56.5604C18.5953 56.6702 18.9614 56.8166 19.3274 56.9813C19.5654 57.0911 19.6935 57.4572 19.6203 57.8049C19.5471 58.1893 19.3457 58.537 19.1993 58.9031C17.8632 62.0145 16.5271 65.126 15.3741 68.3289C15.3009 68.5303 15.2094 68.7133 15.1178 68.9146C15.0812 69.0061 15.0446 69.061 14.9348 69.0427C14.1844 68.9329 13.434 68.8597 12.6836 68.7316Z" fill="#DFC091"/>
<path id="Vector_53" d="M35.0863 12.2314C35.1595 12.6157 34.8666 12.8537 34.6653 13.0916C34.0796 13.7871 33.6221 14.5558 33.256 15.3794C32.4873 17.1182 32.0114 18.9301 31.5539 20.7604C31.4624 21.1081 31.4441 21.4742 31.4258 21.8402C31.3709 22.4808 31.2793 23.1031 31.1512 23.7254C30.3642 23.762 29.5772 23.8169 28.7902 23.8535C28.5522 23.8718 28.3509 23.7437 28.3509 23.5241C28.3326 23.1397 28.296 22.7554 28.4058 22.371C28.4607 22.1514 28.5706 21.9501 28.7902 21.8586C29.4491 21.5657 29.5772 20.9983 29.6687 20.3577C29.9799 18.2712 30.5838 16.2946 31.8284 14.5375C32.286 13.8786 32.7802 13.2563 33.4573 12.7988C33.9332 12.4693 34.4823 12.268 35.0863 12.2314Z" fill="#DFC091"/>
<path id="Vector_54" d="M35.2147 47.3725C34.08 47.0613 33.2014 46.3658 32.4693 45.4873C31.298 44.0597 30.6025 42.3942 30.2364 40.6188C30.0717 39.8135 30.3096 39.0265 30.9136 38.4225C31.2064 38.1297 31.5908 38.0565 31.9752 38.0565C32.268 38.0565 32.4327 38.2944 32.451 38.6421C32.5425 40.326 32.8171 41.9732 33.3661 43.5838C33.5126 43.9865 33.6773 44.3709 33.9518 44.7003C34.1898 45.0114 34.3911 44.9748 34.5375 44.6271C34.6473 44.3892 34.7388 44.1512 34.8487 43.9316C34.9036 43.7852 34.9951 43.6754 35.1781 43.6754C35.3611 43.6754 35.3794 43.8401 35.416 43.9682C35.6174 44.7552 35.8004 45.5422 36.0566 46.3292C36.1115 46.494 36.1847 46.677 36.2397 46.8417C36.3129 47.043 36.2763 47.2261 36.1115 47.3725C36.0749 47.4457 35.9834 47.4091 35.9285 47.4457C35.7821 47.4457 35.654 47.4457 35.5076 47.4457C35.416 47.4091 35.2879 47.464 35.2147 47.3725Z" fill="#DFC091"/>
<path id="Vector_55" d="M55.1641 65.1259C55.4569 65.0893 55.4569 65.0893 55.4752 64.7965C55.5484 63.863 55.6216 62.9113 55.6765 61.9779C55.6948 61.7033 55.7131 61.4288 55.7314 61.1542C55.7497 60.2208 55.7497 59.2874 55.7863 58.3539C55.8413 57.1094 55.823 55.8648 55.823 54.6202C55.8047 53.7417 55.7131 52.8632 55.6216 51.9846C55.585 51.6552 55.5484 51.3257 55.5301 50.9963C55.5301 50.9597 55.5667 50.8682 55.4569 50.8865C55.5118 50.5936 55.5667 50.3008 55.6216 50.008C55.6765 49.7151 55.823 49.6602 56.0792 49.8249C56.5002 50.0812 56.6283 50.5021 56.7198 50.9414C56.8296 51.4905 56.8479 52.0578 56.9028 52.6069C56.9577 53.2841 57.0126 53.9796 57.0675 54.6568C57.1041 55.2242 57.1407 55.7916 57.159 56.359C57.2689 58.5004 57.3238 60.6418 57.3604 62.7832C57.3787 63.3689 57.3787 63.9545 57.3787 64.5402C57.3604 64.9612 57.2689 65.1442 56.7747 65.1625C56.2256 65.1991 55.6948 65.1442 55.1641 65.1259Z" fill="#DFC091"/>
<path id="Vector_56" d="M33.3114 63.3139C33.3846 63.6067 33.1833 63.7715 32.982 63.9179C32.4512 64.2839 31.7008 64.2107 31.2249 63.7898C30.7673 63.3688 30.3464 62.9112 29.962 62.4171C28.9737 61.1725 28.0586 59.873 27.3997 58.4271C27.0519 57.6767 26.814 56.8714 26.5394 56.0844C26.4845 55.938 26.4296 55.7915 26.3747 55.6268C26.3381 55.517 26.3198 55.5902 26.2832 55.6085C26.3381 55.2242 26.4479 54.8581 26.5577 54.492C26.6493 54.1809 27.1983 53.8515 27.5095 53.9064C27.6742 53.9247 27.7291 54.0528 27.784 54.1809C28.2782 55.5536 28.809 56.9263 29.3763 58.2807C29.9071 59.5253 30.6575 60.6234 31.4445 61.7216C31.8289 62.2707 32.2499 62.8014 32.7623 63.2407C32.8172 63.2956 32.8721 63.3322 32.927 63.3871C33.1467 63.5335 33.2016 63.5152 33.3114 63.3139Z" fill="#DFC091"/>
<path id="Vector_57" d="M33.7699 54.5104C33.5502 54.2542 33.2574 54.0895 32.9828 53.9064C32.3423 53.4489 31.7749 52.9181 31.2258 52.369C30.6584 51.7833 30.0544 51.2342 29.4688 50.6669C29.5054 50.1727 29.6152 49.6968 29.9263 49.2759C30.0727 49.0745 30.2192 49.0745 30.3656 49.2576C31.8481 51.0512 33.6783 52.4239 35.655 53.5953C35.8014 53.6685 35.9296 53.76 36.0577 53.8515C36.1492 53.9247 36.2407 54.0345 36.2041 54.1444C36.1675 54.2725 36.0394 54.2542 35.9296 54.2725C35.4903 54.3091 35.051 54.2725 34.6118 54.3274C34.3372 54.3823 34.0627 54.4555 33.7699 54.5104Z" fill="#DFC091"/>
<path id="Vector_58" d="M44.568 33.4442C44.5131 33.3344 44.4948 33.2062 44.4948 33.0964C44.4765 32.7853 44.8243 32.4558 45.2269 32.4009C46.1421 32.2545 46.9108 32.6023 47.6063 33.1513C48.1737 33.6089 48.5763 34.2312 49.0705 34.762C49.5463 35.2744 50.0588 35.732 50.5164 36.2445C50.9556 36.7386 51.1936 37.2877 51.0289 37.9649C50.9556 38.2944 50.7909 38.5689 50.5347 38.7702C50.3883 38.8984 50.2968 39.0265 50.3334 39.2095C50.3334 39.2461 50.3151 39.2827 50.2968 39.301C50.2602 38.8617 50.3151 38.4042 50.2418 37.9649C50.1869 37.544 50.0039 37.2145 49.6196 37.0498C48.741 36.6654 48.1371 36.0065 47.6246 35.2378C47.2036 34.6338 46.801 34.0299 46.197 33.6089C45.8309 33.3527 45.4466 33.1513 44.989 33.0598C44.6596 33.0232 44.5863 33.0964 44.568 33.4442Z" fill="#DFC091"/>
<path id="Vector_59" d="M36.4056 59.7084C35.7284 59.7633 35.0329 59.8182 34.3557 59.8731C33.9713 59.9097 33.587 59.9097 33.2209 59.8365C32.6901 59.7267 32.4339 59.324 32.2875 58.8665C32.1228 58.354 32.0679 57.8232 32.0312 57.2924C32.0129 56.9081 31.958 56.5237 31.9763 56.1394C31.9946 55.2975 32.5071 54.8033 33.349 54.8033C33.2758 55.0046 33.2575 55.2059 33.2575 55.4256C33.2575 56.1943 33.2758 56.963 33.2209 57.7317C33.166 58.5004 33.6785 58.7566 34.2459 58.8482C34.9963 58.958 35.7467 58.8116 36.4971 58.7932C36.5337 58.7932 36.5703 58.7749 36.6069 58.7749C36.7533 58.7749 36.918 58.7566 36.9913 58.8848C37.0645 59.0129 36.9363 59.1044 36.8631 59.2142C36.6984 59.3606 36.5886 59.562 36.4056 59.7084Z" fill="#DFC091"/>
<path id="Vector_60" d="M30.8781 32.1263C31.1527 32.2361 31.4089 32.3642 31.7017 32.4374C31.8116 32.474 31.8299 32.5655 31.8299 32.6388C31.8665 33.1695 32.1593 33.5905 32.3972 34.0481C32.5254 34.286 32.7084 34.5056 32.8182 34.7619C32.9463 35.0181 33.1294 35.073 33.3856 35.073C33.0744 35.2926 32.7633 35.5306 32.4339 35.7319C31.9214 36.0613 31.2808 36.043 30.8598 35.6221C30.0179 34.7985 29.3407 33.865 29.0479 32.6937C29.0113 32.5838 28.993 32.474 29.1028 32.4008C29.2126 32.3276 29.3041 32.4008 29.3956 32.4557C29.6153 32.6205 29.8349 32.7669 30.0911 32.8767C30.2924 32.9682 30.4938 33.0414 30.6768 32.8767C30.8781 32.712 30.9696 32.3459 30.8781 32.1263Z" fill="#DFC091"/>
<path id="Vector_61" d="M35.0879 64.8331C35.1245 64.7965 35.1794 64.7782 35.1977 64.7416C36.0579 63.4238 36.9365 62.0877 37.6686 60.6967C37.8699 60.3306 38.0529 59.9463 38.3641 59.6535C38.3824 59.6351 38.3824 59.5985 38.419 59.5619C38.1993 59.5253 37.998 59.5985 37.815 59.6351C38.3091 59.2142 38.8216 58.8115 39.4256 58.5736C39.5354 58.537 39.6635 58.4455 39.7734 58.5553C39.8832 58.6651 39.8466 58.8115 39.81 58.9213C39.7184 59.2508 39.5903 59.5619 39.4439 59.8731C38.7484 61.3556 37.9431 62.7832 37.0097 64.1376C36.8998 64.3206 36.7534 64.467 36.5887 64.5952C36.424 64.7233 36.241 64.7965 36.0213 64.7965C35.7285 64.8148 35.4173 64.8697 35.0879 64.8331Z" fill="#DFC091"/>
<path id="Vector_62" d="M48.4485 62.5271C48.1739 62.8931 47.332 63.0395 46.9111 62.765C46.0691 62.2342 45.2638 61.6668 44.6049 60.8981C44.2023 60.4406 43.763 60.0013 43.342 59.562C43.3054 59.5254 43.2688 59.5071 43.2139 59.4705C43.0858 59.2143 42.9577 58.958 42.8296 58.6835C42.793 58.6103 42.7747 58.5188 42.8296 58.4456C42.9028 58.3541 43.0126 58.3541 43.1041 58.3907C43.2139 58.4456 43.3237 58.5005 43.4336 58.5737C44.5866 59.2692 45.6482 60.1294 46.6548 61.0262C47.149 61.4655 47.6249 61.8865 48.0641 62.3806C48.1739 62.4904 48.3021 62.5271 48.4485 62.5271Z" fill="#DFC091"/>
<path id="Vector_63" d="M40.4125 27.0383C40.3576 27.4775 40.3027 27.8985 40.2661 28.3378C40.2112 28.8319 40.138 29.3261 40.1197 29.8203C40.0831 30.5524 40.0281 31.2845 39.7536 31.98C39.4059 32.8219 39.4242 33.6821 39.7353 34.5423C39.8268 34.7803 39.8634 35.0182 39.9366 35.2561C39.2228 34.8352 38.7287 34.2495 38.509 33.4442C38.4358 33.1696 38.5273 32.8768 38.6188 32.584C38.7653 32.0349 38.9666 31.5041 39.0947 30.955C39.1679 30.6256 39.2045 30.2961 39.2045 29.9667C39.2228 29.4359 39.2045 28.9051 39.296 28.3744C39.3692 28.0083 39.534 27.6789 39.7536 27.3677C39.8817 27.1298 40.138 27.0749 40.4125 27.0383Z" fill="#DFC091"/>
<path id="Vector_64" d="M33.4204 32.2544C33.3472 32.1263 33.457 32.108 33.5485 32.0714C34.2989 31.8518 34.8297 31.3576 35.1225 30.6438C35.1958 30.4608 35.1958 30.2595 35.1592 30.0581C35.0859 29.6372 35.1775 29.4725 35.5801 29.3626C35.8547 29.2894 36.1109 29.2345 36.3488 29.0698C36.3854 29.0515 36.4403 28.9783 36.4952 29.0515C36.5135 29.4541 36.8064 29.6921 37.0626 29.9483C37.1907 30.0215 37.1175 30.1313 37.0992 30.2229C36.9162 30.8818 36.5501 31.4125 35.9462 31.7603C35.2324 32.1629 34.4637 32.3277 33.64 32.3094C33.5668 32.3094 33.4936 32.3277 33.4204 32.2544Z" fill="#FEFEFE"/>
<path id="Vector_65" d="M41.5468 40.6554C42.4985 40.6737 43.4319 40.7286 44.3654 40.8201C44.4752 40.8384 44.6216 40.8201 44.6216 40.9665C44.6399 41.0946 44.4752 41.1129 44.3837 41.1312C43.5234 41.4058 42.6449 41.5339 41.7298 41.5705C41.2173 41.5888 40.7048 41.6254 40.1924 41.6437C39.6799 41.662 39.2406 41.479 38.838 41.1496C38.7648 41.0946 38.7099 41.0214 38.7282 40.9299C38.7465 40.8201 38.8563 40.8201 38.9478 40.8018C39.808 40.7286 40.6682 40.6371 41.5468 40.6554Z" fill="#FEFEFE"/>
<path id="Vector_66" d="M33.4221 32.2545C34.2823 32.2728 35.1242 32.1447 35.8929 31.7238C36.5518 31.3577 36.9362 30.7903 37.0826 30.0582C37.0826 30.0216 37.0826 29.985 37.0826 29.9484C37.3571 29.9484 37.5402 29.7654 37.7415 29.6007C37.7964 29.5641 37.8513 29.4725 37.9245 29.5092C37.9977 29.5458 37.9794 29.6373 37.9794 29.7288C37.8147 30.772 37.229 31.5773 36.4054 32.1996C36.2407 32.3095 36.076 32.4193 35.9112 32.5291C35.3439 32.7304 34.7399 32.8219 34.1359 32.9134C33.7515 32.9683 33.4953 32.8768 33.3489 32.584C33.2757 32.4376 33.2757 32.3278 33.4221 32.2545Z" fill="#DFC091"/>
<path id="Vector_67" d="M33.9533 25.7387C34.4108 25.7936 34.8501 25.9034 35.1429 26.3061C35.1795 26.361 35.2161 26.3976 35.2344 26.4525C35.271 26.544 35.3076 26.6538 35.2344 26.7454C35.1612 26.8186 35.0697 26.8003 34.9599 26.782C34.7403 26.727 34.5023 26.7087 34.2644 26.7087C33.6055 26.7087 33.0015 26.9284 32.3975 27.1846C32.0315 27.3493 31.6654 27.5507 31.2628 27.6239C31.0797 27.6605 30.8784 27.6971 30.6954 27.6056C30.4941 27.5141 30.4758 27.3859 30.6405 27.2395C30.6954 27.2029 30.7503 27.1663 30.8052 27.148C31.2811 26.965 31.702 26.6904 32.123 26.4342C32.6172 26.1414 33.1479 25.9034 33.697 25.7753C33.8068 25.757 33.88 25.757 33.9533 25.7387Z" fill="#DFC091"/>
<path id="Vector_68" d="M47.3122 26.9285C46.9461 26.9285 46.5984 27.02 46.2506 27.0932C46.1957 27.1115 46.1408 27.1115 46.0859 27.1115C45.9944 27.1115 45.9212 27.0932 45.8846 27.02C45.8297 26.9285 45.8663 26.8553 45.9212 26.8003C46.5618 26.1964 47.3854 25.7937 48.2639 26.2879C48.4653 26.3977 48.6483 26.5441 48.8313 26.6905C49.2889 27.0932 49.6915 27.5691 50.2589 27.8436C50.4236 27.9168 50.4053 28.0266 50.2589 28.1181C50.0942 28.2279 49.9295 28.1547 49.7647 28.0998C49.2706 27.9534 48.8679 27.6606 48.4836 27.3311C48.1358 27.0566 47.7514 26.9285 47.3122 26.9285Z" fill="#DFC091"/>
<path id="Vector_69" d="M48.7048 32.1263C48.595 31.9799 48.7231 31.9067 48.7963 31.8334C49.0343 31.6138 49.2539 31.3576 49.4186 31.083C49.6383 30.6804 49.7298 30.2777 49.5101 29.8385C49.3271 29.4724 49.4186 29.326 49.8396 29.326C50.1141 29.4175 50.407 29.4175 50.6815 29.4541C51.1025 29.509 51.194 29.6554 51.0842 30.0581C50.9194 30.7353 50.5168 31.2295 49.9677 31.6321C49.8762 31.7053 49.803 31.7602 49.7115 31.8334C49.4186 32.0348 49.0709 32.0897 48.7048 32.1263Z" fill="#FEFEFE"/>
<path id="Vector_70" d="M25.6779 27.3128C25.6596 28.0632 25.861 28.777 26.0074 29.4908C26.044 29.6555 26.0257 29.8019 25.861 29.8751C25.6962 29.9483 25.5681 29.8568 25.4766 29.7104C25.0191 28.96 24.7079 28.1547 24.5432 27.2945C24.47 26.9467 24.5615 26.8369 24.8909 26.7271C25.0374 26.6722 25.1838 26.6173 25.3302 26.5807C25.5498 26.5441 25.6596 26.6356 25.6779 26.8552C25.6962 27.0199 25.6779 27.1663 25.6779 27.3128Z" fill="#FEFEFE"/>
<path id="Vector_71" d="M28.9729 27.1663C28.6068 27.1663 28.4238 26.9101 28.5336 26.5806C28.7532 25.9949 29.1742 25.6289 29.8148 25.574C30.1625 25.5374 30.492 25.5008 30.8397 25.4642C30.9312 25.4458 31.0228 25.4641 31.096 25.5008C31.279 25.5557 31.3156 25.7204 31.1875 25.8668C31.1326 25.9217 31.0777 25.9583 31.0228 25.9949C30.4371 26.3061 29.888 26.6721 29.3572 27.0382C29.2291 27.1114 29.1193 27.1846 28.9729 27.1663Z" fill="#DFC091"/>
<path id="Vector_72" d="M36.624 34.0299C36.6423 33.6638 36.7155 33.371 36.8985 33.1147C37.0999 32.8585 37.4476 32.7853 37.7222 32.95C37.832 33.0232 37.8686 33.0964 37.8137 33.2429C37.6123 33.7004 37.594 34.158 37.7954 34.6156C37.832 34.6888 37.8503 34.762 37.8503 34.8535C37.8869 35.1829 37.6856 35.3477 37.3744 35.2195C36.9718 35.0731 36.7887 34.7437 36.6789 34.3593C36.6423 34.2312 36.6057 34.1031 36.624 34.0299Z" fill="#DFC091"/>
<path id="Vector_73" d="M49.5092 25.5375C49.9302 25.5741 50.3146 25.5741 50.6806 25.7206C51.1016 25.8853 51.4127 26.233 51.3944 26.5991C51.3761 27.0017 51.1931 27.2763 50.7172 27.02C50.4061 26.8553 50.1315 26.6357 49.857 26.3978C49.6374 26.2147 49.436 26.0134 49.1798 25.867C49.1066 25.8304 49.0334 25.7755 49.0517 25.684C49.07 25.5924 49.1432 25.5558 49.2347 25.5375C49.3445 25.5375 49.4543 25.5375 49.5092 25.5375Z" fill="#DFC091"/>
<path id="Vector_74" d="M40.2668 64.7966C40.1021 64.7966 39.9374 64.8149 39.791 64.7966C39.6079 64.7782 39.553 64.6684 39.6812 64.5403C40.1204 64.0278 40.4499 63.4605 40.7061 62.8382C40.7244 62.7833 40.7427 62.7467 40.7793 62.7101C40.7976 62.6734 40.8342 62.6368 40.8891 62.6368C40.944 62.6368 40.9623 62.6917 40.9623 62.7284C40.9806 62.9114 41.0172 63.0944 41.0355 63.2774C41.0722 63.6252 41.0905 63.9729 41.1088 64.3207C41.1271 64.6684 41.0172 64.7782 40.6695 64.7966C40.5048 64.7966 40.395 64.7966 40.2668 64.7966Z" fill="#FEFEFE"/>
<path id="Vector_75" d="M27.1232 26.1049C26.9584 26.1049 26.7937 26.1049 26.6473 26.1049C26.5009 26.1049 26.4277 26.0683 26.4277 25.9035C26.4277 25.8303 26.4277 25.7754 26.4277 25.7022C26.3544 25.2263 26.4643 25.2812 26.8303 25.2629C27.0866 25.2629 27.3245 25.2446 27.5807 25.2263C27.7271 25.208 27.8187 25.2812 27.837 25.4277C27.837 25.446 27.837 25.4643 27.837 25.4643C27.8736 26.1415 27.9102 26.05 27.3245 26.05C27.2513 26.05 27.1964 26.05 27.1232 26.05C27.1232 26.0866 27.1232 26.0866 27.1232 26.1049Z" fill="#FEFEFE"/>
<path id="Vector_76" d="M52.8031 25.4825C52.9679 25.4825 53.1326 25.4825 53.2973 25.4825C53.3522 25.4825 53.4254 25.4642 53.462 25.5191C53.5902 25.7021 53.4803 25.8851 53.462 26.0681C53.4437 26.1963 53.3339 26.2329 53.2241 26.2329C52.913 26.2329 52.6018 26.2329 52.309 26.2146C52.1442 26.1963 52.0527 26.1047 52.0527 25.9217C52.0527 25.4276 52.0527 25.4276 52.5469 25.4276C52.6384 25.4276 52.7299 25.4276 52.8031 25.4276C52.8031 25.4642 52.8031 25.4825 52.8031 25.4825Z" fill="#FEFEFE"/>
<path id="Vector_77" d="M48.7037 32.1264C49.0331 31.98 49.3992 31.9617 49.7286 31.8152C49.6737 32.0349 49.747 32.2179 49.8202 32.4009C49.8751 32.5474 50.0032 32.5657 50.1496 32.5474C49.8385 32.6572 49.5273 32.7304 49.1979 32.7121C49.0148 32.7121 48.7037 32.4375 48.6671 32.2545C48.6488 32.2179 48.6854 32.1813 48.7037 32.1264Z" fill="#DFC092"/>
<path id="Vector_78" d="M35.2147 47.3724C35.3062 47.409 35.416 47.3724 35.4892 47.4456C34.7205 47.4456 33.9701 47.4456 33.2014 47.4456C31.2979 47.4456 29.3761 47.4456 27.4727 47.4456C27.491 47.409 27.491 47.3907 27.5093 47.3541C27.5642 47.4273 27.6374 47.409 27.7106 47.409C30.1448 47.409 32.5791 47.409 35.0133 47.409C35.0865 47.409 35.1597 47.4273 35.2147 47.3724Z" fill="#422425"/>
<path id="Vector_79" d="M35.9102 47.4456C35.9651 47.4273 36.0383 47.3907 36.0932 47.3724C36.1664 47.4456 36.2396 47.409 36.3311 47.409C37.0815 47.409 37.8136 47.409 38.564 47.409C38.564 47.4273 38.564 47.4456 38.5457 47.4456C37.6672 47.4456 36.7887 47.4456 35.9102 47.4456Z" fill="#422425"/>
<path id="Vector_80" d="M52.5659 47.409C52.5659 47.4456 52.5476 47.4822 52.5293 47.5005C52.4744 47.4456 52.4012 47.4639 52.3463 47.4639C51.6508 47.4639 50.9553 47.4639 50.2598 47.4639C50.2781 47.4273 50.3147 47.409 50.333 47.3724C50.4062 47.4456 50.4794 47.409 50.5526 47.409C51.2298 47.409 51.907 47.409 52.5659 47.409Z" fill="#432627"/>
<path id="Vector_81" d="M53.353 47.4456C53.3347 47.4273 53.3347 47.409 53.3164 47.409C53.9936 47.409 54.6525 47.409 55.3297 47.409C55.4029 47.409 55.4761 47.4273 55.531 47.3724C55.5676 47.3907 55.6042 47.409 55.6225 47.4639C54.8904 47.4456 54.1217 47.4456 53.353 47.4456Z" fill="#432526"/>
<path id="Vector_82" d="M12.1352 57.8232C12.0986 57.8415 12.062 57.8598 12.0254 57.8781C12.0254 57.3107 12.0254 56.7434 12.0254 56.1943C12.0437 56.1943 12.0437 56.1943 12.062 56.1943C12.062 56.6701 12.062 57.146 12.062 57.6036C12.0803 57.6951 12.0437 57.7683 12.1352 57.8232Z" fill="#3C2424"/>
<path id="Vector_83" d="M18.4492 69.4819C18.5041 69.4453 18.559 69.4453 18.6139 69.4636C18.559 69.5368 18.5041 69.4819 18.4492 69.4819Z" fill="#482426"/>
<path id="Vector_84" d="M60.8387 74.7897C60.8387 75.0825 60.619 75.3022 60.3445 75.3205C60.0517 75.3205 59.832 75.1009 59.832 74.8263C59.832 74.5335 60.0517 74.2772 60.3445 74.2955C60.6007 74.2589 60.8204 74.4969 60.8387 74.7897Z" fill="#FBFBFB"/>
<path id="Vector_85" d="M48.1738 59.6169C48.2471 59.4339 48.2837 59.3241 48.3203 59.196C48.3569 59.0862 48.3935 59.0312 48.5216 59.0495C48.668 59.0679 48.5948 59.1594 48.6131 59.2326C48.6131 59.4156 48.6131 59.5803 48.6131 59.7634C48.6131 59.8183 48.6131 59.8732 48.5399 59.8732C48.4667 59.8732 48.4667 59.8183 48.4667 59.7634C48.4667 59.6169 48.4667 59.4888 48.4667 59.3058C48.3569 59.4705 48.3386 59.6352 48.2837 59.7634C48.2654 59.8183 48.2471 59.8549 48.1921 59.8549C48.1189 59.8549 48.1006 59.8183 48.1006 59.7634C48.0457 59.6169 47.9908 59.4705 47.8993 59.3241C47.8993 59.4705 47.8993 59.5986 47.8993 59.7451C47.8993 59.8 47.8993 59.8549 47.8261 59.8549C47.7529 59.8549 47.7529 59.8 47.7529 59.7451C47.7529 59.562 47.7529 59.3607 47.7529 59.1777C47.7529 59.1228 47.7163 59.0312 47.8444 59.0495C47.9176 59.0495 48.0091 59.0312 48.0274 59.1411C48.0457 59.2875 48.1006 59.4339 48.1738 59.6169Z" fill="#262422"/>
<path id="Vector_86" d="M47.2762 59.0495C47.3494 59.0495 47.4409 59.0495 47.5141 59.0495C47.5507 59.0495 47.6057 59.0495 47.6057 59.1044C47.6057 59.1593 47.5691 59.1959 47.5324 59.1776C47.3128 59.141 47.3494 59.2874 47.3494 59.4156C47.3494 59.4888 47.3677 59.562 47.3494 59.6352C47.3311 59.7084 47.4226 59.8548 47.2579 59.8548C47.1115 59.8548 47.203 59.7267 47.1847 59.6535C47.1664 59.5803 47.1847 59.5071 47.1847 59.4339C47.1847 59.3057 47.2213 59.141 46.9834 59.1776C46.9468 59.1776 46.9102 59.1593 46.9102 59.1227C46.9102 59.0678 46.9468 59.0495 46.9834 59.0495C47.0749 59.0495 47.1847 59.0495 47.2762 59.0495Z" fill="#282625"/>
<path id="Vector_87" d="M60.5455 75.1192C60.454 75.0826 60.4723 75.0094 60.4723 74.9545C60.4357 74.863 60.3625 74.8447 60.2893 74.8447C60.1795 74.8447 60.1978 74.9179 60.1978 74.9728C60.1978 75.0277 60.2161 75.0826 60.1429 75.0826C60.0697 75.0826 60.088 75.0094 60.088 74.9728C60.088 74.8813 60.088 74.7898 60.088 74.7165C60.088 74.4603 60.2527 74.3505 60.4906 74.4603C60.5455 74.4786 60.5638 74.5152 60.5821 74.5701C60.637 74.6799 60.454 74.7348 60.5272 74.8264C60.5821 74.9362 60.6004 75.0277 60.5455 75.1192Z" fill="#2B2927"/>
<path id="Vector_88" d="M60.3253 74.5518C60.3985 74.5518 60.4717 74.5884 60.4534 74.6799C60.4351 74.7714 60.3436 74.7897 60.2704 74.7897C60.1606 74.7897 60.1789 74.7165 60.1789 74.6616C60.1789 74.5335 60.2521 74.5335 60.3253 74.5518Z" fill="#EDECEC"/>
</g>
</g>
</g>
</svg>
