<svg width="90" height="90" viewBox="0 0 90 90" fill="none" xmlns="http://www.w3.org/2000/svg">
<g id="Frame 1707479693" clip-path="url(#clip0_371_187)">
<g id="Group 1707480155">
<g id="Group 1707480156">
<path id="Vector" d="M76.1605 50.7461C77.2486 50.7461 78.1598 51.6346 78.1598 52.7268C78.1598 53.8184 77.2739 54.7073 76.1605 54.7073H76.1859L75.4271 54.7328H74.3636L61.3798 54.7581C61.1775 54.7581 61.0256 54.5805 61.0762 54.3772L61.6069 52.2695H61.1008L59.8103 54.6565C59.785 54.7326 59.6334 54.8089 59.5577 54.8089L40.3986 54.8341C40.2212 54.8341 40.0943 54.6817 40.1201 54.504L40.2965 52.7266C38.3485 54.4024 35.6652 54.7833 34.0705 54.7833H26.2248C25.9971 54.7833 25.8705 54.6056 25.9463 54.3771L26.2248 53.5393C24.9343 54.504 23.2131 55.2152 20.885 55.2152C18.1518 55.2152 16.5317 54.1993 15.8486 52.6249C14.1781 54.2501 11.6218 55.1898 9.06499 55.1898C8.2808 55.1898 7.49604 55.1135 6.76218 54.9358L5.82562 57.8307C5.72403 58.1097 5.44555 58.1349 5.29399 57.8812L-0.0967459 49.1463C-0.198797 48.9938 -0.122667 48.7907 0.0548131 48.7145L7.87552 45.4894C7.85018 45.4387 7.82472 45.363 7.79939 45.3122C7.39433 44.2708 7.31867 42.5187 7.5717 41.4012C7.97675 39.6746 10.1277 35.3832 15.8734 35.6371C17.0377 35.6879 18.5563 36.1705 19.5686 36.7292L19.872 35.9927C19.9228 35.8911 20.0494 35.7895 20.1763 35.7895L38.4999 35.7387C39.74 35.7387 41.0817 36.0181 42.0935 36.7039L42.1697 36.0689C42.1697 35.9166 42.3212 35.815 42.4478 35.815H75.0713C75.2238 35.815 75.3499 35.942 75.3757 36.0944L75.7807 39.319C77.0711 37.9227 78.1088 37.0596 79.4251 36.3991C80.463 35.8658 81.7537 35.7642 82.6141 35.7388H83.0446L84.1327 32.3618C84.2085 32.0824 84.5123 32.0571 84.6639 32.311L89.9534 40.8938C90.055 41.0715 89.9788 41.2494 89.8015 41.3256L80.6144 45.0329C80.3359 45.1598 80.1332 44.9566 80.2094 44.6773L80.4878 43.8137C79.8552 44.4487 79.1975 45.2106 78.5389 46.0737C77.6536 47.242 76.5401 49.5782 76.2358 50.4667L76.16 50.6952" fill="#005543"/>
<path id="Vector_2" d="M82.9684 40.7415L82.3611 42.722L87.9546 40.4621L84.7659 35.2817L84.1331 37.2624C84.1331 37.2624 81.526 37.0089 80.1091 37.7195C78.9194 38.3291 77.9827 39.091 76.6416 40.5637C75.9581 41.3002 74.7434 43.103 74.7434 43.103L73.9842 37.2624H69.9089L71.3009 46.3785L68.8711 53.3363H73.6803C73.6803 53.3363 74.7434 50.2889 74.8442 49.9847C75.1734 48.9946 76.3628 46.4806 77.3496 45.1853C79.0963 42.8999 81.2222 40.6907 82.9684 40.7415Z" fill="#FFF200"/>
<path id="Vector_3" d="M27.4392 37.4146L24.0728 47.5212C23.9204 47.9272 23.7685 48.4605 23.4905 48.9176C23.2378 49.3494 22.8577 49.679 22.225 49.679C21.6427 49.679 21.4911 49.3494 21.4911 48.8923C21.5166 48.4605 21.7193 47.9271 21.8709 47.4953L25.2371 37.4146H20.9093L17.3915 47.9018C16.7587 49.8315 15.8728 53.7166 20.8839 53.7166C25.8953 53.7166 27.6156 49.8316 28.2743 47.9018L31.7671 37.4146H27.4392Z" fill="white"/>
<path id="Vector_4" d="M53.0272 53.3362L61.5819 37.2877H57.3805L52.6978 47.242C52.9001 46.0737 54.4187 37.2877 54.4187 37.2877H50.6981C50.6981 37.2877 46.3955 46.1245 45.8893 47.3182L47.7876 37.2877H43.5104L41.7383 53.3362H45.9397L50.5714 43.3062C50.3439 44.3979 48.8252 53.3362 48.8252 53.3362H53.0272ZM61.9362 47.4705H64.1129L65.0744 41.6045L61.9362 47.4705ZM63.4292 37.2877H69.3266L67.4284 53.3616H62.8722L63.4545 50.7713H60.2402L58.8482 53.3107H54.8242L63.4292 37.2877Z" fill="#FFF200"/>
<path id="Vector_5" d="M5.19297 54.9104L1.90234 49.5527L7.69848 47.1658L7.06528 49.1718C7.77461 49.6285 8.60971 49.7555 9.39436 49.7048C10.0774 49.6538 10.8874 49.3496 11.1406 48.7654C11.2925 48.3844 11.0896 47.5214 10.5333 46.9627C9.90053 46.3023 9.44515 45.4388 9.19166 44.7789C8.91353 44.017 8.81194 42.595 9.01511 41.7316C9.34345 40.4113 11.0399 36.9072 15.7978 37.1359C16.8356 37.1608 18.3541 37.6942 19.1129 38.1768L17.3413 41.5538C15.3419 40.3606 14.1274 40.7924 13.6714 41.884C13.2165 42.9763 13.9757 44.0171 14.6839 44.8552C15.5696 45.8707 16.2785 46.9629 16.2785 48.2578C16.2785 51.2797 13.0388 53.717 9.06508 53.717C7.87573 53.717 6.76227 53.4889 5.80026 53.1078L5.19297 54.9104ZM27.87 53.3869H34.0706C36.2473 53.3869 39.7905 52.6503 40.8791 49.3496C41.5118 47.4451 40.3724 45.6419 39.2086 45.0328C40.4487 44.5756 41.6637 43.0268 42.0181 41.8077C43.005 38.3291 40.93 37.3386 38.4996 37.3386H33.2101L27.87 53.3869ZM34.5011 46.9879C36.0196 46.9118 36.9309 47.4955 36.6778 48.5369C36.4501 49.5527 35.6147 49.9079 34.7034 49.9079H33.5141L34.5011 46.9879ZM35.3111 43.6104L36.2726 40.8175H37.006C37.6133 40.8175 38.7272 40.9191 38.1956 42.2902C37.7407 43.3824 36.576 43.6104 35.9182 43.6104H35.3111Z" fill="white"/>
<path id="Vector_6" d="M75.9825 52.6504V52.371H76.1594C76.2609 52.371 76.3616 52.3964 76.3616 52.4979C76.3616 52.6504 76.2605 52.6504 76.1594 52.6504H75.9825ZM75.9825 52.7773H76.1344L76.3871 53.1584H76.5394L76.2864 52.7773C76.4129 52.752 76.5141 52.6758 76.5141 52.5234C76.5141 52.3203 76.4129 52.244 76.1853 52.244H75.8565V53.1583H75.9831V52.7772H75.9825V52.7773ZM76.1597 53.5139C76.5898 53.5139 76.9444 53.1584 76.9444 52.7012C76.9444 52.2441 76.5898 51.9139 76.1597 51.9139C75.7043 51.9139 75.3496 52.2441 75.3496 52.7012C75.3497 53.1584 75.704 53.5139 76.1597 53.5139ZM75.5015 52.7012C75.5015 52.3203 75.7801 52.041 76.1597 52.041C76.514 52.041 76.7925 52.3204 76.7925 52.7012C76.7925 53.0823 76.514 53.3869 76.1597 53.3869C75.7801 53.3869 75.5015 53.0822 75.5015 52.7012Z" fill="#FFF200"/>
</g>
</g>
</g>
<defs>
<clipPath id="clip0_371_187">
<rect width="90" height="90" fill="white"/>
</clipPath>
</defs>
</svg>
