<svg width="90" height="90" viewBox="0 0 90 90" fill="none" xmlns="http://www.w3.org/2000/svg">
<g id="Frame 1707479693">
<g id="Group 1707480171">
<g id="layer1">
<g id="g3328">
<g id="g3278">
<path id="path3124" d="M43.4606 0.000147192C43.3338 -0.000781738 43.2033 0.00293523 43.0771 0.00432863C39.2226 0.0452016 35.3226 0.951374 31.7285 2.66618C31.7285 2.66618 32.2875 2.52266 32.6692 2.52591C32.7235 2.52637 32.7727 2.52684 32.8177 2.53427C33.1878 2.59372 33.5388 2.78508 33.8368 3.01313C34.2579 3.33501 34.4107 3.95228 34.8638 4.22631C35.232 4.44879 35.6963 4.48549 36.1262 4.50685C37.0492 4.5533 37.9546 4.22353 38.8776 4.17662C39.8099 4.12924 40.7547 4.09348 41.6786 4.22631C43.0441 4.42232 44.3975 4.78646 45.6678 5.32385C47.1642 5.95738 48.558 6.83893 49.8714 7.79573C51.1584 8.73348 52.2917 9.86957 53.4399 10.9736C55.1011 12.5709 56.4355 14.5133 58.2337 15.955C58.9719 16.5467 59.7287 17.0483 60.6596 17.4325C61.9888 17.9814 64.8674 18.3776 64.8674 18.3776L66.0717 18.6791C66.6976 18.7831 67.2654 18.9266 67.7673 19.1041L67.7961 19.1124C68.2548 19.2768 68.6578 19.4733 69.0005 19.6986C68.07 16.6257 66.458 13.6958 64.6812 11.0776C60.2287 4.51522 51.4514 0.055883 43.4606 0.000147192Z" fill="#9E7FBA"/>
<path id="path3122" d="M27.2766 5.33643C24.8348 7.13038 22.7145 9.32541 21.006 11.8283C18.3192 15.7688 16.3691 20.5867 16.3691 25.3892V47.7077C16.3673 48.2005 16.6426 48.4504 16.9922 48.4504H23.7578C22.865 48.012 22.2303 47.4286 21.8807 46.7254C19.2788 41.4936 27.6002 32.261 40.5394 25.1747C41.0933 24.7687 41.6161 24.3414 41.5998 24.1761C41.5789 23.9671 40.7418 24.308 40.7418 24.308C34.5682 26.7557 29.1249 30.6126 24.1418 34.7905C24.1418 34.7905 23.1445 30.3116 22.7224 28.105C22.4624 26.7436 22.1179 25.3916 21.9963 24.0112C21.8844 22.7395 21.9963 20.1812 21.9963 20.1812C21.9963 20.1812 22.0567 17.6071 22.442 16.3512C22.8455 15.0363 24.3646 12.5584 24.3646 12.5584C24.3646 12.5584 25.6029 10.8162 26.5718 9.84685C26.8179 9.60068 27.0672 9.12275 27.0751 8.75721C27.0816 8.4567 26.8852 8.27371 26.8151 7.98156C26.7241 7.60116 26.6327 7.14274 26.6461 6.75166C26.653 6.4665 26.7219 6.18627 26.8481 5.93048C26.9414 5.73587 27.1327 5.5027 27.2766 5.33643Z" fill="#682A8F"/>
<path id="path3094" d="M69.8333 25.3516C67.822 30.3436 61.0258 37.1364 51.1871 42.4165C45.4968 45.4703 40.333 47.4123 35.9688 48.4499H69.2311C69.635 48.4499 69.8458 48.2539 69.8458 47.7193C69.8398 41.0519 69.8347 33.1458 69.8333 25.3516Z" fill="#682A8F"/>
<path id="path3096" d="M62.1024 24.8522C58.4949 24.8461 51.2172 27.3886 43.5551 31.7277C32.2971 38.1024 27.2233 44.4582 29.1743 45.6393C31.7747 47.2134 40.1258 46.4972 51.7934 39.7583C56.5815 36.9928 65.6026 30.3031 64.421 25.8917C64.232 25.1871 63.407 24.8545 62.1024 24.8522ZM44.7348 32.6933C44.7348 32.6933 47.268 37.539 43.3489 40.5177C37.9925 44.5887 34.0423 40.2534 34.0423 40.2534C36.679 37.448 40.3975 34.7574 44.7348 32.6933Z" fill="#682A8F"/>
</g>
<g id="g3261">
<g id="text3143">
<path id="path3167" d="M26.1611 85.7702C26.7482 85.7702 27.1977 85.6445 27.5124 85.393C27.6697 85.2627 27.7943 85.0966 27.8761 84.9083C27.9579 84.72 27.9945 84.5148 27.9831 84.3094V84.2639C27.9913 84.0657 27.9552 83.8682 27.8773 83.6861C27.7995 83.504 27.6819 83.3421 27.5335 83.2125C27.2347 82.9529 26.764 82.8245 26.1241 82.8245H22.5674V85.7676H26.1611V85.7702ZM24.9526 79.7236C25.5397 79.7236 25.9866 79.6086 26.2933 79.3811C26.6001 79.1537 26.7534 78.8032 26.7534 78.3323V78.2869C26.7648 78.0951 26.7318 77.9034 26.6569 77.7269C26.5821 77.5504 26.4675 77.394 26.3224 77.2702C26.0342 77.0347 25.6058 76.917 25.0319 76.917H22.5647V79.7236H24.9526ZM18.8679 73.3559H25.894C26.7561 73.3559 27.4939 73.479 28.1047 73.7224C28.7182 73.9659 29.2022 74.1505 29.6068 74.5572C29.8818 74.8756 30.2229 75.1512 30.4265 75.6996C30.5825 76.1251 30.6645 76.7805 30.6645 77.329V77.4548C30.6645 78.3832 30.3128 79.0975 29.9161 79.6674C29.5168 80.2373 28.9456 80.3122 28.3321 80.6172C29.4983 80.8045 30.7544 81.7597 31.2436 82.3616C31.7328 82.9636 31.9761 83.8037 31.9761 84.882V84.9275C31.9761 86.3107 31.5239 87.3916 30.6169 88.1675C29.7099 88.9434 27.5758 89.3313 25.931 89.3313H18.8652V73.3559H18.8679Z" fill="black"/>
<path id="path3169" d="M33.4727 73.3559H45.3935V76.6923H37.3123V79.6407H44.1983V82.7683H37.3123V85.9281H45.5733V89.3313H33.4727V73.3559Z" fill="black"/>
<path id="path3171" d="M47.2422 73.3559H51.3542V85.9468H58.539V89.3313H47.2422V73.3559Z" fill="black"/>
<path id="path3187" d="M60.123 73.3559H64.235V85.9468H71.4199V89.3313H60.123V73.3559Z" fill="black"/>
</g>
<g id="g3255">
<path id="path3157" d="M18.7747 57.9823H14V54.6511H27.7559V57.9823H22.8409V70.6733H18.7747V57.9823Z" fill="black"/>
<path id="path3159" d="M35.0397 65.1006L33.0836 59.6227L31.0004 65.1006H35.0397ZM31.6053 54.5842H34.9046L41.4208 70.6733H37.1345L36.2092 68.3157H29.9033L28.9245 70.6733H24.9609L31.6053 54.5842Z" fill="black"/>
<path id="path3163" d="M63.8614 54.3803C62.7485 54.4161 61.5292 54.7166 60.5942 55.123C59.5969 55.5563 58.7779 56.103 58.0406 56.8563C57.3033 57.6092 56.918 58.4444 56.5061 59.4564C56.0943 60.4685 55.9824 61.5428 55.9824 62.6835V62.7332C55.9824 63.874 56.0943 64.9436 56.5061 65.9483C56.918 66.9524 57.483 67.8275 58.2059 68.573C58.9288 69.3184 59.791 69.9097 60.7882 70.3435C61.7855 70.7773 62.8683 70.9914 64.0392 70.9914C65.2096 70.9914 66.2928 70.7773 67.2901 70.3435C68.2654 69.9242 69.1497 69.3187 69.8934 68.5609C70.6306 67.808 71.2059 66.9273 71.6177 65.9157C72.0295 64.9041 72.1168 63.8257 72.1168 62.6845V62.6389C72.1168 61.4978 72.0295 60.4281 71.6177 59.4239C71.2059 58.4197 70.6367 57.5447 69.9138 56.7992C69.1914 56.0538 68.3329 55.462 67.3356 55.0287C66.3383 54.5953 65.2519 54.3808 64.081 54.3808C64.0067 54.3803 63.9356 54.378 63.8614 54.3803ZM64.0345 57.8842C64.6548 57.8842 65.2226 58.0138 65.7343 58.2762C66.2417 58.5366 66.6919 58.8959 67.0584 59.3329C67.437 59.7832 67.7292 60.2995 67.9206 60.8559C68.1221 61.4318 68.2219 62.0402 68.2219 62.684V62.7379C68.2219 63.3816 68.1221 63.9901 67.9206 64.566C67.7191 65.1419 67.4396 65.6487 67.083 66.0806C66.7263 66.5118 66.2819 66.862 65.7793 67.108C65.2677 67.3621 64.704 67.4875 64.0837 67.4875C63.4639 67.4875 62.8956 67.3579 62.384 67.0955C61.8788 66.8371 61.4322 66.4774 61.0719 66.0388C60.7001 65.586 60.4123 65.0702 60.2223 64.5158C60.0191 63.9265 59.9172 63.3069 59.921 62.6835V62.6338C59.921 61.9896 60.0161 61.3816 60.2098 60.8057C60.4034 60.2298 60.6829 59.723 61.0473 59.2911C61.4074 58.8633 61.851 58.5137 62.351 58.2637C62.8553 58.0096 63.4142 57.8842 64.0345 57.8842Z" fill="black"/>
<path id="path3189" d="M40.793 62.7049C40.793 60.6636 41.3269 58.3821 42.723 56.8935C44.2496 55.2665 46.6968 54.3845 48.9273 54.3845C53.2925 54.3845 55.3079 57.4053 55.3079 57.4053L52.2042 59.6464C52.2042 59.6464 51.3713 58.7003 50.8276 58.409C50.2755 58.1132 49.6311 57.8833 49.0076 57.9423C47.8436 58.0523 46.6086 58.56 45.8337 59.4364C45.1071 60.2585 44.7603 61.468 44.8067 62.5646C44.8689 64.0347 45.4316 65.6519 46.5334 66.6268C47.1458 67.1684 48.1904 67.304 48.8906 67.304C49.9292 67.304 50.4928 67.0997 51.2009 66.7439C51.6795 66.5033 52.4377 65.7165 52.4377 65.7165L55.6817 68.0509C55.6817 68.0509 53.2498 70.9459 49.0076 70.9459C47.1421 70.9459 45.1104 70.4995 43.8099 69.3992C41.8864 67.7722 40.793 66.4457 40.793 62.7049Z" fill="black"/>
</g>
<g id="g3217">
<g id="text3219">
<path id="path3231" d="M72.8569 86.1076H72.2754V85.9268H73.6366V86.1076H73.0551V87.6601H72.8569V86.1076Z" fill="black"/>
<path id="path3233" d="M73.7402 85.9268H73.9381L74.5693 86.8728L75.2004 85.9268H75.3986V87.6601H75.203V86.2562L74.5719 87.1849H74.562L73.9309 86.2588V87.6604H73.7402V85.9268Z" fill="black"/>
</g>
</g>
</g>
</g>
</g>
</g>
</g>
</svg>
